<svg width="146" height="156" viewBox="0 0 146 156" fill="none" xmlns="http://www.w3.org/2000/svg">
<g opacity="0.2" clip-path="url(#clip0_677_447)">
<path d="M99.55 55.3603C99.94 53.4003 100.43 51.4703 101.1 49.6003C103.1 44.0303 105.8 38.6203 109.26 33.8103C112.73 28.9903 117.32 23.8104 123.33 22.3304C125.71 21.7504 128.82 21.5404 130.68 23.4904C132.56 25.4604 132.22 28.5703 131.17 30.8803C130.16 33.1003 128.35 35.3604 125.85 35.9304C125.44 36.0304 124.99 36.0704 124.53 36.0804C124.93 35.4504 125.24 34.7803 125.31 34.0303C125.46 32.3903 124.94 30.3503 123.4 29.4603C121.68 28.4503 119.7 29.5103 119.53 31.5203C119.36 33.6003 120.59 35.4703 122.52 36.2103C122.87 36.3503 123.22 36.3903 123.57 36.4503C122.63 37.5803 121.31 38.4104 119.94 39.0504C118.39 39.7704 116.51 40.4504 115.45 41.8604C114.14 43.6103 114.45 45.8503 114.82 47.8803C114.86 48.1203 115.24 48.1003 115.19 47.8604C114.75 45.4003 114.51 42.7203 116.81 41.1303C118.37 40.0403 120.21 39.5203 121.83 38.5703C122.7 38.0703 123.55 37.3704 124.21 36.5504C127.72 36.7204 130.8 33.3603 131.85 30.2103C132.48 28.3304 132.79 25.9804 131.69 24.2104C130.71 22.6204 128.98 21.7803 127.15 21.6403C121.63 21.2204 116.56 24.9403 113 28.7803C106.27 36.0403 101.25 45.4603 99.29 55.2103C99.37 55.2603 99.46 55.3003 99.53 55.3603L99.55 55.3603ZM121.54 35.1703C120.49 34.2703 119.7 32.7603 120.08 31.3403C120.36 30.3503 121.15 29.2904 122.33 29.6104C122.97 29.7904 123.53 30.1704 123.9 30.7204C124.57 31.7004 124.97 32.9904 124.73 34.1804C124.59 34.9003 124.29 35.5004 123.91 36.0504C123.03 35.9804 122.18 35.7303 121.53 35.1703L121.54 35.1703Z" fill="#824916"/>
<path d="M94.71 17.9599C96.21 16.7099 97.21 14.9099 98.32 13.3299C99.04 12.3199 99.94 10.7399 101.17 10.2899C101.32 10.2299 101.47 10.2699 101.62 10.2599C101.43 10.9999 101.45 11.7999 101.67 12.6099C101.87 13.3699 102.67 15.1099 103.63 13.9699C104.44 12.9799 103.65 10.8499 102.73 10.1999C102.54 10.0599 102.35 10.0099 102.16 9.94993C102.39 9.43994 102.7 8.97994 103.17 8.59994C104.53 7.47994 106.27 6.75994 108.01 6.51994C108.99 6.37994 110.1 6.38994 111.1 6.68994C110.78 7.51994 110.53 8.36993 110.42 9.19993C110.23 10.5699 110.38 12.5999 112.22 12.5399C113.7 12.4899 114.4 10.0399 114.05 8.88994C113.65 7.58994 112.77 6.80994 111.69 6.37994C111.97 5.68994 112.28 5.01993 112.64 4.47993C114.17 2.17993 116.76 0.279929 119.66 0.929931C122.65 1.59993 124.71 3.90994 124.8 6.99994C124.88 9.70994 123.97 12.2799 122.95 14.7499C121.86 17.3599 120.57 19.9599 118.76 22.1499C116.79 24.5299 114.27 26.3799 111.96 28.3999C107.68 32.1499 104.45 36.8099 102 41.9399C100.08 45.9499 98.63 50.1899 97.96 54.5799C98.06 54.6099 98.16 54.6499 98.26 54.6899C99 50.9099 100.02 47.1799 101.58 43.6699C103.56 39.2299 106.07 34.6999 109.47 31.1799C112.84 27.6799 117.21 25.0599 119.95 20.9899C121.24 19.0699 122.26 16.9999 123.14 14.8599C123.91 12.9899 124.68 11.0599 124.94 9.04994C125.2 7.02994 125.08 4.71995 123.73 3.06995C122.38 1.41994 120.1 0.309936 117.93 0.559936C114.89 0.919936 112.5 3.40994 111.26 6.24994C109.83 5.81994 108.12 5.93993 106.7 6.33993C105.23 6.75993 103.71 7.43994 102.61 8.52994C102.2 8.92994 101.94 9.39993 101.76 9.88994C100.07 9.78994 98.57 12.2899 97.79 13.4599C96.89 14.8099 96.03 16.2599 94.87 17.4199C94.39 17.8899 93.8 18.4099 93.11 18.5499C91.96 18.7799 90.59 18.0899 89.68 17.4499C89.61 17.3999 89.51 17.4999 89.59 17.5599C91.21 18.8099 93.06 19.3599 94.71 17.9899L94.71 17.9599ZM112.71 7.63994C113.37 8.37994 113.69 9.34994 113.38 10.3299C113.22 10.8299 112.9 11.6899 112.3 11.8099C111.62 11.9399 111.17 11.3599 111.06 10.7799C110.82 9.56994 111.08 8.15995 111.54 6.84994C111.98 7.03994 112.39 7.27993 112.72 7.64993L112.71 7.63994ZM102.84 10.7499C103.26 11.2399 103.53 11.8899 103.58 12.5299C103.62 12.9499 103.55 14.5799 102.69 14.0099C101.77 13.4199 101.7 11.7499 101.86 10.7899C101.89 10.5899 101.99 10.4299 102.06 10.2499C102.35 10.3299 102.62 10.4899 102.84 10.7499Z" fill="#824916"/>
<path d="M97.1599 57.1104C97.1599 57.1104 97.2299 57.0303 97.2699 56.9903C95.7699 54.6803 96.4799 51.7303 97.3099 49.2403C98.1299 46.8303 99.0999 44.5004 98.9299 41.8904C98.7699 39.3904 97.9899 36.6804 96.2199 34.8204C94.4199 32.9503 92.0499 32.1904 89.5099 31.9704C89.2799 31.9504 89.2599 32.2703 89.4899 32.2803C92.4099 32.5103 95.2899 33.5603 96.8899 36.1703C98.3699 38.5703 99.0099 41.7104 98.4599 44.5004C97.6999 48.3804 94.3299 53.4503 97.1699 57.1003L97.1599 57.1104Z" fill="#824916"/>
<path d="M95.0199 57.1702C95.0199 57.1702 95.0499 57.1702 95.0699 57.1602C94.9799 56.6302 94.9099 56.1002 94.9399 55.5602C95.0499 53.8002 95.5999 52.0402 96.1099 50.3702C96.9499 47.6302 98.0299 45.0502 97.9999 42.1402C97.9799 39.7402 97.4799 37.0702 95.7899 35.2402C94.0499 33.3702 91.4199 32.4202 88.9399 32.0302C88.7399 32.0002 88.6799 32.2902 88.8799 32.3402C91.6099 33.0102 94.6699 33.8102 96.2299 36.4202C97.6599 38.8302 97.9099 41.8502 97.4499 44.5802C96.9699 47.4002 95.7199 50.0502 95.0399 52.8202C94.7199 54.1102 94.4099 55.4302 94.5799 56.7702C94.6099 57.0002 94.6799 57.2102 94.7299 57.4302C94.8099 57.3602 94.8699 57.3002 95.0199 57.1902L95.0199 57.1702Z" fill="#824916"/>
<path d="M90.42 32.4101C89.15 32.5201 87.89 32.4101 86.62 32.4701C85.12 32.5301 83.62 32.9101 82.15 33.2401C80.68 33.5801 79.2 33.8801 77.83 34.5501C76.54 35.1901 75.41 36.1401 74.37 37.1301C72.63 38.7801 71.14 40.6801 69.47 42.4001C68.49 43.4001 66.8 44.9901 65.34 44.0101C65.08 43.8301 65.32 43.4801 65.58 43.6501C67.3 44.8101 69.58 41.6701 70.6 40.5801C72.31 38.7401 73.92 36.8101 75.93 35.2801C78.05 33.6701 80.57 33.1701 83.12 32.6301C84.27 32.3901 85.44 32.1101 86.62 32.0901C87.9 32.0601 89.15 32.4401 90.44 32.3801C90.45 32.3801 90.45 32.4001 90.44 32.4101L90.42 32.4101Z" fill="#824916"/>
<path d="M79.43 42.4801C79.58 39.7201 76.14 42.4001 75.36 43.1801C74.21 44.3401 73.17 45.4301 71.54 45.8401C71.38 45.8901 71.27 45.7101 71.36 45.5801C72.1 44.5901 72.46 43.4101 73.2 42.4201C73.26 42.4801 73.31 42.5501 73.36 42.6101C72.06 43.4501 71.09 44.6301 69.56 45.0901C69.41 45.1301 69.25 44.9701 69.33 44.8201C69.75 43.9901 70.29 43.2201 70.65 42.3701C70.76 42.4601 70.85 42.5401 70.95 42.6301C69.94 43.4301 68.78 44.2501 67.47 44.4301C66.75 44.5301 65.78 44.5601 65.32 43.8801C65.27 43.7901 65.37 43.6901 65.45 43.7301C67.36 44.6901 69.22 43.4801 70.71 42.2801C70.89 42.1401 71.08 42.3701 71.01 42.5401C70.66 43.4201 70.12 44.1701 69.66 44.9801C69.59 44.9001 69.5 44.8001 69.42 44.7101C70.93 44.3101 71.92 43.2001 73.21 42.3901C73.33 42.3201 73.45 42.4701 73.36 42.5801C72.61 43.5501 72.24 44.7101 71.61 45.7501C71.54 45.6701 71.48 45.5901 71.42 45.5201C72.73 45.0401 73.58 44.1301 74.43 43.0701C75.08 42.2501 75.77 41.3101 76.74 40.8501C77.51 40.4901 78.43 40.2101 79.23 40.6301C79.99 41.0301 79.75 41.8801 79.43 42.4801C79.43 42.4901 79.41 42.4801 79.41 42.4801L79.43 42.4801Z" fill="#824916"/>
<path d="M76.26 29.3102C77.03 30.5702 76.15 31.3202 74.88 31.5302C73.02 31.8302 70.21 31.5102 69.45 33.7302C69.36 33.6502 69.26 33.5602 69.17 33.4802C70.12 33.2302 70.8 33.3402 71.67 33.7802C71.79 33.8402 71.76 33.9902 71.65 34.0502C70.36 34.6702 69.27 35.6502 67.91 36.1602C67.91 36.0602 67.93 35.9602 67.93 35.8702C68.82 36.4402 69.62 36.3402 70.37 35.6102C70.5 35.4702 70.7 35.6102 70.63 35.7802C70.12 37.0302 68.66 37.5102 68.18 38.7502C68.13 38.6702 68.07 38.5802 68.02 38.5002C68.67 38.4902 69.22 38.2702 69.83 38.0502C69.98 38.0002 70.1 38.1902 70 38.3002C69.58 38.8102 68.98 39.1802 68.46 39.5902C68.29 39.7202 68.14 39.8602 67.98 39.9902C67.69 40.2502 68.06 40.5102 68.35 40.4202C68.73 40.3102 69.08 40.1202 69.42 39.9102C69.51 39.8602 69.65 39.9102 69.65 40.0302C69.59 41.6902 67.34 44.9702 65.4 43.9302C65.26 43.8502 65.37 43.6202 65.52 43.7002C67.25 44.6402 69.33 41.5302 69.36 40.0502C69.44 40.0902 69.51 40.1302 69.59 40.1602C69.27 40.3602 67.69 41.3202 67.46 40.5802C67.17 39.6502 69.3 38.7002 69.78 38.1002C69.83 38.1802 69.89 38.2602 69.94 38.3502C69.3 38.5902 68.74 38.8202 68.06 38.8402C67.92 38.8402 67.85 38.7102 67.89 38.5902C68.39 37.3502 69.84 36.8902 70.36 35.6402C70.45 35.7002 70.54 35.7602 70.62 35.8202C69.77 36.6602 68.83 36.8002 67.82 36.1502C67.71 36.0802 67.7 35.9102 67.83 35.8602C69.19 35.3702 70.28 34.3802 71.58 33.7702C71.58 33.8602 71.57 33.9502 71.56 34.0402C70.76 33.6702 70.18 33.6202 69.33 33.9002C69.18 33.9502 69 33.8102 69.05 33.6402C69.47 32.1302 70.83 31.4502 72.26 31.1102C73.36 30.8602 76.47 31.2902 75.98 29.4602C75.93 29.2802 76.18 29.1402 76.29 29.3102L76.26 29.3102Z" fill="#824916"/>
<path d="M97.1498 44.9303C95.0598 45.7903 93.1498 43.7203 92.5898 41.8503C92.5298 41.6603 92.7298 41.4803 92.9098 41.5703C93.5298 41.8603 94.3398 41.5703 94.8398 41.1703C94.8598 41.3003 94.8898 41.4403 94.9198 41.5703C94.1598 41.5003 93.5298 40.9203 93.0998 40.3203C92.9398 40.1003 93.2498 39.8603 93.4398 40.0203C94.2098 40.6303 94.7198 39.3903 94.9798 38.9003C95.0898 38.9903 95.1998 39.0903 95.3098 39.1903C94.4398 39.8003 93.5798 39.4503 92.9098 38.7103C92.8098 38.6003 92.8298 38.3603 93.0198 38.3703C93.8798 38.4103 94.2698 37.7703 94.5698 37.0803C94.6598 37.1403 94.7398 37.2003 94.8298 37.2603C94.4398 37.8103 93.8998 37.9903 93.2598 37.7803C93.0998 37.7303 93.0998 37.5403 93.2398 37.4603C93.8898 37.1503 93.9198 36.6403 93.8598 36.0803C93.9498 36.1403 94.0398 36.2003 94.1298 36.2603C92.7898 36.7303 91.1998 37.2103 90.1598 35.9503C89.6298 35.3003 89.5398 34.4003 89.8698 33.6603C90.2598 32.7803 90.8898 32.6203 91.6598 32.9303C91.7498 32.9703 91.7098 33.0903 91.6298 33.1003C91.2198 33.1403 90.7898 33.7203 90.6298 34.0403C90.2998 34.6903 90.5298 35.5103 91.0498 35.9903C91.7598 36.6703 93.2298 36.1203 94.0198 35.8803C94.1498 35.8403 94.2798 35.9203 94.2898 36.0603C94.3198 36.8303 94.0998 37.4603 93.3598 37.7603C93.3598 37.6603 93.3798 37.5603 93.3898 37.4703C93.7898 37.3403 94.1898 37.2103 94.5898 37.0703C94.6998 36.9003 94.9398 37.0203 94.8698 37.2203C94.5298 38.1003 94.0698 38.7703 93.0498 38.7603C93.0898 38.6503 93.1298 38.5303 93.1698 38.4203C93.6898 38.9703 94.3698 39.3303 95.0698 38.8103C95.2598 38.6703 95.4898 38.9003 95.3898 39.1003C94.9498 40.0003 94.2198 41.2603 93.1398 40.3803C93.2598 40.2803 93.3698 40.1703 93.4898 40.0703C93.8198 40.5303 94.3398 41.1103 94.9598 41.1403C95.1298 41.1403 95.2998 41.3603 95.1398 41.5003C94.4998 42.0703 93.5198 42.4303 92.7198 41.9903C92.8298 41.9003 92.9398 41.8103 93.0498 41.7003C93.4798 43.4403 95.1698 45.4803 97.1598 44.9103C97.1698 44.9103 97.1798 44.9203 97.1598 44.9303L97.1498 44.9303Z" fill="#824916"/>
<path d="M96.91 45.0399C96.14 45.8299 95.16 46.4299 94.06 46.5899C92.97 46.7499 91.92 45.6799 91.15 45.0899C91.35 44.9899 91.53 44.8999 91.73 44.8099C91.78 45.3799 91.68 46.1199 92.1 46.5699C92.26 46.7499 92.23 47.0099 91.99 47.0999C90.09 47.8199 89.33 45.8799 88.6 44.5299C88.45 44.2499 88.85 43.9799 89 44.2599C89.56 45.2599 90.23 47.2699 91.71 46.5399C91.71 46.7099 91.69 46.8699 91.68 47.0299C91.01 46.4399 91.09 45.6599 91.03 44.8299C91.01 44.5299 91.38 44.3599 91.6 44.5499C92.3 45.1499 92.88 45.8599 93.8 46.1099C94.81 46.3899 96.11 45.5699 96.85 44.9599C96.88 44.9199 96.94 44.9799 96.9 45.0199L96.91 45.0399Z" fill="#824916"/>
<path d="M96.5898 44.9701C93.8398 47.1301 90.6598 44.3601 89.0898 42.0401C88.1598 40.6601 87.6998 38.8501 87.8998 37.1901C88.0998 35.4301 89.0698 33.3701 90.7598 32.5801C90.8798 32.5201 90.9798 32.7001 90.8998 32.7901C90.3398 33.4101 89.7298 33.9001 89.2598 34.6101C88.7898 35.3401 88.5198 36.1801 88.3698 37.0301C88.0898 38.6101 88.4598 40.3101 89.2498 41.6901C90.5298 43.9301 93.9498 47.2101 96.5698 44.9601C96.5698 44.9601 96.5898 44.9701 96.5798 44.9801L96.5898 44.9701Z" fill="#824916"/>
<path d="M83.0198 52.8901C82.3298 50.5601 81.3298 48.3601 80.9698 45.9401C80.6498 43.8201 81.0898 41.7401 81.8198 39.7501C83.2398 35.7901 86.4698 32.5501 90.8798 32.7901C91.0998 32.8001 91.1198 33.1401 90.8998 33.1301C86.2898 32.8501 83.2598 36.3801 81.8698 40.4201C81.2098 42.3301 80.9798 44.2701 81.2698 46.2701C81.5898 48.5101 82.4198 50.7101 83.0398 52.8801C83.0398 52.8901 83.0198 52.9001 83.0198 52.8801L83.0198 52.8901Z" fill="#824916"/>
<path d="M84.34 55.6002C84.01 54.8302 83.65 54.0902 83.56 53.2402C83.47 52.4602 83.98 51.7002 84.02 50.9302C84.02 50.7302 84.22 50.6302 84.38 50.7602C84.64 50.9502 84.82 51.2002 85 51.4702C85.11 51.6302 85.2 51.8102 85.3 51.9802C85.34 52.0402 85.37 52.0802 85.4 52.1402C85.54 52.4302 85.77 52.5002 86.12 52.3502C85.86 51.4702 85.5 50.7402 86.01 49.8802C86.11 49.7102 86.35 49.7202 86.42 49.9102C86.77 50.7902 87.23 50.9702 88.13 50.8102C88.07 50.9502 88.03 51.1002 87.97 51.2502C86.99 50.3702 87.12 49.0302 87.44 47.8702C87.5 47.6702 87.75 47.6102 87.87 47.7902C88.16 48.2002 88.39 49.2702 89.19 48.7902C89.19 48.8902 89.18 48.9902 89.17 49.0902C87.71 47.7102 89.07 46.2102 88.64 44.5802C88.58 44.3402 88.96 44.2102 89.03 44.4502C89.39 45.9202 88.04 47.6402 89.43 48.8002C89.52 48.8802 89.51 49.0402 89.41 49.1102C88.31 49.8702 88.05 48.8102 87.48 48.0502C87.62 48.0202 87.77 47.9902 87.91 47.9702C87.67 48.9502 87.46 50.1202 88.31 50.8702C88.44 50.9802 88.42 51.2602 88.22 51.3002C87.02 51.5202 86.37 51.2302 86 50.0502C86.13 50.0802 86.25 50.1002 86.38 50.1302C85.87 50.8602 86.2 51.7302 86.49 52.4702C86.52 52.5302 86.49 52.6102 86.43 52.6502C85.24 53.4702 84.8 51.6602 84.1 51.0902C84.22 51.0502 84.34 51.0102 84.46 50.9702C84.4 51.5802 84.17 52.0902 83.98 52.6702C83.66 53.6402 84.11 54.6702 84.38 55.6002C84.38 55.6202 84.36 55.6302 84.35 55.6002L84.34 55.6002Z" fill="#824916"/>
<path d="M84.1199 55.4199C81.9799 54.4799 80.8499 51.5399 81.0199 49.3299C81.0399 48.9999 81.5199 48.9499 81.5399 49.2999C81.5999 50.2599 80.9099 50.9499 80.6599 51.8199C80.5799 52.0899 80.2099 52.1299 80.1099 51.8499C79.7099 50.7199 78.4999 48.6899 79.5699 47.6199C79.7599 47.4299 80.1199 47.5699 80.0499 47.8599C79.8699 48.5799 79.3499 49.1299 79.0699 49.8199C78.9799 50.0399 78.6399 49.9899 78.5699 49.7799C78.0199 48.1499 77.5399 46.9099 78.4899 45.3299C78.6499 45.0599 79.0899 45.2799 78.9199 45.5399C78.6799 45.9499 78.4399 46.1599 77.9999 46.3499C77.9099 46.3899 77.7699 46.3399 77.7199 46.2599C77.3099 45.4699 77.8099 44.6499 78.2199 43.9599C78.4899 43.5099 78.7699 43.0699 78.9799 42.5799C79.2499 41.9099 78.8899 41.4699 78.4999 40.9599C78.4199 40.8499 78.5399 40.7199 78.6599 40.7399C79.6499 40.9099 79.9599 41.8399 79.5899 42.7099C79.3799 43.2099 79.0699 43.6599 78.7699 44.0999C78.5899 44.3699 78.4099 44.6399 78.2499 44.9299C78.0599 45.2599 77.7799 46.5199 78.4799 45.3299C78.6299 45.3999 78.7699 45.4799 78.9099 45.5399C78.0499 47.0099 78.5699 48.1199 79.0699 49.5999C78.8999 49.5899 78.7299 49.5799 78.5599 49.5699C78.8199 48.9299 79.3199 48.4199 79.4799 47.7499C79.6399 47.8299 79.8099 47.9099 79.9599 47.9899C79.1299 48.8199 80.2999 50.7699 80.6199 51.6699C80.4399 51.6799 80.2499 51.6899 80.0699 51.6999C80.2999 50.8899 81.0299 50.1899 80.9999 49.3299C81.1699 49.3399 81.3399 49.3499 81.5099 49.3699C81.3099 51.3899 82.2799 54.3099 84.1499 55.3399C84.1999 55.3599 84.1499 55.4299 84.0999 55.4099L84.1199 55.4199Z" fill="#824916"/>
<path d="M98.52 29.57C98.85 30.87 97.05 31.53 96.05 31.14C94.98 30.73 94.52 29.69 93.22 30.12C92.53 30.36 90.81 31.34 91.71 32.19C92.08 32.54 91.54 33.13 91.2 32.77C89.92 31.4 91.6 30.13 92.86 29.67C93.57 29.41 94.31 29.4 94.93 29.87C95.46 30.27 95.89 30.83 96.55 31.02C97.4 31.27 98.65 30.5 98.49 29.57C98.49 29.56 98.52 29.55 98.52 29.57Z" fill="#824916"/>
<path d="M91.32 32.5399C87.66 30.5899 90.23 26.7299 92.46 24.6999C93.65 23.6099 95.09 22.9799 96.54 22.3299C98.23 21.5699 100.63 20.5699 101.01 18.5199C101.04 18.3399 101.31 18.3999 101.29 18.5799C100.89 21.4899 96.85 22.6099 94.63 23.7399C92 25.0799 87.37 30.1299 91.33 32.5399C91.33 32.5399 91.33 32.5599 91.33 32.5499L91.32 32.5399Z" fill="#824916"/>
<path d="M98.7799 29.5201C98.0799 29.9301 97.4399 29.8301 96.7399 29.4601C96.5899 29.3801 96.5999 29.1501 96.7699 29.1001C97.9999 28.6801 98.3299 27.6001 98.9299 26.5801C99.0399 26.6501 99.1499 26.7301 99.2699 26.8101C98.7999 27.2201 98.3399 27.2901 97.7299 27.1601C97.5599 27.1301 97.5099 26.8901 97.6699 26.8001C98.8099 26.0701 99.6299 25.0001 99.7699 23.6201C99.8899 23.6801 100.02 23.7401 100.15 23.8101C99.7199 24.3701 99.2699 24.6901 98.5299 24.6601C98.3299 24.6501 98.1699 24.3601 98.3899 24.2401C99.5399 23.6401 100.36 22.5301 100.75 21.3001C100.83 21.3701 100.91 21.4401 100.99 21.5201C100.63 21.6301 100.33 21.7101 100.02 21.9301C99.9799 21.8401 99.9399 21.7601 99.8999 21.6701C100.87 21.3601 101.05 19.7701 100.84 18.9401C100.79 18.7401 101.09 18.6401 101.13 18.8401C101.38 19.8401 101.13 21.5901 99.9899 21.9401C99.8299 21.9901 99.7399 21.7801 99.8599 21.6801C100.17 21.4301 100.5 21.3001 100.88 21.1601C101.01 21.1101 101.15 21.2401 101.12 21.3701C100.78 22.7601 99.9399 23.9501 98.6499 24.6101C98.5999 24.4701 98.5599 24.3301 98.5099 24.1901C99.0599 24.2201 99.4899 23.9301 99.8199 23.5101C99.9699 23.3201 100.22 23.5001 100.19 23.6901C100.03 25.1701 99.1299 26.3401 97.8899 27.1201C97.8699 27.0001 97.8399 26.8701 97.8199 26.7501C98.2399 26.9001 98.6099 26.8201 98.9499 26.5201C99.1199 26.3601 99.4199 26.5301 99.2999 26.7501C98.6499 27.9401 98.3299 29.1101 96.8899 29.4601C96.8899 29.3401 96.9099 29.2201 96.9199 29.1001C97.4899 29.4801 98.0599 29.6701 98.7499 29.4701C98.7799 29.4601 98.8099 29.5001 98.7699 29.5201L98.7799 29.5201Z" fill="#824916"/>
<path d="M101.18 18.9503C101.49 19.3503 100.75 19.8903 100.5 20.1203C99.57 20.9103 98.47 20.8503 97.33 20.9903C97.17 21.0103 97.06 20.7903 97.18 20.6803C97.53 20.3503 97.7 19.9803 97.85 19.5203C97.94 19.6003 98.03 19.6903 98.12 19.7703C96.91 20.1703 95.54 20.4003 94.65 21.3803C94.47 21.5703 94.22 21.4303 94.17 21.2103C94.07 20.6503 94.18 20.1903 94.49 19.7103C94.59 19.8303 94.68 19.9403 94.79 20.0503C93.96 20.3203 93.1 20.6703 92.69 21.5003C92.59 21.7203 92.28 21.5903 92.3 21.3603C92.38 20.7603 92.48 20.2903 92.87 19.8103C92.93 19.9203 92.98 20.0303 93.04 20.1503C91.87 20.3103 90.82 20.5403 90.43 21.8003C90.29 22.2203 90.35 22.7803 90.28 23.2203C90.18 23.9003 89.77 25.1103 88.83 24.7103C87.68 24.2303 87.75 23.2403 88.35 22.3103C88.67 21.8003 89.09 21.3703 89.49 20.9203C90.43 19.8803 90.27 18.6403 89.46 17.6003C89.57 17.6003 89.68 17.6203 89.78 17.6303C89.34 18.1903 88.76 18.6203 88.28 19.1403C88.1 19.3503 87.77 19.0603 87.96 18.8603C88.6 18.1503 88 17.1603 87.73 16.4103C87.88 16.4203 88.02 16.4303 88.16 16.4403C87.97 16.9803 87.62 17.3803 87.07 17.5703C86.84 17.6403 86.7 17.3303 86.89 17.2003C87.61 16.6803 86.7 15.3003 86.47 14.6903C86.6 14.6903 86.74 14.6703 86.87 14.6703C86.72 15.1303 86.47 15.4403 86.1 15.7503C86 15.8303 85.81 15.7703 85.78 15.6403C85.5 14.3903 85.25 13.2703 85.96 12.1203C86.1 11.9003 86.4 12.0203 86.38 12.2703C86.31 13.0703 85.77 13.5103 85.13 13.9103C84.65 14.2203 84.14 14.4203 83.83 14.9403C83.33 15.7903 83.23 16.9003 83.47 17.8403C83.53 18.0603 83.21 18.1603 83.14 17.9503C83.02 17.5603 82.9 17.1703 82.77 16.7803C82.86 16.7803 82.96 16.8003 83.06 16.8103C82.52 17.9103 82.21 18.9203 82.68 20.1103C82.74 20.2803 82.54 20.4703 82.38 20.3703C82 20.1303 81.69 19.8103 81.35 19.5203C81.47 19.4803 81.59 19.4403 81.71 19.4003C81.39 20.4503 82.79 23.0403 81.34 23.5903C80.74 23.8103 80.07 23.3403 79.86 22.8103C79.59 22.1503 79.55 19.7803 78.47 20.1803C78.17 20.2903 78.01 19.8103 78.32 19.7203C79.95 19.2103 79.8 21.5703 80.15 22.5303C80.33 23.0303 81.26 23.6403 81.48 22.8503C81.58 22.4603 81.48 21.9903 81.43 21.6003C81.33 20.8803 81.04 20.0303 81.27 19.3103C81.32 19.1603 81.5 19.0803 81.63 19.1903C81.94 19.4603 82.22 19.7603 82.57 19.9903C82.47 20.0803 82.36 20.1603 82.26 20.2503C81.75 18.9503 82.17 17.8703 82.76 16.6803C82.82 16.5503 83.01 16.5703 83.05 16.6903C83.18 17.0803 83.31 17.4603 83.45 17.8503C83.34 17.8903 83.23 17.9203 83.12 17.9603C82.79 16.7803 82.99 15.5603 83.57 14.5003C84.14 13.4703 85.79 13.5803 85.91 12.1903C86.05 12.2403 86.19 12.2903 86.33 12.3403C85.67 13.3903 85.91 14.3903 86.16 15.5203C86.05 15.4803 85.94 15.4403 85.83 15.4103C86.04 15.1403 86.24 14.8703 86.44 14.6103C86.5 14.4203 86.77 14.3803 86.83 14.5803C87.15 15.4803 87.93 16.6703 87.14 17.5403C87.04 17.4303 86.95 17.3203 86.86 17.2203C87.27 16.9903 87.54 16.7003 87.71 16.2603C87.79 16.0603 88.08 16.1103 88.15 16.2903C88.47 17.2303 89.05 18.3203 88.25 19.1703C88.15 19.0703 88.03 18.9803 87.93 18.8903C88.42 18.3703 88.99 17.9503 89.45 17.4003C89.53 17.2903 89.69 17.3203 89.76 17.4203C90.6 18.4603 90.77 19.4903 90.22 20.7103C89.82 21.6003 87.47 23.3003 88.86 24.1903C89.78 24.7903 89.83 21.8303 90.03 21.3903C90.6 20.1703 91.73 19.9303 92.98 19.7803C93.16 19.7603 93.25 19.9903 93.15 20.1203C92.77 20.5603 92.75 20.9603 92.68 21.4903C92.55 21.4403 92.42 21.4003 92.29 21.3503C92.72 20.4303 93.69 19.9703 94.6 19.6203C94.79 19.5503 95 19.7803 94.88 19.9603C94.64 20.3203 94.56 20.7103 94.66 21.1403C94.5 21.1103 94.35 21.0703 94.2 21.0403C95.21 20.0103 96.62 19.7903 97.95 19.3903C98.09 19.3503 98.28 19.4803 98.23 19.6403C98.05 20.1603 97.84 20.5903 97.43 20.9703C97.38 20.8603 97.32 20.7603 97.28 20.6603C98.11 20.5703 98.9 20.6303 99.7 20.3403C100 20.2303 101.43 19.5303 101.09 19.0303C101.07 19.0003 101.12 18.9703 101.14 18.9903L101.18 18.9503Z" fill="#824916"/>
<path d="M90.9298 32.6599C87.8798 31.9999 86.4398 28.6699 85.5798 25.9899C84.9998 24.1699 84.6998 22.3299 84.6898 20.4299C84.6898 19.3699 84.7898 18.3199 84.8898 17.2599C85.0098 15.9999 85.0198 14.6399 85.3098 13.4099C85.3398 13.2799 85.5198 13.2999 85.5298 13.4299C85.7198 15.3499 85.1698 17.4499 85.0598 19.3699C84.9498 21.3699 85.1598 23.2899 85.6998 25.2099C86.4098 27.7999 87.8498 32.1099 90.9298 32.6499C90.9498 32.6499 90.9298 32.6699 90.9298 32.6699L90.9298 32.6599Z" fill="#824916"/>
<path d="M90.8898 32.1099C88.9098 32.6699 86.6498 31.8599 84.7498 31.2299C82.5798 30.5299 80.4898 29.1799 78.4898 28.0699C76.6798 27.0599 74.9698 25.8999 73.6098 24.3099C72.8698 23.4399 72.3398 22.4599 71.8998 21.4099C71.3798 20.1699 70.8098 18.8999 70.6198 17.5699C70.5998 17.3999 70.8398 17.3699 70.8998 17.5199C71.7098 19.7099 72.3198 21.9599 73.7598 23.8399C75.0398 25.5199 76.8698 26.6699 78.6798 27.6899C80.4998 28.7099 82.3498 29.7399 84.2598 30.5799C85.2498 31.0199 86.2898 31.3299 87.3098 31.6799C88.4698 32.0799 89.6598 32.4199 90.8798 32.0799C90.8998 32.0799 90.8998 32.0899 90.8798 32.0999L90.8898 32.1099Z" fill="#824916"/>
<path d="M76.23 29.8C75.34 28.91 74.42 29.35 73.35 29.24C72.36 29.14 71.46 28.66 70.7 28.04C70.5 27.88 70.68 27.55 70.92 27.6C71.57 27.72 72.04 27.47 72.57 27.16C72.6 27.31 72.63 27.48 72.66 27.63C71.53 27.24 70.66 26.45 70.23 25.34C70.15 25.13 70.38 25 70.55 25.06C71.05 25.25 71.47 25.56 72 25.69C71.94 25.82 71.86 25.95 71.8 26.09C70.91 25.48 69.69 24.31 69.96 23.06C70.11 22.34 71.15 23.23 71.4 23.37C71.31 23.45 71.22 23.53 71.12 23.61C70.92 22.75 70.28 22.1 70.05 21.25C70 21.07 70.16 20.94 70.33 21.01C70.66 21.14 70.9 21.23 71.2 21.42C71.1 21.51 71 21.6 70.89 21.68C70.58 20.95 69.85 20.12 69.93 19.28C70.01 18.4 70.39 17.64 70.74 16.83C70.86 16.55 71.35 16.72 71.25 17.01C71.04 17.64 70.78 18.25 70.57 18.87C70.25 19.85 70.98 20.67 71.3 21.54C71.38 21.77 71.11 21.89 70.94 21.78C70.68 21.6 70.43 21.5 70.14 21.37C70.23 21.28 70.33 21.21 70.42 21.13C70.62 21.99 71.28 22.63 71.49 23.49C71.53 23.65 71.37 23.83 71.21 23.73C70.75 23.48 70.25 22.83 70.43 23.69C70.62 24.62 71.36 25.23 72.09 25.74C72.28 25.88 72.1 26.18 71.89 26.14C71.32 26 70.87 25.67 70.33 25.47C70.44 25.38 70.55 25.28 70.65 25.19C71.03 26.15 71.77 26.81 72.76 27.12C72.97 27.18 73.06 27.46 72.85 27.59C72.21 28 71.57 28.26 70.81 28.09C70.88 27.95 70.95 27.8 71.03 27.65C72.11 28.58 73.14 28.72 74.5 28.86C75.26 28.94 75.75 29.2 76.24 29.78C76.24 29.79 76.23 29.81 76.22 29.8L76.23 29.8Z" fill="#824916"/>
<path d="M78.4898 19.8802C78.6598 20.5902 78.4398 21.1702 78.1398 21.8202C78.0798 21.9402 77.9198 21.9102 77.8798 21.8002C77.5098 20.8502 76.9898 20.2402 75.9998 19.9102C76.0798 19.7902 76.1598 19.6802 76.2398 19.5602C76.5398 20.0902 76.6798 20.6502 76.2298 21.1402C76.1298 21.2502 75.9298 21.2502 75.8498 21.1102C75.4598 20.4802 74.8698 20.2202 74.2298 19.9002C74.3298 19.7802 74.4398 19.6702 74.5398 19.5502C74.8198 19.9902 74.9698 20.4402 75.0098 20.9702C75.0298 21.2402 74.6198 21.3202 74.5398 21.0602C74.2198 20.0102 72.4098 20.0102 71.7098 19.2702C71.1098 18.6402 70.4098 17.4602 70.8998 16.5902C70.9898 16.4402 71.2098 16.4902 71.2298 16.6702C71.3898 18.1502 71.8598 19.0002 73.2598 19.5702C73.9198 19.8502 74.7698 20.1402 75.0098 20.9002C74.8498 20.9302 74.6898 20.9602 74.5398 20.9902C74.4998 20.5202 74.3998 20.2202 74.1498 19.8202C74.0198 19.6202 74.2398 19.3602 74.4698 19.4702C75.1998 19.8302 75.8298 20.1302 76.2698 20.8402C76.1398 20.8302 76.0198 20.8302 75.8898 20.8102C75.8898 20.4802 75.8798 20.1502 75.8798 19.8102C75.7798 19.6002 75.9498 19.3802 76.1898 19.4702C77.2598 19.8902 77.8398 20.6202 78.1898 21.7102C78.1098 21.7102 78.0198 21.7002 77.9298 21.6902C78.2298 21.1202 78.4798 20.5802 78.3598 19.9202C78.3398 19.8202 78.4998 19.7902 78.5298 19.8902L78.4898 19.8802Z" fill="#824916"/>
<path d="M108.29 70.8002C111.4 70.4602 114.57 70.5002 117.67 70.9302C120.56 71.3402 123.25 72.3502 126.09 73.0002C128.95 73.6502 131.59 73.3902 134.47 72.9702C136.97 72.6102 139.59 72.1101 141.63 70.5202C143.39 69.1502 144.81 67.2602 145.5 65.1302C146.18 63.0402 146.27 60.7102 145.13 58.7502C144.05 56.9102 142.28 55.5902 140.27 54.9002C137.12 53.8102 133.36 53.8802 130.66 55.9602C130.37 55.8302 130.08 55.7102 129.74 55.6802C129.01 55.6202 128.09 55.7302 127.26 56.0102C127.26 55.9602 127.26 55.9202 127.26 55.8802C127.11 54.9802 126.15 54.6202 125.37 54.4802C124.14 54.2602 122.85 54.3302 121.64 54.0102C119.13 53.3502 120.61 50.7702 121.53 49.2202C121.58 49.1402 121.45 49.0802 121.4 49.1502C121.03 49.7402 120.68 50.3502 120.42 51.0002C120.02 51.9802 119.56 53.3101 120.74 53.9501C121.76 54.4902 123.02 54.4701 124.14 54.5602C125.14 54.6602 127 54.7702 127.07 56.1102C126.43 56.3602 125.84 56.6902 125.48 57.1802C125.15 57.6202 124.9 58.2302 125.09 58.7802C125.19 59.0602 125.55 58.9701 125.74 58.8401C126.53 58.3101 127.15 57.4701 127.26 56.5201C128.26 56.1601 129.37 56.0301 130.3 56.3102C130.11 56.4802 129.9 56.6302 129.72 56.8302C128.58 58.0702 127.86 59.7301 128.15 61.4501C128.39 62.8801 129.33 64.0902 130.86 63.3502C133.47 62.0902 133.37 57.5602 131.04 56.1302C132.51 55.0802 134.32 54.3902 136.13 54.4302C138.65 54.4802 141.46 55.1902 143.35 56.9502C145.47 58.9302 146.19 61.7302 145.34 64.5002C144.55 67.0702 142.79 69.5002 140.44 70.8502C137.83 72.3502 134.73 72.5902 131.81 72.9902C129.01 73.3702 126.42 72.8602 123.73 72.0802C121.05 71.3102 118.38 70.6502 115.59 70.4102C113.19 70.2002 110.65 70.0902 108.22 70.4102C108.24 70.5502 108.28 70.6802 108.3 70.8202L108.29 70.8002ZM125.86 58.4602C125.14 58.9702 125.31 57.9102 125.61 57.5502C125.93 57.1602 126.37 56.8602 126.83 56.6602C126.87 56.6402 126.91 56.6302 126.95 56.6102C126.82 57.3402 126.47 58.0202 125.85 58.4602L125.86 58.4602ZM132.17 58.3401C132.47 59.5401 132.34 60.9301 131.67 61.9902C131.1 62.9001 129.58 63.9102 128.84 62.5302C127.71 60.4302 128.84 57.8202 130.57 56.4402C130.59 56.4302 130.6 56.4202 130.62 56.4102C131.34 56.7202 131.93 57.3201 132.18 58.3401L132.17 58.3401Z" fill="#824916"/>
<path d="M95.7698 105.19C97.4598 105.17 97.2198 106.74 97.4198 107.97C97.7498 110.02 99.7898 110.15 101.43 109.41C101.86 109.22 102.29 108.97 102.72 108.7C103.21 109.94 103.99 111.06 105.07 111.88C108.07 114.15 112.21 114.49 115.85 114.23C117.91 114.08 119.83 113.47 121.6 112.6C122.9 114.17 124.68 115.3 126.92 115.77C130.67 116.56 135.4 116.1 138.42 113.53C141.82 110.62 143.61 106.02 143.86 101.63C144 99.0401 143.52 96.6001 142.6 94.1801C141.55 91.4101 140.38 88.5701 138.94 85.9701C136.29 81.1901 131.7 77.8301 126.72 75.7301C121.73 73.6201 116.03 72.3401 110.6 72.2901C109.92 72.2901 109.23 72.3001 108.55 72.3501C108.57 72.4901 108.59 72.6301 108.62 72.7801C110.26 72.6401 111.93 72.7001 113.58 72.8901C118.97 73.5201 124.4 74.7501 129.2 77.3701C131.58 78.6601 133.76 80.2401 135.68 82.1701C137.9 84.4101 139.19 87.2301 140.45 90.0901C141.66 92.8201 143.03 95.6701 143.35 98.6801C143.59 100.98 143.35 103.35 142.69 105.57C141.98 107.98 140.84 110.38 139.08 112.21C137.46 113.9 135.48 114.88 133.19 115.33C129.42 116.07 124.54 115.59 121.91 112.48C124.31 111.23 126.38 109.38 127.74 106.84C128.67 105.1 129.62 102.72 128.73 100.77C128.01 99.1901 126.78 98.2901 125.02 98.5401C120.84 99.1201 119.04 104.15 119.52 107.81C119.76 109.62 120.48 111.14 121.47 112.42C117.99 114.08 113.84 114.38 110.08 113.68C108.09 113.31 106.02 112.61 104.55 111.15C103.84 110.44 103.32 109.53 102.95 108.56C104.27 107.65 105.44 106.36 105.75 104.83C106.04 103.41 105.14 100.57 103.31 102.17C101.88 103.42 101.94 105.65 102.31 107.36C102.38 107.67 102.48 107.98 102.59 108.29C102.36 108.45 102.14 108.64 101.89 108.78C101.01 109.26 99.5298 109.9 98.5598 109.29C97.1398 108.39 98.3298 105.79 96.8398 105.13C95.4998 104.53 93.9398 105.44 92.6798 105.82C92.6598 105.82 92.6598 105.85 92.6798 105.85C93.6898 105.65 94.7298 105.23 95.7698 105.21L95.7698 105.19ZM121.23 111.63C118.84 107.76 119.41 100.28 124.65 99.0001C127.54 98.2901 129.11 101.14 128.54 103.72C127.99 106.21 126.46 108.71 124.55 110.39C123.69 111.14 122.73 111.75 121.73 112.25C121.56 112.04 121.38 111.85 121.23 111.62L121.23 111.63ZM102.48 104.68C102.59 103.92 102.83 102.95 103.53 102.5C104.41 101.94 105.13 102.28 105.34 103.29C105.59 104.45 105.16 105.61 104.46 106.53C103.98 107.15 103.4 107.68 102.77 108.14C102.41 107.02 102.31 105.81 102.48 104.67L102.48 104.68Z" fill="#824916"/>
<path d="M102.19 101.88C100.3 102.8 98.6099 102.95 96.6399 102.2C94.4599 101.38 92.5599 99.9502 90.5099 98.8802C89.6099 98.4102 88.6799 98.0302 87.6399 98.1002C86.3399 98.1902 85.4499 99.3202 84.9199 100.38C83.7099 102.79 85.0499 104.78 87.1599 106.03C87.3399 106.13 87.2599 106.42 87.0399 106.37C85.2099 105.96 83.5599 103.95 83.6199 102.07C83.6999 100.22 84.9799 97.4602 87.0499 97.2202C89.3299 96.9602 91.2399 98.7802 93.0299 99.9202C95.8299 101.72 98.8699 103.47 102.19 101.85C102.2 101.85 102.21 101.86 102.19 101.87L102.19 101.88Z" fill="#824916"/>
<path d="M95.6599 115.91C95.8899 113.19 92.7999 113.22 90.9199 113.51C88.5999 113.85 86.6199 114.67 84.5999 115.82C81.8899 117.35 79.2199 115.42 78.8199 112.58C78.4299 109.82 80.1799 107.44 82.6699 106.48C82.8299 106.42 82.8999 106.66 82.7499 106.73C81.1799 107.47 80.0299 108.67 79.6599 110.4C79.3199 112.01 79.6999 113.68 80.9399 114.78C82.4699 116.16 84.4799 114.89 86.0899 114.38C86.8599 114.14 87.6199 113.89 88.3899 113.67C90.7399 113.03 96.0699 111.96 95.6799 115.91C95.6799 115.92 95.6699 115.91 95.6699 115.91L95.6599 115.91Z" fill="#824916"/>
<path d="M102.2 102C101.64 102.03 100.97 101.6 100.54 101.31C100.28 101.14 99.22 100.56 99.37 100.17C99.5 99.7903 100.2 100.54 100.33 100.63C100.63 100.86 100.94 101.07 101.25 101.28C101.51 101.45 101.87 101.73 102.19 101.75C102.36 101.75 102.37 102 102.21 102.01L102.2 102Z" fill="#824916"/>
<path d="M99.4999 100.09C101.4 100.33 103.39 99.4603 105.03 98.5903C106.18 97.9703 108.26 96.8703 108.6 95.4603C108.69 95.5503 108.79 95.6303 108.89 95.7203C107.86 95.9303 106.82 95.9603 105.78 96.0303C105.53 96.0503 105.43 95.6403 105.69 95.5803C107.91 95.0703 110.72 92.0803 110.58 89.7203C110.67 89.7703 110.74 89.8303 110.82 89.8803C109.88 90.0703 108.95 90.2803 108.05 90.5803C107.78 90.6703 107.58 90.2703 107.83 90.1303C110.43 88.5803 111.22 85.6303 111.75 82.8403C111.85 82.9003 111.95 82.9703 112.04 83.0403C110.83 83.8403 109.45 84.2103 108.08 84.6503C107.91 84.7103 107.73 84.4803 107.87 84.3303C108.58 83.6203 108.72 82.2103 109.09 81.2703C109.31 80.7203 109.62 80.2403 109.78 79.6703C109.98 78.9503 109.85 78.1803 109.64 77.4803C109.75 77.5203 109.86 77.5603 109.96 77.5903C109.37 77.9203 108.62 78.1303 108.23 78.7103C108.14 78.6103 108.05 78.5103 107.96 78.4003C109.49 77.4303 108.92 75.0303 108.59 73.5803C108.12 71.4403 107.21 69.4103 106.48 67.3503C106.63 67.4103 106.77 67.4503 106.92 67.5003C106.36 67.9903 105.8 68.7303 105.98 69.5203C105.78 69.5603 105.57 69.6003 105.37 69.6303C105.46 68.0203 105.4 66.6803 104.79 65.1603C104.2 63.6603 103.17 62.3503 102.13 61.1403C102.32 61.0803 102.5 61.0203 102.7 60.9503C102.63 61.9703 103.1 63.0003 102.85 64.0003C102.79 64.2803 102.37 64.4003 102.22 64.1203C101.28 62.4503 101.34 60.4403 100.88 58.6203C100.59 57.5103 100.26 56.2903 99.3399 55.5403C98.5499 54.8803 97.4899 54.7603 96.5799 54.3203C96.3299 54.1903 96.5199 53.8203 96.7799 53.9403C97.6499 54.3103 98.5799 54.4103 99.3999 54.9203C100.17 55.4003 100.6 56.1403 100.92 56.9603C101.75 59.1203 101.61 61.7503 102.79 63.7503C102.58 63.7903 102.37 63.8303 102.16 63.8703C102.36 62.9203 101.97 61.8903 102.07 60.9203C102.11 60.6303 102.48 60.6203 102.63 60.8103C104.59 63.3203 106.17 66.3103 105.97 69.6103C105.96 69.9303 105.44 70.1003 105.36 69.7203C105.14 68.6403 105.75 67.6803 106.57 67.0203C106.72 66.9003 106.96 67.0003 107.01 67.1703C107.78 69.6103 108.64 71.9903 109.11 74.5103C109.38 75.9303 109.55 77.8403 108.16 78.7503C107.96 78.8903 107.77 78.6303 107.89 78.4503C108.31 77.8303 109.07 77.6103 109.69 77.2503C109.81 77.1803 109.97 77.2203 110.01 77.3603C110.38 78.6003 110.32 79.7803 109.69 80.9203C109.04 82.0803 109.11 83.6503 108.14 84.6103C108.06 84.5003 108 84.3903 107.92 84.2903C109.26 83.8603 110.61 83.5103 111.79 82.7303C111.93 82.6403 112.11 82.7703 112.08 82.9303C111.53 85.7703 110.78 89.0303 108.07 90.5703C107.99 90.4303 107.93 90.2703 107.85 90.1203C108.79 89.8603 109.75 89.7003 110.71 89.5503C110.81 89.5303 110.91 89.6303 110.9 89.7203C110.92 92.3003 108.3 95.4603 105.79 96.0403C105.76 95.8903 105.74 95.7403 105.71 95.5903C106.72 95.5203 107.71 95.4903 108.7 95.3003C108.86 95.2803 109.04 95.3903 108.99 95.5603C108.63 97.0603 106.64 98.1303 105.43 98.8103C103.66 99.8003 101.48 100.66 99.4099 100.29C99.2899 100.27 99.3299 100.08 99.4599 100.1L99.4999 100.09Z" fill="#824916"/>
<path d="M96.8799 54.23C96.8799 54.23 96.9099 54.32 96.9299 54.37C96.9299 54.37 96.9099 54.39 96.9099 54.37C96.8899 54.32 96.8799 54.28 96.8599 54.23C96.8599 54.22 96.8799 54.21 96.8799 54.23Z" fill="#824916"/>
<path d="M96.6101 54.1602C99.2101 54.3102 97.1001 59.4602 95.4801 59.9602C95.2501 60.0302 95.1101 59.8102 95.1801 59.6202C95.6401 58.3402 95.1601 57.0102 95.2501 55.7002C95.2601 55.4502 95.6701 55.3202 95.7301 55.6102C96.0201 57.1302 94.7401 57.7402 93.5501 58.3002C91.1901 59.4102 90.5201 61.6702 89.6901 63.9602C89.6101 64.1802 89.2901 64.1102 89.2301 63.9302C88.8101 62.7602 87.8301 61.3002 88.3001 60.0402C88.3901 59.8002 88.7801 59.8902 88.7801 60.1302C88.7601 61.3602 87.9301 62.0802 87.0801 62.8402C85.6701 64.1002 85.1201 65.8202 84.6401 67.5902C84.5901 67.7902 84.3001 67.8802 84.1801 67.6802C83.8901 67.1802 83.6901 66.6602 83.5001 66.1102C83.6601 66.1202 83.8301 66.1402 83.9901 66.1502C83.6301 66.7002 83.2201 67.2102 82.8801 67.7702C82.5001 68.3702 82.4301 69.0202 82.3401 69.7102C82.2301 70.5202 81.7401 71.2402 80.9501 71.5102C79.4001 72.0302 78.7701 69.7202 78.5501 68.6902C77.9601 66.0902 77.2401 63.6302 76.0201 61.2402C75.2801 59.7802 74.3901 58.3502 73.2901 57.1302C72.2401 55.9802 70.9901 54.7902 69.3501 54.7602C68.9301 54.7602 69.0001 54.1102 69.4001 54.2002C71.4901 54.6702 73.1001 56.3402 74.3401 57.9902C76.0901 60.3302 77.5201 62.7702 78.5701 65.5002C78.9201 66.4002 79.1901 67.2902 79.4101 68.2302C79.5801 68.9402 79.7501 69.6702 80.1601 70.2802C80.8901 71.3702 81.6801 69.3402 81.8301 68.8102C82.1401 67.6402 82.8801 66.8202 83.5601 65.8502C83.6801 65.6802 83.9501 65.7602 84.0101 65.9402C84.1701 66.4502 84.3501 66.9202 84.6101 67.3902C84.4501 67.4202 84.3001 67.4502 84.1401 67.4802C84.5501 66.0202 84.9801 64.6102 85.8801 63.3702C86.6601 62.3102 88.2601 61.6402 88.2801 60.1602C88.4401 60.1902 88.6001 60.2302 88.7601 60.2602C88.3601 61.3202 89.3601 62.7902 89.7101 63.7702C89.5501 63.7602 89.3901 63.7502 89.2401 63.7302C89.8801 61.9902 90.4001 60.0702 91.8201 58.7902C92.8101 57.8902 95.5901 57.4702 95.2601 55.7702C95.4301 55.7402 95.5801 55.7102 95.7501 55.6802C95.6601 57.1102 96.1301 58.4602 95.6301 59.8402C95.5301 59.7302 95.4301 59.6102 95.3401 59.5002C96.5701 59.1102 98.5001 54.7102 96.6001 54.4802C96.4201 54.4602 96.4401 54.1602 96.6201 54.1602L96.6101 54.1602Z" fill="#824916"/>
<path d="M57.0499 82.73C59.2499 81.82 58.4799 78.85 56.8499 77.75C54.9199 76.45 52.1999 75.96 49.9599 75.43C46.7799 74.67 41.5599 74.66 40.9499 70.5C40.9299 70.32 41.1399 70.13 41.3199 70.19C42.3099 70.53 43.2599 71.14 44.3299 71.09C44.9699 71.06 45.5599 70.95 46.1399 71.27C46.3499 71.38 46.2999 71.63 46.1099 71.72C44.8699 72.3 43.2199 70.95 42.2899 70.26C40.7399 69.11 39.6699 67.36 38.8199 65.64C38.7299 65.46 38.8399 65.18 39.0799 65.24C39.5499 65.38 39.9599 65.6 40.3899 65.84C41.1699 66.28 41.8999 66.21 42.7499 66.13C42.7399 66.31 42.7299 66.48 42.7099 66.65C40.1299 66.24 37.9399 63.28 37.1399 60.96C37.0799 60.8 37.2399 60.59 37.4199 60.65C38.6799 61.06 39.5299 62.27 40.9599 62.05C40.9299 62.19 40.8999 62.32 40.8799 62.47C39.8599 62.04 39.1999 61.04 38.5899 60.17C38.2399 59.68 37.8199 59.17 37.5699 58.62C37.1599 57.72 36.9699 56.76 36.6699 55.83C36.6199 55.63 36.9099 55.53 36.9699 55.73C37.3999 57.13 37.7199 58.38 38.5599 59.62C39.1899 60.56 39.9699 61.68 41.0799 62.08C41.2599 62.14 41.2299 62.45 41.0499 62.48C39.4799 62.81 38.6899 61.56 37.3199 61.13C37.4199 61.02 37.5099 60.92 37.5999 60.82C38.3699 62.97 40.4299 65.77 42.8299 66.15C43.1399 66.2 43.0799 66.64 42.7899 66.67C42.1599 66.74 41.6199 66.82 40.9999 66.67C40.2699 66.49 39.6999 65.96 38.9799 65.74C39.0799 65.63 39.1799 65.52 39.2699 65.41C39.9399 66.83 40.8399 68.54 42.0799 69.53C42.9099 70.21 44.7899 71.81 45.9499 71.24C45.9399 71.39 45.9299 71.55 45.9199 71.7C45.2199 71.33 44.5099 71.74 43.7899 71.6C42.8899 71.43 42.0799 71.02 41.1999 70.77C41.3199 70.64 41.4299 70.51 41.5499 70.38C42.1299 73.19 44.9899 73.42 47.3499 73.77C50.0399 74.18 52.7099 74.71 55.2699 75.64C57.2099 76.35 59.0599 77.36 59.2899 79.61C59.4499 81.24 58.6899 82.54 57.0599 82.72C57.0499 82.72 57.0599 82.71 57.0599 82.7L57.0499 82.73Z" fill="#824916"/>
<path d="M70.9299 57.2302C71.0699 56.7102 70.2299 55.9902 69.9299 55.6902C69.5599 55.3202 69.1799 54.9302 68.7499 54.6302C68.5499 54.4802 68.8099 54.1802 69.0099 54.3202C69.5599 54.7402 69.9999 55.3002 70.4099 55.8602C70.6299 56.1702 71.1299 56.8102 70.9499 57.2402C70.9399 57.2502 70.9199 57.2402 70.9199 57.2402L70.9299 57.2302Z" fill="#824916"/>
<path d="M70.8701 57.1103C70.6501 56.1603 68.9901 55.4703 68.2301 55.0303C66.9901 54.3403 65.5001 54.4303 64.3001 53.7503C64.0601 53.6103 64.18 53.1603 64.46 53.2703C65.95 53.7903 67.45 54.0203 68.77 54.9203C69.32 55.2903 71.04 56.2803 70.92 57.1103C70.92 57.1403 70.87 57.1403 70.86 57.1103L70.8701 57.1103Z" fill="#824916"/>
<path d="M68.1399 57.02C66.9899 56.22 64.2499 55.25 64.2699 53.52C64.2699 53.35 64.4799 53.33 64.5499 53.47C64.9599 54.33 65.3599 54.93 66.1199 55.53C66.7699 56.05 67.4999 56.46 68.1499 56.99C68.1699 57 68.1499 57.02 68.1299 57.01L68.1399 57.02Z" fill="#824916"/>
<path d="M68.1501 57.02C66.4501 56.3 64.7601 55.67 63.2201 54.64C62.5701 54.2 61.8201 53.89 61.1101 53.59C60.3301 53.28 59.4601 53.51 58.6701 53.21C58.3301 53.08 58.5801 52.55 58.9301 52.7C59.6101 52.98 60.3601 52.77 61.0201 53.04C61.8601 53.38 62.6501 53.8 63.4001 54.29C64.9501 55.31 66.4801 56.24 68.1701 57C68.1901 57 68.1701 57.02 68.1701 57.02L68.1501 57.02Z" fill="#824916"/>
<path d="M61.74 56.2301C60.57 55.3701 59.77 54.1901 58.83 53.0901C58.66 52.8901 58.99 52.6201 59.18 52.7901C60.24 53.7701 60.66 55.2401 61.75 56.2201C61.76 56.2201 61.75 56.2401 61.74 56.2301Z" fill="#824916"/>
<path d="M36.9799 56.2501C37.7299 55.9401 38.5299 56.3701 39.2699 56.5301C40.4899 56.7901 42.1099 56.6401 43.3399 56.4801C45.4799 56.2101 47.5599 56.8501 49.5499 57.5401C49.4799 57.6501 49.4099 57.7601 49.3399 57.8601C48.4599 56.8401 47.3599 56.0001 46.2199 55.3001C46.3099 55.1601 46.4099 55.0201 46.4999 54.8901C47.7599 55.8001 49.7899 54.4501 51.1399 54.2601C52.9099 54.0001 54.7399 54.8701 56.2699 55.6401C56.1699 55.7301 56.0699 55.8201 55.9599 55.9001C55.6899 55.2001 55.2599 54.6301 54.7799 54.0601C54.6199 53.8701 54.8799 53.6701 55.0699 53.7401C56.2699 54.1901 57.5799 54.1201 58.7899 54.5501C60.0399 54.9801 61.2599 55.6401 62.3599 56.3501C62.5799 56.4801 62.4099 56.8401 62.1799 56.7101C61.1199 56.1101 60.0299 55.5501 58.8999 55.0901C57.5999 54.5601 56.1899 54.6201 54.8699 54.1301C54.9699 54.0201 55.0699 53.9101 55.1599 53.8101C55.6499 54.4101 56.0999 55.0301 56.3799 55.7601C56.4599 55.9401 56.2399 56.1101 56.0699 56.0201C54.0699 55.0301 52.1399 54.2801 49.9399 55.0601C48.7299 55.5001 47.3099 56.1301 46.1599 55.2601C45.9399 55.0901 46.1999 54.7001 46.4399 54.8501C47.6399 55.6201 48.7599 56.5301 49.6699 57.6301C49.8199 57.8101 49.5699 57.9901 49.4099 57.9301C47.3999 57.1801 45.5099 56.6501 43.3499 56.9101C42.1599 57.0601 40.9999 57.0801 39.7999 57.0301C38.9499 56.9801 37.8999 56.3201 37.0899 56.6101C36.8599 56.6901 36.7499 56.3401 36.9699 56.2501L36.9799 56.2501Z" fill="#824916"/>
<path d="M58.9599 80.2399C59.4299 81.2099 58.6899 82.1599 57.9399 82.7499C56.7399 83.6899 55.4099 83.4899 54.0699 82.9899C52.3599 82.3699 51.1799 81.1499 49.9299 79.8899C48.4199 78.3699 46.7599 77.6699 44.6599 77.5199C44.3099 77.4999 44.2699 77.0099 44.6299 76.9599C46.3699 76.7299 47.0299 79.0199 47.8499 80.1199C47.9799 80.2899 47.7999 80.5599 47.5899 80.4999C46.1799 80.1199 44.8799 79.4299 43.5099 78.9599C41.8999 78.4199 40.1199 78.5899 38.5099 79.0399C38.4899 78.9099 38.4599 78.7799 38.4399 78.6499C39.7799 78.6499 40.8499 78.8399 41.5799 80.0599C41.6699 80.1999 41.4899 80.3699 41.3599 80.2599C40.0999 79.1099 38.3399 78.8099 36.6899 78.9199C34.7499 79.0599 33.2299 80.3999 31.3899 80.8599C31.3599 80.7099 31.3399 80.5499 31.2999 80.3899C32.6699 80.4699 33.5599 81.2199 34.3599 82.2899C34.4899 82.4699 34.2699 82.6399 34.0999 82.5799C30.4699 81.2899 26.8599 82.2399 23.4699 83.7699C23.4799 83.6199 23.4899 83.4799 23.4999 83.3299C24.9899 84.0799 26.7499 83.5999 28.1799 84.5999C28.2699 84.6699 28.2099 84.8599 28.0899 84.8499C24.3699 84.5599 20.3499 84.6699 17.7699 87.7699C17.7399 87.6399 17.7199 87.5099 17.6899 87.3899C19.1299 87.9199 20.6099 87.2099 21.9799 88.0499C22.1199 88.1299 22.0599 88.3499 21.8899 88.3199C19.4699 87.8599 16.7999 88.4999 15.2299 90.5099C14.5599 91.3699 13.9999 92.3099 13.2499 93.1199C12.5199 93.8899 11.3899 94.0799 10.6299 94.8399C10.5899 94.7299 10.5499 94.5999 10.5099 94.4799C12.3099 94.6899 13.7799 93.7999 15.4599 93.3299C15.5799 93.2999 15.7099 93.4499 15.5999 93.5399C13.3999 95.5099 10.3699 96.1099 7.58987 96.7899C7.59987 96.6299 7.60988 96.4499 7.61987 96.2899C8.94988 97.1199 10.6899 97.2399 12.1899 96.8499C12.2199 96.9299 12.2399 97.0099 12.2699 97.0899C9.62988 97.7299 7.42989 99.7699 5.06989 101.04C3.62989 101.82 1.67987 102.57 0.259872 101.38C-0.0201263 101.13 0.359879 100.7 0.639877 100.95C2.17988 102.31 4.61988 100.83 6.06989 99.9999C8.06989 98.8399 9.97987 97.5699 12.1999 96.8499C12.3599 96.7999 12.4399 97.0399 12.2799 97.0899C10.7199 97.6299 8.83988 97.6399 7.38988 96.7699C7.20988 96.6599 7.16987 96.3199 7.42987 96.2699C10.1799 95.7199 13.2299 95.1999 15.4399 93.3399C15.4799 93.4199 15.5199 93.4999 15.5499 93.5799C13.7599 94.0899 12.3699 95.1099 10.4299 94.8999C10.2699 94.8899 10.1999 94.6499 10.3099 94.5399C11.1399 93.6999 12.3299 93.4299 13.1299 92.5599C14.0199 91.5899 14.5799 90.3699 15.5599 89.4699C17.2699 87.9299 19.7599 87.5599 21.9499 88.0399C21.9199 88.1299 21.8899 88.2299 21.8599 88.3099C20.4799 87.5699 18.9299 88.3699 17.4799 87.8399C17.3299 87.7799 17.3199 87.5699 17.4099 87.4599C20.1199 84.2199 24.2199 84.1699 28.1199 84.5899C28.0799 84.6699 28.0399 84.7599 27.9999 84.8399C26.6299 83.8099 24.7899 84.5499 23.2999 83.7799C23.1099 83.6699 23.1499 83.4199 23.3299 83.3399C26.8699 81.7899 30.4799 80.9899 34.2299 82.2299C34.1699 82.3299 34.0999 82.4399 34.0299 82.5399C33.3199 81.6299 32.5399 80.9399 31.3299 80.8999C31.0799 80.8999 30.9699 80.5099 31.2399 80.4399C33.2099 79.8899 34.8699 78.7299 36.9599 78.5899C38.6199 78.4899 40.3099 78.9799 41.5699 80.0599C41.4899 80.1299 41.4199 80.1899 41.3499 80.2599C40.6499 79.1599 39.6899 79.0299 38.4699 79.0799C38.2399 79.0799 38.1799 78.7599 38.3999 78.6899C39.8899 78.1799 41.4499 77.9999 42.9999 78.3199C44.6299 78.6599 46.0999 79.5899 47.7099 80.0199C47.6299 80.1499 47.5399 80.2799 47.4499 80.4099C46.7499 79.4999 46.1099 77.2899 44.6699 77.5299C44.6699 77.3399 44.6499 77.1599 44.6399 76.9699C45.8499 77.0199 46.9999 77.1499 48.0999 77.6799C49.4699 78.3299 50.5499 79.4499 51.6099 80.4899C52.7499 81.5899 54.1599 82.3499 55.7099 82.6599C56.4699 82.8099 57.0499 82.8699 57.7599 82.4899C58.5099 82.0799 59.3699 81.1499 58.9399 80.2399C58.9399 80.2399 58.9599 80.2299 58.9599 80.2399Z" fill="#824916"/>
<path d="M49.71 125.81C50.58 125.85 51.2 124.04 51.17 123.38C51.11 122.01 47.93 123.78 47.63 123.99C46.75 124.59 46.03 125.44 45.21 126.12C44.35 126.84 43.36 127.41 42.36 127.89C38.27 129.84 33.58 130 30.01 126.83C29.94 126.76 29.97 126.65 30.06 126.61C31.85 125.88 32.26 123.09 34.61 123.67C34.77 123.71 34.77 123.92 34.62 123.97C31.55 125.24 27.7 124.7 25.07 122.68C24.88 122.54 25 122.17 25.24 122.19C26.37 122.26 27.64 121.87 28.52 121.17C28.58 121.12 28.67 121.22 28.62 121.28C27.8 122.12 26.4 122.86 25.19 122.75C25.28 122.58 25.36 122.42 25.44 122.26C27.9 124.27 31.58 124.86 34.53 123.68C34.53 123.78 34.54 123.88 34.55 123.99C32.84 123.55 32.05 125.24 31.05 126.27C30.89 126.43 30.72 126.56 30.53 126.69C30.25 126.88 30.33 126.8 30.65 127.06C31.47 127.75 32.48 128.16 33.49 128.49C36.95 129.59 40.7 128.28 43.64 126.42C44.97 125.57 45.98 124.37 47.26 123.46C48.21 122.79 49.72 122.09 50.89 122.43C52.68 122.94 51.03 125.95 49.7 125.85C49.7 125.85 49.69 125.83 49.7 125.83L49.71 125.81Z" fill="#824916"/>
<path d="M28.56 121.24C27.72 121.52 26.92 121.74 26.04 121.78C25.08 121.82 24.18 121.56 23.26 121.38C21.67 121.07 19.58 120.67 18.44 119.41C18.33 119.29 18.3399 119.07 18.52 119.02C19.15 118.84 19.79 118.71 20.41 118.49C21.17 118.23 21.77 117.54 22.36 117.01C22.42 117.08 22.47 117.15 22.54 117.22C21.57 117.86 20.4 118.11 19.26 117.93C18.39 117.79 17.55 117.38 16.71 117.12C15.88 116.87 15.09 116.59 14.32 116.2C13.91 115.99 14.22 115.4 14.63 115.58C15.54 115.96 16.55 115.64 17.22 114.99C17.57 114.65 17.87 114.35 18.36 114.25C18.61 114.2 18.74 114.55 18.49 114.63C17.69 114.89 17.29 115.84 16.47 116.18C15.78 116.46 15 116.46 14.32 116.21C14.42 116 14.52 115.8 14.63 115.59C15.91 116.17 17.25 116.58 18.55 117.11C19.24 117.39 19.86 117.55 20.62 117.49C21.25 117.43 21.81 117.13 22.42 116.98C22.6 116.94 22.67 117.16 22.51 117.24C21.88 117.54 21.48 118.27 20.88 118.67C20.23 119.1 19.39 119.23 18.67 119.47C18.7 119.34 18.72 119.21 18.75 119.08C19.85 120.21 21.63 120.61 23.12 120.96C25.01 121.39 26.64 121.82 28.56 121.24C28.58 121.24 28.58 121.26 28.56 121.26L28.56 121.24Z" fill="#824916"/>
<path d="M18.43 114.42C17.34 113.85 15.77 115.13 14.57 114.93C12.69 114.61 10.95 113.6 9.25996 112.78C9.05996 112.67 9.08996 112.39 9.29996 112.31C10.4 111.89 11.68 110.81 12.91 111.29C13.11 111.37 13.15 111.72 12.95 111.82C10.7 112.95 7.81996 110.65 6.13996 109.37C4.98996 108.49 3.89997 107.52 3.06997 106.33C2.46997 105.47 2.12996 104.5 1.64996 103.57C1.19996 102.71 0.429965 102.07 0.0499661 101.16C-0.0700347 100.86 0.399967 100.72 0.519967 101.01C0.829967 101.76 1.41997 102.36 1.87997 103.02C2.39997 103.76 2.65997 104.68 3.09997 105.47C3.78997 106.73 4.81997 107.68 5.90997 108.58C7.37997 109.81 10.54 112.45 12.6 111.29C12.64 111.48 12.67 111.66 12.71 111.85C11.66 111.48 10.43 112.43 9.45997 112.77C9.46997 112.62 9.47997 112.46 9.48997 112.3C11.15 113.17 13.1 114.51 15.03 114.59C16.11 114.64 17.42 113.91 18.45 114.38C18.46 114.39 18.45 114.41 18.44 114.4L18.43 114.42Z" fill="#824916"/>
<path d="M71.8699 143.55C71.8699 143.55 71.8999 143.52 71.8999 143.54C71.8999 143.56 71.8699 143.57 71.8699 143.55Z" fill="#824916"/>
<path d="M71.83 143.64C71.49 143.49 71.34 143.24 71.17 142.92C70.66 141.94 69.43 142.97 69 143.5C68.05 144.69 67.72 146.36 66.89 147.64C65.1 150.4 62.28 152.52 59.08 153.33C59 153.35 58.92 153.29 58.94 153.21C59.38 151.68 59.3 150.02 60.13 148.61C60.21 148.48 60.44 148.54 60.4 148.7C59.95 150.63 58.28 151.83 56.58 152.63C55.54 153.11 54.41 153.49 53.32 153.88C52.33 154.24 51.27 154.48 50.23 154.23C50.03 154.19 49.98 153.96 50.09 153.81C50.73 152.9 51.09 151.86 51.51 150.84C51.62 150.58 52 150.78 51.9 151.03C50.73 154.1 46.65 153.12 44.67 155.22C44.52 155.39 44.2 155.31 44.19 155.05C44.19 153.89 44.86 153.05 45.33 152.03C45.4 152.12 45.49 152.21 45.57 152.31C44.75 152.59 43.94 152.87 43.12 153.15C42.18 153.47 41.16 153.43 40.2 153.71C38.89 154.1 38.22 155.66 36.9 155.98C36.55 156.06 36.36 155.53 36.72 155.44C37.29 155.27 37.78 154.75 38.22 154.38C38.78 153.91 39.35 153.48 40.03 153.21C40.82 152.9 41.82 152.99 42.63 152.81C43.57 152.61 44.51 152.22 45.44 151.93C45.62 151.88 45.74 152.05 45.68 152.22C45.3 153.15 44.7 153.99 44.73 155.04C44.57 154.98 44.41 154.93 44.25 154.88C46.14 152.92 50.48 153.73 51.47 150.9C51.61 150.95 51.74 151 51.88 151.04C51.47 152.1 51.12 153.16 50.49 154.11C50.43 153.99 50.38 153.86 50.31 153.74C52.13 154.21 54.07 153.09 55.74 152.54C57.61 151.92 59.59 150.67 60.1 148.66C60.19 148.69 60.28 148.72 60.37 148.75C59.75 149.74 59.61 150.86 59.42 151.98C59.34 152.41 58.92 153.18 59.61 152.95C60.32 152.73 60.99 152.41 61.64 152.05C63.79 150.87 65.43 148.92 66.6 146.8C67.44 145.28 67.8 143.38 69.25 142.29C69.76 141.91 70.58 141.7 71.14 142.03C71.67 142.34 71.52 143.08 71.93 143.48C72.03 143.57 71.93 143.72 71.8 143.66L71.83 143.64Z" fill="#824916"/>
<path d="M36.7199 155.87C37.9699 155.11 37.7199 153.19 37.9899 151.95C38.3599 150.26 39.1199 148.69 39.9699 147.19C40.1099 147.28 40.2499 147.38 40.3899 147.48C39.6299 148.41 38.5899 148.71 37.4899 149.07C37.2299 149.15 36.9999 148.82 37.1899 148.62C37.5999 148.2 37.4699 147.53 37.5899 147C37.7499 146.32 37.9499 145.66 38.2299 145.03C38.7099 144 39.3999 142.96 40.3099 142.27C40.3899 142.43 40.4599 142.6 40.5399 142.76C39.8099 142.98 36.9999 143.05 36.8499 143.95C36.6999 143.92 36.5599 143.89 36.4099 143.86C36.8699 142.51 37.0099 141.27 37.8999 140.09C38.9599 138.67 40.3999 137.71 41.7499 136.61C41.7799 136.71 41.8199 136.81 41.8499 136.91C40.6999 136.98 38.1399 136.84 37.9799 138.42C37.8799 138.36 37.7699 138.31 37.6699 138.25C38.3099 137.66 38.4499 136.69 38.7099 135.88C38.9899 135.04 39.5199 134.25 40.0499 133.54C41.2499 131.91 43.1699 131.08 44.9099 130.19C44.9599 130.34 45.0099 130.49 45.0599 130.65C44.0899 130.67 43.1299 130.61 42.1999 130.87C41.9599 130.93 41.7599 130.59 41.9899 130.46C43.0199 129.86 43.3199 128.55 44.2699 127.84C45.2299 127.12 46.6099 127.06 47.7199 126.64C48.8699 126.19 51.7599 124.79 50.8699 123.19C50.6099 122.72 51.2899 122.26 51.5599 122.73C52.6199 124.59 50.7899 125.92 49.2699 126.63C48.2699 127.1 47.2399 127.38 46.1699 127.62C44.9999 127.88 44.1999 128.37 43.5699 129.38C43.1999 129.95 42.8499 130.49 42.2499 130.84C42.1799 130.7 42.1199 130.57 42.0499 130.43C43.0299 130.15 44.0199 130.18 45.0299 130.15C45.2699 130.15 45.4099 130.48 45.1799 130.61C43.3199 131.59 41.4399 132.38 40.0999 134.08C39.4199 134.95 39.0399 135.88 38.7499 136.93C38.5899 137.51 38.3999 138.09 37.9499 138.49C37.8099 138.62 37.6099 138.53 37.6299 138.33C37.8299 136.52 40.5399 136.68 41.8399 136.59C42.0199 136.57 42.0599 136.79 41.9399 136.89C40.7799 137.86 39.5599 138.72 38.5699 139.89C38.1199 140.43 37.7299 140.99 37.4699 141.65C37.1599 142.4 37.0899 143.2 36.8599 143.97C36.7699 144.25 36.3799 144.17 36.4199 143.88C36.5999 142.59 39.4399 142.54 40.3799 142.26C40.6899 142.17 40.8599 142.56 40.6199 142.75C39.4699 143.63 38.6999 145.12 38.3099 146.48C38.0699 147.33 38.2799 148.36 37.6199 149.01C37.5199 148.86 37.4199 148.71 37.3199 148.56C38.3299 148.24 39.3099 148 40.0199 147.16C40.2099 146.95 40.5899 147.19 40.4399 147.45C39.4299 149.18 38.6599 150.95 38.2499 152.91C38.0299 153.97 37.8599 155.41 36.7699 155.95C36.7399 155.96 36.7199 155.91 36.7399 155.9L36.7199 155.87Z" fill="#824916"/>
<path d="M72.8899 152.62C77.0199 151.12 80.8799 147.31 82.0799 143.04C82.1499 142.8 82.4899 142.76 82.5799 143.01C82.8799 143.87 83.2599 144.69 83.4299 145.59C83.6099 146.51 83.1199 147.38 83.4699 148.3C83.3699 148.25 83.2499 148.19 83.1399 148.14C84.5499 147.57 85.0699 145.59 85.5399 144.29C86.1899 142.53 87.0399 140.8 87.5099 138.99C87.5499 138.83 87.7199 138.79 87.8399 138.88C88.9399 139.71 90.3799 140.79 89.7799 142.33C89.6799 142.28 89.5799 142.23 89.4899 142.18C90.0199 141.33 90.5399 140.53 90.7199 139.53C90.8199 138.98 90.6299 138.31 90.5899 137.74C90.5499 137.29 90.6199 136.85 90.7099 136.41C91.0899 134.58 92.7699 132.25 91.1299 130.59C90.9499 130.41 91.0999 130.13 91.3399 130.17C92.4299 130.33 93.2399 130.98 94.0799 131.64C93.9399 131.71 93.7999 131.78 93.6599 131.84C93.5499 129.15 94.1899 125.63 91.5299 123.94C91.3199 123.81 91.3299 123.53 91.5599 123.45C92.2699 123.16 92.8199 122.63 93.4999 122.28C94.2699 121.88 95.0399 122.19 95.5999 121.34C96.6799 119.64 95.0999 117.67 93.3399 117.49C93.0899 117.47 93.1299 117.12 93.3099 117.05C94.2099 116.66 94.6599 115.75 95.5199 115.3C95.8099 115.15 96.0899 115.55 95.8099 115.73C94.9599 116.28 94.4299 117.13 93.4599 117.5C93.4499 117.34 93.4399 117.2 93.4299 117.05C94.9799 117.28 96.7099 118.76 96.4099 120.49C96.2499 121.35 95.8499 122.15 94.9999 122.45C94.4099 122.66 93.8599 122.65 93.2899 123.02C92.7699 123.36 92.3299 123.75 91.7499 123.99C91.7599 123.83 91.7799 123.66 91.7899 123.49C94.6799 125.29 94.0699 128.93 94.1799 131.84C94.1799 132.07 93.9299 132.18 93.7599 132.04C92.9899 131.42 92.2599 130.82 91.2599 130.67C91.3299 130.53 91.3999 130.39 91.4799 130.25C92.9399 131.74 92.0999 133.8 91.4799 135.5C91.1999 136.24 90.9999 136.95 91.0099 137.75C91.0099 138.27 91.1999 138.82 91.1499 139.33C91.0399 140.49 90.4299 141.41 89.8199 142.37C89.7099 142.55 89.4399 142.43 89.5299 142.22C90.0899 140.83 88.5599 139.89 87.6099 139.22C87.7199 139.18 87.8299 139.15 87.9399 139.11C87.4899 141.05 86.5799 142.91 85.9099 144.79C85.4199 146.19 84.8399 148.05 83.3299 148.68C83.1899 148.73 83.0499 148.63 82.9999 148.51C82.7299 147.82 82.8399 147.16 82.9399 146.46C83.0999 145.34 82.4699 144.25 82.1099 143.23C82.2699 143.23 82.4499 143.22 82.5999 143.21C81.3599 147.63 77.3599 151.58 73.0099 153.01C72.7999 153.08 72.6899 152.76 72.8999 152.68L72.8899 152.62Z" fill="#824916"/>
<path d="M72.7599 152.87C74.5299 150.55 74.6699 147.33 73.6699 144.67C73.8399 144.68 74.0199 144.69 74.1999 144.71C73.6399 145.84 72.4699 146.12 71.5799 146.92C71.4599 146.77 71.3199 146.63 71.1899 146.48C71.8999 145.93 71.6899 144.58 71.4699 143.85C71.3599 143.46 71.1799 143.09 70.8799 142.81C70.6099 142.55 70.1399 142.7 69.8199 142.72C69.6599 142.73 69.5699 142.56 69.6299 142.43C70.3099 140.94 71.7099 142.38 72.0199 143.3C72.3899 144.36 72.5099 146.21 71.5099 146.98C71.2499 147.18 70.8699 146.76 71.1299 146.54C71.9499 145.8 73.1599 145.49 73.6799 144.46C73.7899 144.23 74.1299 144.27 74.2099 144.5C75.2699 147.37 75.1099 150.74 72.9499 153.05C72.8399 153.17 72.6599 153.01 72.7599 152.88L72.7599 152.87Z" fill="#824916"/>
<path d="M82.2399 106.25C79.3599 105.01 76.3299 104.04 73.3399 103.06C70.7599 102.22 67.8099 102.25 65.1199 101.94C61.9399 101.57 58.7399 102.07 55.5799 102.31C52.2999 102.56 49.0499 102.68 45.7899 103.2C39.4299 104.21 33.2899 106.61 26.8099 106.86C25.2699 106.92 23.7499 107.14 22.2299 107.27C20.6399 107.4 19.0399 107.35 17.4499 107.41C14.5999 107.51 11.7899 107.63 8.95988 107.17C7.19988 106.88 5.56989 106.3 4.09988 105.27C2.69988 104.29 1.56988 102.93 0.449875 101.64C0.329873 101.51 0.569878 101.35 0.689881 101.48C2.18988 103.2 3.70988 104.96 5.80988 105.97C8.54987 107.29 11.9499 107.32 14.9199 107.24C21.1399 107.09 27.4099 106.68 33.5399 105.59C36.8499 105 40.0899 103.97 43.3999 103.34C46.5199 102.74 49.6599 102.42 52.8199 102.23C55.9599 102.03 59.0899 101.61 62.2399 101.53C64.9799 101.46 67.7899 101.9 70.5099 102.19C72.5999 102.41 74.4699 103.13 76.4499 103.79C78.4399 104.46 80.4099 105.19 82.3099 106.09C82.4099 106.14 82.3199 106.29 82.2299 106.24L82.2399 106.25Z" fill="#824916"/>
<path d="M83.3298 106.3C81.1298 104.77 78.4598 103.75 76.0098 102.71C73.3598 101.59 70.6798 101.03 67.8198 100.76C61.3898 100.16 54.8298 100.25 48.5998 102.01C47.2298 102.4 45.8998 102.78 44.4998 102.99C42.8698 103.22 41.2298 103.28 39.5998 103.39C36.2998 103.61 33.1698 104.61 29.9898 105.46C27.1298 106.22 24.2598 106.45 21.3298 106.73C18.4398 107.01 15.5498 107.23 12.6498 107.22C10.9098 107.22 9.17982 107.07 7.47983 106.74C7.42982 106.74 7.44983 106.67 7.47983 106.68C13.2098 107.77 19.0698 106.63 24.7898 106.03C28.0298 105.69 31.1098 104.72 34.2498 103.92C37.2598 103.15 40.2598 103.07 43.3298 102.79C46.4998 102.5 49.4298 101.28 52.5598 100.73C55.6298 100.19 58.7798 100.14 61.8998 100.22C64.7898 100.29 67.6898 100.4 70.5498 100.85C73.1298 101.26 75.4698 102.22 77.8398 103.28C79.7598 104.15 81.5698 105.13 83.3298 106.3C83.3298 106.3 83.3298 106.32 83.3298 106.31L83.3298 106.3Z" fill="#824916"/>
<path d="M65.57 101.98C63.89 102.03 62.28 102.16 60.79 102.98C59.37 103.76 58.14 105.11 56.96 106.22C54.75 108.31 52.37 109.87 49.7 111.32C47.0299 112.77 44.67 114.67 41.93 116C39.19 117.33 36.22 118.22 33.17 118.41C32.98 118.42 32.97 118.14 33.15 118.12C36.29 117.92 39.32 116.92 42.14 115.57C45.07 114.17 47.75 112.18 50.48 110.44C51.8 109.6 53.15 108.73 54.3 107.66C55.43 106.61 56.52 105.51 57.67 104.47C58.73 103.51 59.8 102.58 61.15 102.07C62.51 101.56 64.15 101.84 65.56 101.94C65.58 101.94 65.58 101.97 65.56 101.98L65.57 101.98Z" fill="#824916"/>
<path d="M47.3198 102.88C44.9298 103.25 42.8198 103.97 40.8398 105.35C38.5598 106.92 37.1098 109.19 35.1498 111.07C32.3398 113.8 27.9598 117 23.7898 115.98C23.7398 115.97 23.7498 115.88 23.7998 115.89C26.3098 116.47 28.7398 115.33 30.7998 113.99C32.7998 112.68 34.5498 111 36.0598 109.15C37.5998 107.26 39.1198 105.65 41.2498 104.44C43.1298 103.38 45.1698 102.96 47.3098 102.83C47.3498 102.83 47.3498 102.88 47.3098 102.89L47.3198 102.88Z" fill="#824916"/>
<path d="M29.12 106.46C27.88 106.96 26.6099 107.43 25.4199 108.05C24.3699 108.6 23.42 109.35 22.41 109.99C20.45 111.23 18.2299 112.19 15.8999 112.43C15.8499 112.43 15.8399 112.36 15.8999 112.35C18.4099 111.89 20.4999 110.4 22.5699 108.98C24.6099 107.59 26.7299 107.03 29.0999 106.43C29.1199 106.43 29.1299 106.45 29.1099 106.46L29.12 106.46Z" fill="#824916"/>
<path d="M63.7099 100.34C62.4599 100.04 61.3099 99.7702 60.1899 99.1202C58.9299 98.3802 57.8899 97.2702 56.8499 96.2702C54.4499 93.9402 52.1199 91.5902 49.8199 89.1602C47.6399 86.8602 44.7999 85.2002 41.8999 83.9602C40.8099 83.5002 39.7699 83.0102 38.5999 82.8002C37.4599 82.5902 36.3399 82.8002 35.2099 82.6702C35.1099 82.6602 35.0999 82.5002 35.2099 82.4802C37.1999 82.0402 39.3399 82.5702 41.1699 83.3702C43.8699 84.5402 46.7199 85.8402 48.9199 87.8402C51.4799 90.1702 54.0299 92.5102 56.5699 94.8502C57.7499 95.9402 58.8099 97.1702 60.0199 98.2302C60.6999 98.8302 61.5199 99.3302 62.3999 99.5902C62.9099 99.7402 63.3899 99.8402 63.7599 100.24C63.7999 100.28 63.7699 100.36 63.7099 100.35L63.7099 100.34Z" fill="#824916"/>
<path d="M51.33 101.07C49.05 101.91 46.12 102.96 43.72 102.09C40.46 100.91 38.53 97.6302 35.91 95.5402C33.03 93.2302 29.57 91.7502 26.05 90.7002C22.81 89.7502 19.51 89.2802 16.17 89.9102C16.07 89.9302 16.06 89.7702 16.14 89.7402C17.45 89.1802 19.03 89.2702 20.42 89.3602C21.89 89.4602 23.37 89.7302 24.8 90.0802C28.12 90.9002 31.2 92.2302 34.18 93.9002C35.56 94.6702 36.92 95.5802 38.09 96.6502C39.39 97.8402 40.6 99.1302 41.96 100.26C43.13 101.24 44.63 102.04 46.19 101.93C47.92 101.81 49.66 101.49 51.33 101.02C51.34 101.02 51.35 101.04 51.33 101.05L51.33 101.07Z" fill="#824916"/>
<path d="M33.2699 104.4C31.0399 105.04 28.6799 105.56 26.3399 105.44C24.1699 105.32 22.3499 104.08 20.4999 103.06C18.4299 101.92 16.1899 101 13.9299 100.33C12.6999 99.9602 11.4399 99.7102 10.1599 99.6202C8.9199 99.5302 7.79991 99.7802 6.59991 100.01C6.52991 100.02 6.4899 99.9102 6.5499 99.8702C8.2699 98.9902 10.5799 99.2902 12.3899 99.6402C14.5599 100.06 16.6499 100.88 18.6599 101.79C20.8399 102.79 22.9099 104.45 25.2699 104.97C27.8099 105.54 30.7699 104.94 33.2399 104.34C33.2799 104.33 33.2899 104.38 33.2599 104.39L33.2699 104.4Z" fill="#824916"/>
<path d="M82.01 105.83C82.01 105.83 82.02 105.81 82.03 105.83C82.03 105.84 82.02 105.85 82.01 105.83Z" fill="#824916"/>
<path d="M81.9799 106.14C79.0799 106.17 76.0899 106.36 73.4099 107.56C70.6499 108.8 68.5399 111.25 66.6699 113.56C64.9199 115.73 63.4399 118.09 61.8399 120.37C60.0699 122.89 58.4199 125.48 56.8199 128.11C53.8699 132.94 51.3999 138.08 48.2499 142.78C46.7099 145.07 44.7999 147.05 42.9299 149.07C41.9199 150.16 40.9299 151.28 40.0199 152.45C39.2199 153.49 38.2299 154.41 37.5599 155.54C37.4999 155.65 37.3199 155.57 37.3799 155.45C37.9399 154.47 38.7399 153.68 39.4399 152.81C40.3599 151.67 41.2399 150.52 42.2199 149.43C44.2799 147.1 46.3999 144.89 48.1199 142.3C49.7399 139.88 51.0899 137.3 52.4999 134.75C53.9499 132.11 55.4999 129.52 57.0799 126.95C58.6799 124.33 60.4299 121.8 62.1399 119.24C63.6999 116.92 65.2699 114.6 67.0599 112.46C68.8099 110.35 70.7699 108.36 73.2899 107.22C76.0199 105.99 79.0399 106.03 81.9699 106.12C81.9799 106.12 81.9899 106.14 81.9699 106.14L81.9799 106.14Z" fill="#824916"/>
<path d="M81.4199 107.04C79.9599 107.34 78.4699 107.37 76.9899 107.57C74.9899 107.83 73.3999 108.82 71.7799 109.96C70.2099 111.07 68.6599 112.29 67.3599 113.71C65.9799 115.22 64.8599 116.96 63.8099 118.7C62.8399 120.29 61.9399 121.91 60.8999 123.46C59.8599 125 58.6999 126.46 57.6999 128.02C55.8299 130.96 54.6899 134.29 52.6399 137.13C52.5999 137.18 52.5099 137.12 52.5499 137.07C54.5999 133.97 55.6899 130.36 57.7499 127.27C58.8499 125.6 60.0799 124.02 61.1699 122.35C62.2499 120.7 63.1699 118.96 64.2199 117.29C65.1999 115.74 66.2799 114.27 67.5499 112.93C68.7999 111.6 70.3599 110.47 71.8499 109.41C73.2399 108.43 74.6399 107.56 76.3399 107.29C78.0099 107.02 79.7299 107.33 81.4099 107.02C81.4199 107.02 81.4199 107.04 81.4099 107.04L81.4199 107.04Z" fill="#824916"/>
<path d="M67.23 112.59C65.63 114.69 62.46 115.21 60.14 116.03C56.81 117.2 54.66 120.12 52.24 122.5C52.15 122.59 52 122.46 52.09 122.36C54.19 120.2 56.02 117.78 58.59 116.14C59.98 115.26 61.51 114.83 63.06 114.33C63.71 114.12 64.32 113.8 64.99 113.63C65.79 113.42 66.63 113.19 67.21 112.56C67.22 112.56 67.23 112.56 67.23 112.58L67.23 112.59Z" fill="#824916"/>
<path d="M57.0099 127.44C55.5799 130.64 53.1099 132.17 49.7999 132.97C45.8999 133.91 43.0799 136.19 41.3599 139.83C41.3199 139.91 41.1599 139.87 41.1999 139.77C42.3099 136.56 44.8899 133.78 48.1499 132.73C49.5499 132.28 50.9999 132.04 52.3999 131.56C54.4399 130.85 56.0599 129.38 56.9999 127.43C56.9999 127.42 57.0199 127.43 57.0099 127.43L57.0099 127.44Z" fill="#824916"/>
<path d="M74.03 108.29C72.94 109.15 72.03 110.33 71.4 111.57C70.74 112.85 70.87 114.44 70.38 115.79C69.31 118.75 67.65 121.46 66.59 124.42C66.57 124.47 66.5 124.44 66.51 124.39C67.3 121.13 69.17 118.25 69.93 114.99C70.27 113.54 70.34 112.1 71.16 110.81C71.83 109.75 72.93 108.86 74.02 108.25C74.04 108.25 74.05 108.27 74.04 108.28L74.03 108.29Z" fill="#824916"/>
<path d="M62.08 121.19C60.31 125.5 61.44 130.33 61.24 134.83C61.12 137.47 61.05 140.11 60.43 142.7C60.14 143.91 59.36 145.13 58.73 146.2C58.24 147.04 57.99 148.1 57.13 148.66C57.05 148.71 56.95 148.6 57.02 148.53C57.86 147.72 58.28 146.54 58.81 145.51C59.46 144.22 60.07 143.03 60.34 141.59C60.83 138.93 60.8 136.15 60.7 133.46C60.54 129.31 59.54 124.83 62.01 121.15C62.04 121.11 62.11 121.14 62.09 121.18L62.08 121.19Z" fill="#824916"/>
<path d="M54.54 133.55C54.11 134.62 53.47 135.6 52.97 136.63C52.67 137.24 52.44 137.88 52.3 138.54C52.13 139.37 52.35 140.31 52.3 141.17C52.14 144.32 51.5499 147.2 49.6299 149.78C49.6099 149.81 49.56 149.78 49.58 149.75C51.48 146.75 51.84 143.23 51.82 139.75C51.79 137.28 53.5099 135.62 54.5199 133.51C54.5199 133.5 54.55 133.51 54.54 133.53L54.54 133.55Z" fill="#824916"/>
<path d="M73.2698 152.95C76.1698 149.55 77.9798 145.34 78.6498 140.94C78.9998 138.69 78.9998 136.33 78.4898 134.1C77.9698 131.79 77.2198 129.52 76.6698 127.21C75.6698 122.95 75.0398 118.54 76.3798 114.28C77.3698 111.15 78.8598 107.39 82.4098 106.51C82.6598 106.45 82.7898 106.83 82.5298 106.89C78.6998 107.81 76.6998 112.67 76.2698 116.2C75.6898 121.05 77.0498 125.77 78.0998 130.45C79.0198 134.54 79.4698 138.42 78.5498 142.55C77.7098 146.38 75.8698 150.02 73.2698 152.96C73.2598 152.97 73.2398 152.96 73.2498 152.94L73.2698 152.95Z" fill="#824916"/>
<path d="M78.53 141.19C79.01 137.66 77.47 133.95 76.62 130.57C75.87 127.59 75.22 124.56 74.95 121.51C74.71 118.67 74.99 115.81 76.05 113.15C76.53 111.92 77.17 110.72 77.8 109.56C78.25 108.73 78.77 107.72 79.56 107.17C79.67 107.1 79.78 107.26 79.68 107.34C78.79 108.06 78.25 109.2 77.73 110.19C77.15 111.29 76.6 112.42 76.14 113.58C74.99 116.5 74.99 119.72 75.34 122.8C75.71 126.02 76.49 129.2 77.3 132.34C78.04 135.17 79.03 138.27 78.56 141.22C78.56 141.24 78.53 141.22 78.53 141.22L78.53 141.19Z" fill="#824916"/>
<path d="M88.79 127.63C89.52 123.89 85.12 120.96 82.3 119.49C80.83 118.73 79.51 118.02 78.47 116.67C77.21 115.05 77.18 113.03 77.61 111.09C77.63 110.97 77.83 110.95 77.86 111.08C78.11 112.12 77.88 113.16 77.99 114.22C78.11 115.43 78.96 116.63 79.78 117.47C80.98 118.68 82.72 119.29 84.13 120.24C86.45 121.8 89.53 124.5 88.82 127.65C88.82 127.67 88.8 127.65 88.79 127.65L88.79 127.63Z" fill="#824916"/>
<path d="M86.2299 137.22C85.5399 134.09 83.6899 131.98 81.1499 130.14C79.9399 129.27 78.9099 128.34 77.9899 127.16C77.1599 126.08 76.1699 124.62 76.0499 123.23C76.0499 123.1 76.2199 123.05 76.2899 123.15C77.1399 124.45 77.6599 125.89 78.6299 127.14C79.6899 128.51 81.1199 129.46 82.4299 130.58C84.4899 132.35 85.8299 134.51 86.2799 137.21C86.2899 137.24 86.2299 137.25 86.2299 137.21L86.2299 137.22Z" fill="#824916"/>
<path d="M66.3301 143.66C66.6501 140.75 68.3701 137.87 70.7401 136.17C72.0101 135.25 73.3101 134.48 74.3201 133.24C75.4001 131.9 75.6801 130.28 76.0601 128.66C76.1001 128.5 76.3201 128.53 76.3401 128.68C76.7201 131.36 74.8901 133.8 72.8101 135.27C71.3001 136.34 69.7501 137.08 68.6301 138.63C67.5301 140.16 66.6401 141.77 66.3601 143.65C66.3601 143.67 66.3301 143.66 66.3301 143.65L66.3301 143.66Z" fill="#824916"/>
<path d="M64.7098 133.57C65.0698 132.14 65.8498 130.94 66.8999 129.91C67.9399 128.89 69.2498 128.22 70.3798 127.31C71.2898 126.58 72.1198 125.81 72.8498 124.89C73.3698 124.23 73.7499 123.49 74.0799 122.71C74.4299 121.88 74.4299 120.81 74.8999 120.06C74.9599 119.97 75.1098 119.96 75.1398 120.07C75.5298 121.35 74.4998 123.3 73.8498 124.39C73.2298 125.42 72.3998 126.27 71.4898 127.03C69.0298 129.09 65.8698 130.29 64.7398 133.57C64.7398 133.59 64.7098 133.58 64.7198 133.57L64.7098 133.57Z" fill="#824916"/>
<path d="M82.7 106.57C83.3 106.39 83.74 105.82 84.07 105.32C84.25 105.06 84.36 104.77 84.43 104.46C84.49 104.14 84.34 103.93 84.22 103.67C84.18 103.59 84.29 103.51 84.36 103.55C84.98 103.91 84.63 104.87 84.37 105.34C84.03 105.93 83.41 106.52 82.71 106.63C82.68 106.63 82.68 106.58 82.71 106.57L82.7 106.57Z" fill="#824916"/>
<path d="M84.0798 105.58C82.4698 104.29 81.0098 102.9 79.8198 101.2C78.4398 99.2301 77.2698 97.1001 76.1998 94.9501C74.0098 90.5901 72.2298 86.0401 70.1298 81.6301C67.7598 76.6401 64.6998 72.0601 60.5898 68.3201C56.3398 64.4501 51.1898 62.6301 45.8998 60.6701C42.9998 59.6001 40.0898 58.3701 37.6298 56.4601C37.4798 56.3401 37.6698 56.1401 37.8298 56.2501C42.3298 59.4701 47.6698 60.7501 52.7098 62.8901C57.7698 65.0501 61.9198 68.5701 65.2998 72.8701C68.3598 76.7501 70.4098 81.2001 72.4398 85.6601C74.5398 90.2701 76.5798 94.9401 79.2398 99.2601C80.5798 101.45 82.1198 103.89 84.0898 105.58C84.1098 105.58 84.0898 105.6 84.0798 105.6L84.0798 105.58Z" fill="#824916"/>
<path d="M83.73 105.84C80.97 104.07 79.05 101.42 77.43 98.62C75.44 95.17 73.85 91.49 72.23 87.86C68.66 79.93 64.77 71.54 57.59 66.21C56.25 65.21 54.73 64.55 53.36 63.61C53.27 63.54 53.36 63.3801 53.46 63.4101C55.34 63.94 57.14 65.33 58.66 66.54C60.28 67.83 61.73 69.33 63.05 70.92C65.84 74.27 67.97 78.13 69.88 82.03C73.34 89.1 75.82 96.97 80.88 103.12C81.72 104.14 82.67 105.05 83.73 105.82C83.75 105.83 83.73 105.85 83.71 105.84L83.73 105.84Z" fill="#824916"/>
<path d="M76.8299 95.3799C76.4499 94.4299 75.9299 93.4899 75.7899 92.4699C75.6499 91.3799 75.8399 90.2499 76.1299 89.1999C76.7199 86.9799 77.5499 84.8299 78.0399 82.5799C79.0399 78.0499 78.2699 72.9599 76.0099 68.8999C75.9599 68.7999 76.0899 68.7099 76.1499 68.7999C77.2899 70.4299 77.7999 72.4599 78.3099 74.3499C78.8899 76.5199 78.9899 78.7099 78.8499 80.9399C78.6999 83.2399 78.1299 85.4899 77.4999 87.6999C77.1799 88.8299 76.8399 89.9699 76.5699 91.1099C76.1999 92.6199 76.4499 93.8799 76.8599 95.3599C76.8599 95.3599 76.8399 95.3699 76.8399 95.3599L76.8299 95.3799Z" fill="#824916"/>
<path d="M69.8398 80.7899C69.1198 78.5499 68.8998 76.3799 69.0898 74.0399C69.1998 72.6199 69.4598 71.2299 69.6098 69.8199C69.7598 68.2699 69.8198 66.3699 69.4098 64.8399C68.9498 63.1399 67.9698 61.6099 67.4198 59.9499C67.3898 59.8699 67.5298 59.7899 67.5698 59.8799C68.3398 61.3799 69.0998 63.0199 69.6098 64.6299C70.0898 66.0999 70.0698 67.7199 70.1398 69.2499C70.2098 70.6799 69.9198 72.1099 69.8298 73.5299C69.6798 75.9299 69.8198 78.3799 69.9198 80.7799C69.9198 80.8299 69.8498 80.8399 69.8298 80.7899L69.8398 80.7899Z" fill="#824916"/>
<path d="M77.97 99.26C75.64 96.02 72.97 93.02 69.33 91.28C67.61 90.46 65.85 89.72 64.19 88.76C62.46 87.76 60.17 86.22 59.8 84.08C59.78 83.96 59.97 83.9 60.04 84C60.67 85.08 61.24 86.02 62.2 86.86C63.25 87.78 64.51 88.44 65.77 89.03C67.23 89.72 68.75 90.29 70.23 90.97C73.87 92.63 76.16 95.81 78 99.25C78 99.27 77.99 99.29 77.98 99.27L77.97 99.26Z" fill="#824916"/>
<path d="M55 71.8902C57.34 74.7402 60.36 76.5402 63.76 77.8602C65.78 78.6502 68.64 79.4902 69.54 81.7102C69.58 81.8102 69.44 81.8602 69.38 81.7802C68.53 80.7802 67.75 80.0102 66.54 79.4202C65.34 78.8402 64.02 78.4902 62.77 78.0502C59.44 76.8702 56.92 74.8602 54.99 71.9102C54.98 71.9002 54.99 71.8802 55.01 71.9002L55 71.8902Z" fill="#824916"/>
<path d="M57.8198 65.8802C56.3498 65.1902 54.6798 65.2902 53.0998 65.3202C51.7298 65.3402 50.3398 65.4902 48.9898 65.7802C47.3898 66.1102 45.6198 66.7102 43.9798 66.4202C43.1898 66.2902 42.4498 65.9002 41.7498 65.5402C41.0298 65.1702 40.2398 64.8302 39.5798 64.3602C39.5098 64.3102 39.5798 64.2002 39.6598 64.2102C41.5198 64.5002 42.8898 66.0502 44.8598 66.0602C46.4798 66.0802 48.1498 65.4202 49.7498 65.1502C52.2998 64.7402 55.4998 64.4602 57.8298 65.8502C57.8398 65.8502 57.8298 65.8802 57.8198 65.8702L57.8198 65.8802Z" fill="#824916"/>
<path d="M59.0599 66.8003C56.6299 65.5303 55.5699 62.9303 54.3899 60.6103C53.8999 59.6503 53.3499 58.6003 52.6199 57.8003C51.8799 56.9803 50.6599 56.5703 49.6999 56.1103C49.6099 56.0703 49.6799 55.9403 49.7699 55.9803C50.6799 56.3703 51.6499 56.7103 52.4799 57.2803C53.2199 57.7903 53.7099 58.6603 54.1899 59.4103C55.7399 61.8303 56.5698 65.1103 59.0898 66.7603C59.1098 66.7803 59.0899 66.8303 59.0599 66.8103L59.0599 66.8003Z" fill="#824916"/>
<path d="M84.08 105.58C81.12 102.9 80.84 99.0601 81.91 95.3601C83.1 91.2601 85.65 88.0301 88.13 84.6501C91.09 80.6301 93.6 76.2601 95.39 71.6001C96.33 69.1601 96.98 66.6601 97.47 64.1001C97.99 61.4001 98.34 58.5601 97.41 55.9101C97.34 55.7101 97.64 55.6201 97.71 55.8101C98.47 57.9501 98.39 60.2001 98.09 62.4301C97.76 64.8101 97.23 67.1701 96.5 69.4601C95.06 74.0401 92.82 78.3401 90.18 82.3501C87.83 85.9101 85.09 89.0901 83.37 93.0401C81.65 97.0201 80.88 102.08 84.09 105.56C84.1 105.56 84.09 105.58 84.08 105.58Z" fill="#824916"/>
<path d="M82.2499 103.08C81.6999 101.52 81.3199 100.03 81.4799 98.3602C81.6299 96.7502 82.0199 95.1402 82.5499 93.6202C83.9099 89.7502 86.2799 86.1502 88.6899 82.8702C90.0299 81.0402 91.4299 79.2302 92.4499 77.1902C93.4799 75.1302 94.3299 72.9902 95.1299 70.8302C96.6999 66.5802 98.4299 62.0802 97.8399 57.4702C97.8199 57.3402 98.0299 57.3302 98.0399 57.4602C98.7199 61.6202 97.2799 65.6302 95.9499 69.5002C94.5499 73.5802 92.9399 77.5402 90.4499 81.0802C86.0899 87.2602 79.9699 94.9902 82.2899 103.08C82.2899 103.1 82.2699 103.1 82.2599 103.08L82.2499 103.08Z" fill="#824916"/>
<path d="M84.0599 90.3899C86.7699 86.6299 85.2299 81.9799 84.8299 77.7999C84.5999 75.3299 84.7099 72.8099 84.7199 70.3099C84.7199 68.1899 84.9999 66.0399 85.9299 64.1099C85.9499 64.0599 86.0299 64.1099 86.0099 64.1499C84.8799 66.5499 84.8699 69.0999 84.8599 71.6899C84.8599 74.3099 85.2299 76.9099 85.8799 79.4499C86.3799 81.4199 86.6799 83.2399 86.3699 85.2699C86.0799 87.1399 85.3699 88.9999 84.0699 90.3999C84.0599 90.4199 84.0399 90.3999 84.0499 90.3799L84.0599 90.3899Z" fill="#824916"/>
<path d="M90.3999 81.4301C90.8699 80.0701 91.4899 78.7901 91.7399 77.3601C91.9999 75.8301 91.6199 74.0401 91.2599 72.5601C90.5999 69.7801 89.2899 67.1101 89.6399 64.1801C89.6399 64.1001 89.7799 64.1001 89.7799 64.1801C89.6599 67.4001 91.4999 70.2501 92.2799 73.2901C92.6299 74.6901 92.6699 76.0801 92.4499 77.5001C92.2299 78.9001 91.0799 80.2001 90.4299 81.4201C90.4299 81.4401 90.3999 81.4301 90.3999 81.4201L90.3999 81.4301Z" fill="#824916"/>
<path d="M110.4 85.5603C109.84 87.2103 108.13 88.0203 106.64 88.6903C104.38 89.7003 102.03 90.5703 99.5501 90.7803C96.7301 91.0103 93.9101 90.4503 91.0901 90.3903C88.1701 90.3303 84.7001 91.0803 83.1301 93.8003C83.0601 93.9103 82.9001 93.8303 82.9501 93.7103C84.9301 88.5903 91.9101 89.7303 96.1601 90.2803C99.2601 90.6803 102.04 90.5003 104.95 89.3103C106.76 88.5803 109.85 87.7303 110.38 85.5603C110.38 85.5403 110.41 85.5603 110.4 85.5603Z" fill="#824916"/>
<path d="M106.46 72.8302C105.3 73.6202 104.43 74.7402 103.24 75.5302C102.06 76.3102 100.54 76.8002 99.18 77.1802C97.62 77.6302 96.01 77.8102 94.5 78.4502C92.81 79.1702 91.7 80.4302 90.39 81.6602C90.32 81.7202 90.19 81.6502 90.25 81.5602C91.02 80.4002 91.77 79.3102 92.92 78.4902C94.25 77.5602 96.04 77.3502 97.58 77.0302C99.3 76.6802 100.85 76.1502 102.48 75.5102C103.99 74.9102 105.11 73.6902 106.45 72.8102C106.47 72.8102 106.47 72.8202 106.46 72.8302Z" fill="#824916"/>
<path d="M102.92 65.0102C102.42 66.6202 101.08 68.0102 99.8299 69.0902C98.9799 69.8302 98.0099 70.3902 97.1799 71.1402C96.2799 71.9502 95.5599 72.9502 94.7899 73.8702C94.6899 73.9902 94.5299 73.8702 94.5799 73.7302C96.0999 69.7502 101.33 69.0102 102.83 64.9602C102.85 64.9002 102.96 64.9402 102.93 65.0002L102.92 65.0102Z" fill="#824916"/>
</g>
<defs>
<clipPath id="clip0_677_447">
<rect width="145.98" height="155.48" fill="white" transform="translate(146 156) rotate(-180)"/>
</clipPath>
</defs>
</svg>
