<svg width="146" height="156" viewBox="0 0 146 156" fill="none" xmlns="http://www.w3.org/2000/svg">
<g opacity="0.2" clip-path="url(#clip0_207_11709)">
<path d="M46.45 100.64C46.06 102.6 45.57 104.53 44.9 106.4C42.9 111.97 40.2 117.38 36.74 122.19C33.27 127.01 28.68 132.19 22.67 133.67C20.29 134.25 17.18 134.46 15.32 132.51C13.44 130.54 13.78 127.43 14.83 125.12C15.84 122.9 17.65 120.64 20.15 120.07C20.56 119.97 21.01 119.93 21.47 119.92C21.07 120.55 20.76 121.22 20.69 121.97C20.54 123.61 21.06 125.65 22.6 126.54C24.32 127.55 26.3 126.49 26.47 124.48C26.64 122.4 25.41 120.53 23.48 119.79C23.13 119.65 22.78 119.61 22.43 119.55C23.37 118.42 24.69 117.59 26.06 116.95C27.61 116.23 29.49 115.55 30.55 114.14C31.86 112.39 31.55 110.15 31.18 108.12C31.14 107.88 30.76 107.9 30.81 108.14C31.25 110.6 31.49 113.28 29.19 114.87C27.63 115.96 25.79 116.48 24.17 117.43C23.3 117.93 22.45 118.63 21.79 119.45C18.28 119.28 15.2 122.64 14.15 125.79C13.52 127.67 13.21 130.02 14.31 131.79C15.29 133.38 17.02 134.22 18.85 134.36C24.37 134.78 29.44 131.06 33 127.22C39.73 119.96 44.75 110.54 46.71 100.79C46.63 100.74 46.54 100.7 46.47 100.64H46.45ZM24.46 120.83C25.51 121.73 26.3 123.24 25.92 124.66C25.64 125.65 24.85 126.71 23.67 126.39C23.03 126.21 22.47 125.83 22.1 125.28C21.43 124.3 21.03 123.01 21.27 121.82C21.41 121.1 21.71 120.5 22.09 119.95C22.97 120.02 23.82 120.27 24.47 120.83H24.46Z" fill="#824916"/>
<path d="M51.29 138.04C49.79 139.29 48.79 141.09 47.68 142.67C46.96 143.68 46.06 145.26 44.83 145.71C44.68 145.77 44.53 145.73 44.38 145.74C44.57 145 44.55 144.2 44.33 143.39C44.13 142.63 43.33 140.89 42.37 142.03C41.56 143.02 42.35 145.15 43.27 145.8C43.46 145.94 43.65 145.99 43.84 146.05C43.61 146.56 43.3 147.02 42.83 147.4C41.47 148.52 39.73 149.24 37.99 149.48C37.01 149.62 35.9 149.61 34.9 149.31C35.22 148.48 35.47 147.63 35.58 146.8C35.77 145.43 35.62 143.4 33.78 143.46C32.3 143.51 31.6 145.96 31.95 147.11C32.35 148.41 33.23 149.19 34.31 149.62C34.03 150.31 33.72 150.98 33.36 151.52C31.83 153.82 29.24 155.72 26.34 155.07C23.35 154.4 21.29 152.09 21.2 149C21.12 146.29 22.03 143.72 23.05 141.25C24.14 138.64 25.43 136.04 27.24 133.85C29.21 131.47 31.73 129.62 34.04 127.6C38.32 123.85 41.55 119.19 44 114.06C45.92 110.05 47.37 105.81 48.04 101.42C47.94 101.39 47.84 101.35 47.74 101.31C47 105.09 45.98 108.82 44.42 112.33C42.44 116.77 39.93 121.3 36.53 124.82C33.16 128.32 28.79 130.94 26.05 135.01C24.76 136.93 23.74 139 22.86 141.14C22.09 143.01 21.32 144.94 21.06 146.95C20.8 148.97 20.92 151.28 22.27 152.93C23.62 154.58 25.9 155.69 28.07 155.44C31.11 155.08 33.5 152.59 34.74 149.75C36.17 150.18 37.88 150.06 39.3 149.66C40.77 149.24 42.29 148.56 43.39 147.47C43.8 147.07 44.06 146.6 44.24 146.11C45.93 146.21 47.43 143.71 48.21 142.54C49.11 141.19 49.97 139.74 51.13 138.58C51.61 138.11 52.2 137.59 52.89 137.45C54.04 137.22 55.41 137.91 56.32 138.55C56.39 138.6 56.49 138.5 56.41 138.44C54.79 137.19 52.94 136.64 51.29 138.01V138.04ZM33.29 148.36C32.63 147.62 32.31 146.65 32.62 145.67C32.78 145.17 33.1 144.31 33.7 144.19C34.38 144.06 34.83 144.64 34.94 145.22C35.18 146.43 34.92 147.84 34.46 149.15C34.02 148.96 33.61 148.72 33.28 148.35L33.29 148.36ZM43.16 145.25C42.74 144.76 42.47 144.11 42.42 143.47C42.38 143.05 42.45 141.42 43.31 141.99C44.23 142.58 44.3 144.25 44.14 145.21C44.11 145.41 44.01 145.57 43.94 145.75C43.65 145.67 43.38 145.51 43.16 145.25Z" fill="#824916"/>
<path d="M48.84 98.8896C48.84 98.8896 48.77 98.9697 48.73 99.0097C50.23 101.32 49.52 104.27 48.69 106.76C47.87 109.17 46.9 111.5 47.07 114.11C47.23 116.61 48.01 119.32 49.78 121.18C51.58 123.05 53.95 123.81 56.49 124.03C56.72 124.05 56.74 123.73 56.51 123.72C53.59 123.49 50.71 122.44 49.11 119.83C47.63 117.43 46.99 114.29 47.54 111.5C48.3 107.62 51.67 102.55 48.83 98.8997L48.84 98.8896Z" fill="#824916"/>
<path d="M50.98 98.8298C50.98 98.8298 50.95 98.8298 50.93 98.8398C51.02 99.3698 51.09 99.8998 51.06 100.44C50.95 102.2 50.4 103.96 49.89 105.63C49.05 108.37 47.97 110.95 48 113.86C48.02 116.26 48.52 118.93 50.21 120.76C51.95 122.63 54.58 123.58 57.06 123.97C57.26 124 57.32 123.71 57.12 123.66C54.39 122.99 51.33 122.19 49.77 119.58C48.34 117.17 48.09 114.15 48.55 111.42C49.03 108.6 50.28 105.95 50.96 103.18C51.28 101.89 51.59 100.57 51.42 99.2298C51.39 98.9998 51.32 98.7898 51.27 98.5698C51.19 98.6398 51.13 98.6998 50.98 98.8098V98.8298Z" fill="#824916"/>
<path d="M55.58 123.59C56.85 123.48 58.11 123.59 59.38 123.53C60.88 123.47 62.38 123.09 63.85 122.76C65.32 122.42 66.8 122.12 68.17 121.45C69.46 120.81 70.59 119.86 71.63 118.87C73.37 117.22 74.86 115.32 76.53 113.6C77.51 112.6 79.2 111.01 80.66 111.99C80.92 112.17 80.68 112.52 80.42 112.35C78.7 111.19 76.42 114.33 75.4 115.42C73.69 117.26 72.08 119.19 70.07 120.72C67.95 122.33 65.43 122.83 62.88 123.37C61.73 123.61 60.56 123.89 59.38 123.91C58.1 123.94 56.85 123.56 55.56 123.62C55.55 123.62 55.55 123.6 55.56 123.59H55.58Z" fill="#824916"/>
<path d="M66.57 113.52C66.42 116.28 69.86 113.6 70.64 112.82C71.79 111.66 72.83 110.57 74.46 110.16C74.62 110.11 74.73 110.29 74.64 110.42C73.9 111.41 73.54 112.59 72.8 113.58C72.74 113.52 72.69 113.45 72.64 113.39C73.94 112.55 74.91 111.37 76.44 110.91C76.59 110.87 76.75 111.03 76.67 111.18C76.25 112.01 75.71 112.78 75.35 113.63C75.24 113.54 75.15 113.46 75.05 113.37C76.06 112.57 77.22 111.75 78.53 111.57C79.25 111.47 80.22 111.44 80.68 112.12C80.73 112.21 80.63 112.31 80.55 112.27C78.64 111.31 76.78 112.52 75.29 113.72C75.11 113.86 74.92 113.63 74.99 113.46C75.34 112.58 75.88 111.83 76.34 111.02C76.41 111.1 76.5 111.2 76.58 111.29C75.07 111.69 74.08 112.8 72.79 113.61C72.67 113.68 72.55 113.53 72.64 113.42C73.39 112.45 73.76 111.29 74.39 110.25C74.46 110.33 74.52 110.41 74.58 110.48C73.27 110.96 72.42 111.87 71.57 112.93C70.92 113.75 70.23 114.69 69.26 115.15C68.49 115.51 67.57 115.79 66.77 115.37C66.01 114.97 66.25 114.12 66.57 113.52C66.57 113.51 66.59 113.52 66.59 113.52H66.57Z" fill="#824916"/>
<path d="M69.74 126.69C68.97 125.43 69.85 124.68 71.12 124.47C72.98 124.17 75.79 124.49 76.55 122.27C76.64 122.35 76.74 122.44 76.83 122.52C75.88 122.77 75.2 122.66 74.33 122.22C74.21 122.16 74.24 122.01 74.35 121.95C75.64 121.33 76.73 120.35 78.09 119.84C78.09 119.94 78.07 120.04 78.07 120.13C77.18 119.56 76.38 119.66 75.63 120.39C75.5 120.53 75.3 120.39 75.37 120.22C75.88 118.97 77.34 118.49 77.82 117.25C77.87 117.33 77.93 117.42 77.98 117.5C77.33 117.51 76.78 117.73 76.17 117.95C76.02 118 75.9 117.81 76 117.7C76.42 117.19 77.02 116.82 77.54 116.41C77.71 116.28 77.86 116.14 78.02 116.01C78.31 115.75 77.94 115.49 77.65 115.58C77.27 115.69 76.92 115.88 76.58 116.09C76.49 116.14 76.35 116.09 76.35 115.97C76.41 114.31 78.66 111.03 80.6 112.07C80.74 112.15 80.63 112.38 80.48 112.3C78.75 111.36 76.67 114.47 76.64 115.95C76.56 115.91 76.49 115.87 76.41 115.84C76.73 115.64 78.31 114.68 78.54 115.42C78.83 116.35 76.7 117.3 76.22 117.9C76.17 117.82 76.11 117.74 76.06 117.65C76.7 117.41 77.26 117.18 77.94 117.16C78.08 117.16 78.15 117.29 78.11 117.41C77.61 118.65 76.16 119.11 75.64 120.36C75.55 120.3 75.46 120.24 75.38 120.18C76.23 119.34 77.17 119.2 78.18 119.85C78.29 119.92 78.3 120.09 78.17 120.14C76.81 120.63 75.72 121.62 74.42 122.23C74.42 122.14 74.43 122.05 74.44 121.96C75.24 122.33 75.82 122.38 76.67 122.1C76.82 122.05 77 122.19 76.95 122.36C76.53 123.87 75.17 124.55 73.74 124.89C72.64 125.14 69.53 124.71 70.02 126.54C70.07 126.72 69.82 126.86 69.71 126.69H69.74Z" fill="#824916"/>
<path d="M48.85 111.07C50.94 110.21 52.85 112.28 53.41 114.15C53.47 114.34 53.27 114.52 53.09 114.43C52.47 114.14 51.66 114.43 51.16 114.83C51.14 114.7 51.11 114.56 51.08 114.43C51.84 114.5 52.47 115.08 52.9 115.68C53.06 115.9 52.75 116.14 52.56 115.98C51.79 115.37 51.28 116.61 51.02 117.1C50.91 117.01 50.8 116.91 50.69 116.81C51.56 116.2 52.42 116.55 53.09 117.29C53.19 117.4 53.17 117.64 52.98 117.63C52.12 117.59 51.73 118.23 51.43 118.92C51.34 118.86 51.26 118.8 51.17 118.74C51.56 118.19 52.1 118.01 52.74 118.22C52.9 118.27 52.9 118.46 52.76 118.54C52.11 118.85 52.08 119.36 52.14 119.92C52.05 119.86 51.96 119.8 51.87 119.74C53.21 119.27 54.8 118.79 55.84 120.05C56.37 120.7 56.46 121.6 56.13 122.34C55.74 123.22 55.11 123.38 54.34 123.07C54.25 123.03 54.29 122.91 54.37 122.9C54.78 122.86 55.21 122.28 55.37 121.96C55.7 121.31 55.47 120.49 54.95 120.01C54.24 119.33 52.77 119.88 51.98 120.12C51.85 120.16 51.72 120.08 51.71 119.94C51.68 119.17 51.9 118.54 52.64 118.24C52.64 118.34 52.62 118.44 52.61 118.53C52.21 118.66 51.81 118.79 51.41 118.93C51.3 119.1 51.06 118.98 51.13 118.78C51.47 117.9 51.93 117.23 52.95 117.24C52.91 117.35 52.87 117.47 52.83 117.58C52.31 117.03 51.63 116.67 50.93 117.19C50.74 117.33 50.51 117.1 50.61 116.9C51.05 116 51.78 114.74 52.86 115.62C52.74 115.72 52.63 115.83 52.51 115.93C52.18 115.47 51.66 114.89 51.04 114.86C50.87 114.86 50.7 114.64 50.86 114.5C51.5 113.93 52.48 113.57 53.28 114.01C53.17 114.1 53.06 114.19 52.95 114.3C52.52 112.56 50.83 110.52 48.84 111.09C48.83 111.09 48.82 111.08 48.84 111.07H48.85Z" fill="#824916"/>
<path d="M49.09 110.96C49.86 110.17 50.84 109.57 51.94 109.41C53.03 109.25 54.08 110.32 54.85 110.91C54.65 111.01 54.47 111.1 54.27 111.19C54.22 110.62 54.32 109.88 53.9 109.43C53.74 109.25 53.77 108.99 54.01 108.9C55.91 108.18 56.67 110.12 57.4 111.47C57.55 111.75 57.15 112.02 57 111.74C56.44 110.74 55.77 108.73 54.29 109.46C54.29 109.29 54.31 109.13 54.32 108.97C54.99 109.56 54.91 110.34 54.97 111.17C54.99 111.47 54.62 111.64 54.4 111.45C53.7 110.85 53.12 110.14 52.2 109.89C51.19 109.61 49.89 110.43 49.15 111.04C49.12 111.08 49.06 111.02 49.1 110.98L49.09 110.96Z" fill="#824916"/>
<path d="M49.41 111.03C52.16 108.87 55.34 111.64 56.91 113.96C57.84 115.34 58.3 117.15 58.1 118.81C57.9 120.57 56.93 122.63 55.24 123.42C55.12 123.48 55.02 123.3 55.1 123.21C55.66 122.59 56.27 122.1 56.74 121.39C57.21 120.66 57.48 119.82 57.63 118.97C57.91 117.39 57.54 115.69 56.75 114.31C55.47 112.07 52.05 108.79 49.43 111.04C49.43 111.04 49.41 111.03 49.42 111.02L49.41 111.03Z" fill="#824916"/>
<path d="M62.98 103.11C63.67 105.44 64.67 107.64 65.03 110.06C65.35 112.18 64.91 114.26 64.18 116.25C62.76 120.21 59.53 123.45 55.12 123.21C54.9 123.2 54.88 122.86 55.1 122.87C59.71 123.15 62.74 119.62 64.13 115.58C64.79 113.67 65.02 111.73 64.73 109.73C64.41 107.49 63.58 105.29 62.96 103.12C62.96 103.11 62.98 103.1 62.98 103.12V103.11Z" fill="#824916"/>
<path d="M61.66 100.4C61.99 101.17 62.35 101.91 62.44 102.76C62.53 103.54 62.02 104.3 61.98 105.07C61.98 105.27 61.78 105.37 61.62 105.24C61.36 105.05 61.18 104.8 61 104.53C60.89 104.37 60.8 104.19 60.7 104.02C60.66 103.96 60.63 103.92 60.6 103.86C60.46 103.57 60.23 103.5 59.88 103.65C60.14 104.53 60.5 105.26 59.99 106.12C59.89 106.29 59.65 106.28 59.58 106.09C59.23 105.21 58.77 105.03 57.87 105.19C57.93 105.05 57.97 104.9 58.03 104.75C59.01 105.63 58.88 106.97 58.56 108.13C58.5 108.33 58.25 108.39 58.13 108.21C57.84 107.8 57.61 106.73 56.81 107.21C56.81 107.11 56.82 107.01 56.83 106.91C58.29 108.29 56.93 109.79 57.36 111.42C57.42 111.66 57.04 111.79 56.97 111.55C56.61 110.08 57.96 108.36 56.57 107.2C56.48 107.12 56.49 106.96 56.59 106.89C57.69 106.13 57.95 107.19 58.52 107.95C58.38 107.98 58.23 108.01 58.09 108.03C58.33 107.05 58.54 105.88 57.69 105.13C57.56 105.02 57.58 104.74 57.78 104.7C58.98 104.48 59.63 104.77 60 105.95C59.87 105.92 59.75 105.9 59.62 105.87C60.13 105.14 59.8 104.27 59.51 103.53C59.48 103.47 59.51 103.39 59.57 103.35C60.76 102.53 61.2 104.34 61.9 104.91C61.78 104.95 61.66 104.99 61.54 105.03C61.6 104.42 61.83 103.91 62.02 103.33C62.34 102.36 61.89 101.33 61.62 100.4C61.62 100.38 61.64 100.37 61.65 100.4H61.66Z" fill="#824916"/>
<path d="M61.8799 100.58C64.0199 101.52 65.1499 104.46 64.9799 106.67C64.9599 107 64.4799 107.05 64.4599 106.7C64.3999 105.74 65.0899 105.05 65.3399 104.18C65.4199 103.91 65.7899 103.87 65.8899 104.15C66.2899 105.28 67.4999 107.31 66.4299 108.38C66.2399 108.57 65.8799 108.43 65.9499 108.14C66.1299 107.42 66.6499 106.87 66.9299 106.18C67.0199 105.96 67.3599 106.01 67.4299 106.22C67.9799 107.85 68.4599 109.09 67.5099 110.67C67.3499 110.94 66.9099 110.72 67.0799 110.46C67.3199 110.05 67.5599 109.84 67.9999 109.65C68.0899 109.61 68.2299 109.66 68.2799 109.74C68.6899 110.53 68.1899 111.35 67.7799 112.04C67.5099 112.49 67.2299 112.93 67.0199 113.42C66.7499 114.09 67.1099 114.53 67.4999 115.04C67.5799 115.15 67.4599 115.28 67.3399 115.26C66.3499 115.09 66.0399 114.16 66.4099 113.29C66.6199 112.79 66.9299 112.34 67.2299 111.9C67.4099 111.63 67.5899 111.36 67.7499 111.07C67.9399 110.74 68.2199 109.48 67.5199 110.67C67.3699 110.6 67.2299 110.52 67.0899 110.46C67.9499 108.99 67.4299 107.88 66.9299 106.4C67.0999 106.41 67.2699 106.42 67.4399 106.43C67.1799 107.07 66.6799 107.58 66.5199 108.25C66.3599 108.17 66.1899 108.09 66.0399 108.01C66.8699 107.18 65.6999 105.23 65.3799 104.33C65.5599 104.32 65.7499 104.31 65.9299 104.3C65.6999 105.11 64.9699 105.81 64.9999 106.67C64.8299 106.66 64.6599 106.65 64.4899 106.63C64.6899 104.61 63.7199 101.69 61.8499 100.66C61.7999 100.64 61.8499 100.57 61.8999 100.59L61.8799 100.58Z" fill="#824916"/>
<path d="M47.48 126.43C47.15 125.13 48.95 124.47 49.95 124.86C51.02 125.27 51.48 126.31 52.78 125.88C53.47 125.64 55.19 124.66 54.29 123.81C53.92 123.46 54.46 122.87 54.8 123.23C56.08 124.6 54.4 125.87 53.14 126.33C52.43 126.59 51.69 126.6 51.07 126.13C50.54 125.73 50.11 125.17 49.45 124.98C48.6 124.73 47.35 125.5 47.51 126.43C47.51 126.44 47.48 126.45 47.48 126.43Z" fill="#824916"/>
<path d="M54.68 123.46C58.34 125.41 55.77 129.27 53.54 131.3C52.35 132.39 50.91 133.02 49.46 133.67C47.77 134.43 45.37 135.43 44.99 137.48C44.96 137.66 44.69 137.6 44.71 137.42C45.11 134.51 49.15 133.39 51.37 132.26C54 130.92 58.63 125.87 54.67 123.46C54.67 123.46 54.67 123.44 54.67 123.45L54.68 123.46Z" fill="#824916"/>
<path d="M47.22 126.48C47.92 126.07 48.56 126.17 49.26 126.54C49.41 126.62 49.4 126.85 49.23 126.9C48 127.32 47.67 128.4 47.07 129.42C46.96 129.35 46.85 129.27 46.73 129.19C47.2 128.78 47.66 128.71 48.27 128.84C48.44 128.87 48.49 129.11 48.33 129.2C47.19 129.93 46.37 131 46.23 132.38C46.11 132.32 45.98 132.26 45.85 132.19C46.28 131.63 46.73 131.31 47.47 131.34C47.67 131.35 47.83 131.64 47.61 131.76C46.46 132.36 45.64 133.47 45.25 134.7C45.17 134.63 45.09 134.56 45.01 134.48C45.37 134.37 45.67 134.29 45.98 134.07C46.02 134.16 46.06 134.24 46.1 134.33C45.13 134.64 44.95 136.23 45.16 137.06C45.21 137.26 44.91 137.36 44.87 137.16C44.62 136.16 44.87 134.41 46.01 134.06C46.17 134.01 46.26 134.22 46.14 134.32C45.83 134.57 45.5 134.7 45.12 134.84C44.99 134.89 44.85 134.76 44.88 134.63C45.22 133.24 46.06 132.05 47.35 131.39C47.4 131.53 47.44 131.67 47.49 131.81C46.94 131.78 46.51 132.07 46.18 132.49C46.03 132.68 45.78 132.5 45.81 132.31C45.97 130.83 46.87 129.66 48.11 128.88C48.13 129 48.16 129.13 48.18 129.25C47.76 129.1 47.39 129.18 47.05 129.48C46.88 129.64 46.58 129.47 46.7 129.25C47.35 128.06 47.67 126.89 49.11 126.54C49.11 126.66 49.09 126.78 49.08 126.9C48.51 126.52 47.94 126.33 47.25 126.53C47.22 126.54 47.19 126.5 47.23 126.48H47.22Z" fill="#824916"/>
<path d="M44.82 137.05C44.51 136.65 45.25 136.11 45.5 135.88C46.43 135.09 47.53 135.15 48.67 135.01C48.83 134.99 48.94 135.21 48.82 135.32C48.47 135.65 48.3 136.02 48.15 136.48C48.06 136.4 47.97 136.31 47.88 136.23C49.09 135.83 50.46 135.6 51.35 134.62C51.53 134.43 51.78 134.57 51.83 134.79C51.93 135.35 51.82 135.81 51.51 136.29C51.41 136.17 51.32 136.06 51.21 135.95C52.04 135.68 52.9 135.33 53.31 134.5C53.41 134.28 53.72 134.41 53.7 134.64C53.62 135.24 53.52 135.71 53.13 136.19C53.07 136.08 53.02 135.97 52.96 135.85C54.13 135.69 55.18 135.46 55.57 134.2C55.71 133.78 55.65 133.22 55.72 132.78C55.82 132.1 56.23 130.89 57.17 131.29C58.32 131.77 58.25 132.76 57.65 133.69C57.33 134.2 56.91 134.63 56.51 135.08C55.57 136.12 55.73 137.36 56.54 138.4C56.43 138.4 56.32 138.38 56.22 138.37C56.66 137.81 57.24 137.38 57.72 136.86C57.9 136.65 58.23 136.94 58.04 137.14C57.4 137.85 58 138.84 58.27 139.59C58.12 139.58 57.98 139.57 57.84 139.56C58.03 139.02 58.38 138.62 58.93 138.43C59.16 138.36 59.3 138.67 59.11 138.8C58.39 139.32 59.3 140.7 59.53 141.31C59.4 141.31 59.26 141.33 59.13 141.33C59.28 140.87 59.53 140.56 59.9 140.25C60 140.17 60.19 140.23 60.22 140.36C60.5 141.61 60.75 142.73 60.04 143.88C59.9 144.1 59.6 143.98 59.62 143.73C59.69 142.93 60.23 142.49 60.87 142.09C61.35 141.78 61.86 141.58 62.17 141.06C62.67 140.21 62.77 139.1 62.53 138.16C62.47 137.94 62.79 137.84 62.86 138.05C62.98 138.44 63.1 138.83 63.23 139.22C63.14 139.22 63.04 139.2 62.94 139.19C63.48 138.09 63.79 137.08 63.32 135.89C63.26 135.72 63.46 135.53 63.62 135.63C64 135.87 64.31 136.19 64.65 136.48C64.53 136.52 64.41 136.56 64.29 136.6C64.61 135.55 63.21 132.96 64.66 132.41C65.26 132.19 65.93 132.66 66.14 133.19C66.41 133.85 66.45 136.22 67.53 135.82C67.83 135.71 67.99 136.19 67.68 136.28C66.05 136.79 66.2 134.43 65.85 133.47C65.67 132.97 64.74 132.36 64.52 133.15C64.42 133.54 64.52 134.01 64.57 134.4C64.67 135.12 64.96 135.97 64.73 136.69C64.68 136.84 64.5 136.92 64.37 136.81C64.06 136.54 63.78 136.24 63.43 136.01C63.53 135.92 63.64 135.84 63.74 135.75C64.25 137.05 63.83 138.13 63.24 139.32C63.18 139.45 62.99 139.43 62.95 139.31C62.82 138.92 62.69 138.54 62.55 138.15C62.66 138.11 62.77 138.08 62.88 138.04C63.21 139.22 63.01 140.44 62.43 141.5C61.86 142.53 60.21 142.42 60.09 143.81C59.95 143.76 59.81 143.71 59.67 143.66C60.33 142.61 60.09 141.61 59.84 140.48C59.95 140.52 60.06 140.56 60.17 140.59C59.96 140.86 59.76 141.13 59.56 141.39C59.5 141.58 59.23 141.62 59.17 141.42C58.85 140.52 58.07 139.33 58.86 138.46C58.96 138.57 59.05 138.68 59.14 138.78C58.73 139.01 58.46 139.3 58.29 139.74C58.21 139.94 57.92 139.89 57.85 139.71C57.53 138.77 56.95 137.68 57.75 136.83C57.85 136.93 57.97 137.02 58.07 137.11C57.58 137.63 57.01 138.05 56.55 138.6C56.47 138.71 56.31 138.68 56.24 138.58C55.4 137.54 55.23 136.51 55.78 135.29C56.18 134.4 58.53 132.7 57.14 131.81C56.22 131.21 56.17 134.17 55.97 134.61C55.4 135.83 54.27 136.07 53.02 136.22C52.84 136.24 52.75 136.01 52.85 135.88C53.23 135.44 53.25 135.04 53.32 134.51C53.45 134.56 53.58 134.6 53.71 134.65C53.28 135.57 52.31 136.03 51.4 136.38C51.21 136.45 51 136.22 51.12 136.04C51.36 135.68 51.44 135.29 51.34 134.86C51.5 134.89 51.65 134.93 51.8 134.96C50.79 135.99 49.38 136.21 48.05 136.61C47.91 136.65 47.72 136.52 47.77 136.36C47.95 135.84 48.16 135.41 48.57 135.03C48.62 135.14 48.68 135.24 48.72 135.34C47.89 135.43 47.1 135.37 46.3 135.66C46 135.77 44.57 136.47 44.91 136.97C44.93 137 44.88 137.03 44.86 137.01L44.82 137.05Z" fill="#824916"/>
<path d="M55.07 123.34C58.12 124 59.56 127.33 60.42 130.01C61 131.83 61.3 133.67 61.31 135.57C61.31 136.63 61.21 137.68 61.11 138.74C60.99 140 60.98 141.36 60.69 142.59C60.66 142.72 60.48 142.7 60.47 142.57C60.28 140.65 60.83 138.55 60.94 136.63C61.05 134.63 60.84 132.71 60.3 130.79C59.59 128.2 58.15 123.89 55.07 123.35C55.05 123.35 55.07 123.33 55.07 123.33V123.34Z" fill="#824916"/>
<path d="M55.11 123.89C57.09 123.33 59.35 124.14 61.25 124.77C63.42 125.47 65.51 126.82 67.51 127.93C69.32 128.94 71.03 130.1 72.39 131.69C73.13 132.56 73.66 133.54 74.1 134.59C74.62 135.83 75.19 137.1 75.38 138.43C75.4 138.6 75.16 138.63 75.1 138.48C74.29 136.29 73.68 134.04 72.24 132.16C70.96 130.48 69.13 129.33 67.32 128.31C65.5 127.29 63.65 126.26 61.74 125.42C60.75 124.98 59.71 124.67 58.69 124.32C57.53 123.92 56.34 123.58 55.12 123.92C55.1 123.92 55.1 123.91 55.12 123.9L55.11 123.89Z" fill="#824916"/>
<path d="M69.77 126.2C70.66 127.09 71.58 126.65 72.65 126.76C73.64 126.86 74.54 127.34 75.3 127.96C75.5 128.12 75.32 128.45 75.08 128.4C74.43 128.28 73.96 128.53 73.43 128.84C73.4 128.69 73.37 128.52 73.34 128.37C74.47 128.76 75.34 129.55 75.77 130.66C75.85 130.87 75.62 131 75.45 130.94C74.95 130.75 74.53 130.44 74 130.31C74.06 130.18 74.14 130.05 74.2 129.91C75.09 130.52 76.31 131.69 76.04 132.94C75.89 133.66 74.85 132.77 74.6 132.63C74.69 132.55 74.78 132.47 74.88 132.39C75.08 133.25 75.72 133.9 75.95 134.75C76 134.93 75.84 135.06 75.67 134.99C75.34 134.86 75.1 134.77 74.8 134.58C74.9 134.49 75 134.4 75.11 134.32C75.42 135.05 76.15 135.88 76.07 136.72C75.99 137.6 75.61 138.36 75.26 139.17C75.14 139.45 74.65 139.28 74.75 138.99C74.96 138.36 75.22 137.75 75.43 137.13C75.75 136.15 75.02 135.33 74.7 134.46C74.62 134.23 74.89 134.11 75.06 134.22C75.32 134.4 75.57 134.5 75.86 134.63C75.77 134.72 75.67 134.79 75.58 134.87C75.38 134.01 74.72 133.37 74.51 132.51C74.47 132.35 74.63 132.17 74.79 132.27C75.25 132.52 75.75 133.17 75.57 132.31C75.38 131.38 74.64 130.77 73.91 130.26C73.72 130.12 73.9 129.82 74.11 129.86C74.68 130 75.13 130.33 75.67 130.53C75.56 130.62 75.45 130.72 75.35 130.81C74.97 129.85 74.23 129.19 73.24 128.88C73.03 128.82 72.94 128.54 73.15 128.41C73.79 128 74.43 127.74 75.19 127.91C75.12 128.05 75.05 128.2 74.97 128.35C73.89 127.42 72.86 127.28 71.5 127.14C70.74 127.06 70.25 126.8 69.76 126.22C69.76 126.21 69.77 126.19 69.78 126.2H69.77Z" fill="#824916"/>
<path d="M67.51 136.12C67.34 135.41 67.56 134.83 67.86 134.18C67.92 134.06 68.08 134.09 68.12 134.2C68.49 135.15 69.01 135.76 70 136.09C69.92 136.21 69.84 136.32 69.76 136.44C69.46 135.91 69.32 135.35 69.77 134.86C69.87 134.75 70.07 134.75 70.15 134.89C70.54 135.52 71.13 135.78 71.77 136.1C71.67 136.22 71.56 136.33 71.46 136.45C71.18 136.01 71.03 135.56 70.99 135.03C70.97 134.76 71.38 134.68 71.46 134.94C71.78 135.99 73.59 135.99 74.29 136.73C74.89 137.36 75.59 138.54 75.1 139.41C75.01 139.56 74.79 139.51 74.77 139.33C74.61 137.85 74.14 137 72.74 136.43C72.08 136.15 71.23 135.86 70.99 135.1C71.15 135.07 71.31 135.04 71.46 135.01C71.5 135.48 71.6 135.78 71.85 136.18C71.98 136.38 71.76 136.64 71.53 136.53C70.8 136.17 70.17 135.87 69.73 135.16C69.86 135.17 69.98 135.17 70.11 135.19C70.11 135.52 70.12 135.85 70.12 136.19C70.22 136.4 70.05 136.62 69.81 136.53C68.74 136.11 68.16 135.38 67.81 134.29C67.89 134.29 67.98 134.3 68.07 134.31C67.77 134.88 67.52 135.42 67.64 136.08C67.66 136.18 67.5 136.21 67.47 136.11L67.51 136.12Z" fill="#824916"/>
<path d="M37.71 85.1998C34.6 85.5398 31.43 85.4998 28.33 85.0698C25.44 84.6598 22.75 83.6498 19.91 82.9998C17.05 82.3498 14.41 82.6098 11.53 83.0298C9.02999 83.3898 6.40999 83.8898 4.36999 85.4798C2.60999 86.8498 1.18999 88.7398 0.499989 90.8698C-0.180011 92.9598 -0.270011 95.2898 0.869989 97.2498C1.94999 99.0898 3.71999 100.41 5.72999 101.1C8.87999 102.19 12.64 102.12 15.34 100.04C15.63 100.17 15.92 100.29 16.26 100.32C16.99 100.38 17.91 100.27 18.74 99.9898C18.74 100.04 18.74 100.08 18.74 100.12C18.89 101.02 19.85 101.38 20.63 101.52C21.86 101.74 23.15 101.67 24.36 101.99C26.87 102.65 25.39 105.23 24.47 106.78C24.42 106.86 24.55 106.92 24.6 106.85C24.97 106.26 25.32 105.65 25.58 105C25.98 104.02 26.44 102.69 25.26 102.05C24.24 101.51 22.98 101.53 21.86 101.44C20.86 101.34 19 101.23 18.93 99.8898C19.57 99.6398 20.16 99.3098 20.52 98.8198C20.85 98.3798 21.1 97.7698 20.91 97.2198C20.81 96.9398 20.45 97.0299 20.26 97.1599C19.47 97.6898 18.85 98.5298 18.74 99.4798C17.74 99.8398 16.63 99.9698 15.7 99.6898C15.89 99.5198 16.1 99.3698 16.28 99.1698C17.42 97.9298 18.14 96.2698 17.85 94.5498C17.61 93.1198 16.67 91.9098 15.14 92.6498C12.53 93.9098 12.63 98.4398 14.96 99.8698C13.49 100.92 11.68 101.61 9.86999 101.57C7.34999 101.52 4.53999 100.81 2.64999 99.0498C0.529989 97.0698 -0.190011 94.2698 0.659989 91.4998C1.44999 88.9298 3.20999 86.4998 5.55999 85.1498C8.16999 83.6498 11.27 83.4098 14.19 83.0098C16.99 82.6298 19.58 83.1398 22.27 83.9198C24.95 84.6898 27.62 85.3498 30.41 85.5898C32.81 85.7998 35.35 85.9098 37.78 85.5898C37.76 85.4498 37.72 85.3198 37.7 85.1798L37.71 85.1998ZM20.14 97.5398C20.86 97.0298 20.69 98.0898 20.39 98.4498C20.07 98.8398 19.63 99.1398 19.17 99.3398C19.13 99.3598 19.09 99.3698 19.05 99.3898C19.18 98.6598 19.53 97.9798 20.15 97.5398H20.14ZM13.83 97.6599C13.53 96.4599 13.66 95.0698 14.33 94.0098C14.9 93.0998 16.42 92.0898 17.16 93.4698C18.29 95.5698 17.16 98.1798 15.43 99.5598C15.41 99.5698 15.4 99.5798 15.38 99.5898C14.66 99.2798 14.07 98.6798 13.82 97.6599H13.83Z" fill="#824916"/>
<path d="M50.2299 50.8099C48.5399 50.8299 48.7799 49.2599 48.5799 48.0299C48.2499 45.9799 46.2099 45.8499 44.5699 46.5899C44.1399 46.7799 43.7099 47.0299 43.2799 47.2999C42.7899 46.0599 42.0099 44.9399 40.9299 44.1199C37.9299 41.8499 33.7899 41.5099 30.1499 41.7699C28.0899 41.9199 26.1699 42.5299 24.3999 43.3999C23.0999 41.8299 21.3199 40.6999 19.0799 40.2299C15.3299 39.4399 10.5999 39.8999 7.57994 42.4699C4.17994 45.3799 2.38994 49.9799 2.13994 54.3699C1.99994 56.9599 2.47994 59.3999 3.39994 61.8199C4.44994 64.5899 5.61994 67.4299 7.05994 70.0299C9.70994 74.8099 14.2999 78.1699 19.2799 80.2699C24.2699 82.3799 29.9699 83.6599 35.3999 83.7099C36.0799 83.7099 36.7699 83.6999 37.4499 83.6499C37.4299 83.5099 37.4099 83.3699 37.3799 83.2199C35.7399 83.3599 34.0699 83.2999 32.4199 83.1099C27.0299 82.4799 21.5999 81.2499 16.7999 78.6299C14.4199 77.3399 12.2399 75.7599 10.3199 73.8299C8.09994 71.5899 6.80994 68.7699 5.54994 65.9099C4.33994 63.1799 2.96994 60.3299 2.64994 57.3199C2.40994 55.0199 2.64994 52.6499 3.30994 50.4299C4.01994 48.0199 5.15994 45.6199 6.91994 43.7899C8.53994 42.0999 10.5199 41.1199 12.8099 40.6699C16.5799 39.9299 21.4599 40.4099 24.0899 43.5199C21.6899 44.7699 19.6199 46.6199 18.2599 49.1599C17.3299 50.8999 16.3799 53.2799 17.2699 55.2299C17.9899 56.8099 19.2199 57.7099 20.9799 57.4599C25.1599 56.8799 26.9599 51.8499 26.4799 48.1899C26.2399 46.3799 25.5199 44.8599 24.5299 43.5799C28.0099 41.9199 32.1599 41.6199 35.9199 42.3199C37.9099 42.6899 39.9799 43.3899 41.4499 44.8499C42.1599 45.5599 42.6799 46.4699 43.0499 47.4399C41.7299 48.3499 40.5599 49.6399 40.2499 51.1699C39.9599 52.5899 40.8599 55.4299 42.6899 53.8299C44.1199 52.5799 44.0599 50.3499 43.6899 48.6399C43.6199 48.3299 43.5199 48.0199 43.4099 47.7099C43.6399 47.5499 43.8599 47.3599 44.1099 47.2199C44.9899 46.7399 46.4699 46.0999 47.4399 46.7099C48.8599 47.6099 47.6699 50.2099 49.1599 50.8699C50.4999 51.4699 52.0599 50.5599 53.3199 50.1799C53.3399 50.1799 53.3399 50.1499 53.3199 50.1499C52.3099 50.3499 51.2699 50.7699 50.2299 50.7899V50.8099ZM24.7699 44.3699C27.1599 48.2399 26.5899 55.7199 21.3499 56.9999C18.4599 57.7099 16.8899 54.8599 17.4599 52.2799C18.0099 49.7899 19.5399 47.2899 21.4499 45.6099C22.3099 44.8599 23.2699 44.2499 24.2699 43.7499C24.4399 43.9599 24.6199 44.1499 24.7699 44.3799V44.3699ZM43.5199 51.3199C43.4099 52.0799 43.1699 53.0499 42.4699 53.4999C41.5899 54.0599 40.8699 53.7199 40.6599 52.7099C40.4099 51.5499 40.8399 50.3899 41.5399 49.4699C42.0199 48.8499 42.5999 48.3199 43.2299 47.8599C43.5899 48.9799 43.6899 50.1899 43.5199 51.3299V51.3199Z" fill="#824916"/>
<path d="M43.81 54.1198C45.7 53.1998 47.39 53.0498 49.36 53.7998C51.54 54.6198 53.44 56.0498 55.49 57.1198C56.39 57.5898 57.32 57.9698 58.36 57.8998C59.66 57.8098 60.55 56.6798 61.08 55.6198C62.29 53.2098 60.95 51.2198 58.84 49.9698C58.66 49.8698 58.74 49.5798 58.96 49.6298C60.79 50.0398 62.44 52.0498 62.38 53.9298C62.3 55.7798 61.02 58.5398 58.95 58.7798C56.67 59.0398 54.76 57.2198 52.97 56.0798C50.17 54.2798 47.13 52.5298 43.81 54.1498C43.8 54.1498 43.79 54.1398 43.81 54.1298V54.1198Z" fill="#824916"/>
<path d="M50.3401 40.0901C50.1101 42.8101 53.2001 42.7801 55.0801 42.4901C57.4001 42.1501 59.3801 41.3301 61.4001 40.1801C64.1101 38.6501 66.7801 40.5801 67.1801 43.4201C67.5701 46.1801 65.8201 48.5601 63.3301 49.5201C63.1701 49.5801 63.1001 49.3401 63.2501 49.2701C64.8201 48.5301 65.9701 47.3301 66.3401 45.6001C66.6801 43.9901 66.3001 42.3201 65.0601 41.2201C63.5301 39.8401 61.5201 41.1101 59.9101 41.6201C59.1401 41.8601 58.3801 42.1101 57.6101 42.3301C55.2601 42.9701 49.9301 44.0401 50.3201 40.0901C50.3201 40.0801 50.3301 40.0901 50.3301 40.0901H50.3401Z" fill="#824916"/>
<path d="M43.8 53.9997C44.36 53.9697 45.03 54.3997 45.46 54.6897C45.72 54.8597 46.78 55.4397 46.63 55.8297C46.5 56.2097 45.8 55.4597 45.67 55.3697C45.37 55.1397 45.06 54.9297 44.75 54.7197C44.49 54.5497 44.13 54.2697 43.81 54.2497C43.64 54.2497 43.63 53.9997 43.79 53.9897L43.8 53.9997Z" fill="#824916"/>
<path d="M46.5001 55.9097C44.6001 55.6697 42.6101 56.5397 40.9701 57.4097C39.8201 58.0297 37.7401 59.1297 37.4001 60.5397C37.3101 60.4497 37.2101 60.3697 37.1101 60.2797C38.1401 60.0697 39.1801 60.0397 40.2201 59.9697C40.4701 59.9497 40.5701 60.3597 40.3101 60.4197C38.0901 60.9297 35.2801 63.9197 35.4201 66.2797C35.3301 66.2297 35.2601 66.1697 35.1801 66.1197C36.1201 65.9297 37.0501 65.7197 37.9501 65.4197C38.2201 65.3297 38.4201 65.7297 38.1701 65.8697C35.5701 67.4197 34.7801 70.3697 34.2501 73.1597C34.1501 73.0997 34.0501 73.0297 33.9601 72.9597C35.1701 72.1597 36.5501 71.7897 37.9201 71.3497C38.0901 71.2897 38.2701 71.5197 38.1301 71.6697C37.4201 72.3797 37.2801 73.7897 36.9101 74.7297C36.6901 75.2797 36.3801 75.7597 36.2201 76.3297C36.0201 77.0497 36.1501 77.8197 36.3601 78.5197C36.2501 78.4797 36.1401 78.4397 36.0401 78.4097C36.6301 78.0797 37.3801 77.8697 37.7701 77.2897C37.8601 77.3897 37.9501 77.4897 38.0401 77.5997C36.5101 78.5697 37.0801 80.9697 37.4101 82.4197C37.8801 84.5597 38.7901 86.5897 39.5201 88.6497C39.3701 88.5897 39.2301 88.5497 39.0801 88.4997C39.6401 88.0097 40.2001 87.2697 40.0201 86.4797C40.2201 86.4397 40.4301 86.3997 40.6301 86.3697C40.5401 87.9797 40.6001 89.3197 41.2101 90.8397C41.8001 92.3397 42.8301 93.6497 43.8701 94.8597C43.6801 94.9197 43.5001 94.9797 43.3001 95.0497C43.3701 94.0297 42.9001 92.9997 43.1501 91.9997C43.2101 91.7197 43.6301 91.5997 43.7801 91.8797C44.7201 93.5497 44.6601 95.5597 45.1201 97.3797C45.4101 98.4897 45.7401 99.7097 46.6601 100.46C47.4501 101.12 48.5101 101.24 49.4201 101.68C49.6701 101.81 49.4801 102.18 49.2201 102.06C48.3501 101.69 47.4201 101.59 46.6001 101.08C45.8301 100.6 45.4001 99.8597 45.0801 99.0397C44.2501 96.8797 44.3901 94.2497 43.2101 92.2497C43.4201 92.2097 43.6301 92.1697 43.8401 92.1297C43.6401 93.0797 44.0301 94.1097 43.9301 95.0797C43.8901 95.3697 43.5201 95.3797 43.3701 95.1897C41.4101 92.6797 39.8301 89.6897 40.0301 86.3897C40.0401 86.0697 40.5601 85.8997 40.6401 86.2797C40.8601 87.3597 40.2501 88.3197 39.4301 88.9797C39.2801 89.0997 39.0401 88.9997 38.9901 88.8297C38.2201 86.3897 37.3601 84.0097 36.8901 81.4897C36.6201 80.0697 36.4501 78.1597 37.8401 77.2497C38.0401 77.1097 38.2301 77.3697 38.1101 77.5497C37.6901 78.1697 36.9301 78.3897 36.3101 78.7497C36.1901 78.8197 36.0301 78.7797 35.9901 78.6397C35.6201 77.3997 35.6801 76.2197 36.3101 75.0797C36.9601 73.9197 36.8901 72.3497 37.8601 71.3897C37.9401 71.4997 38.0001 71.6097 38.0801 71.7097C36.7401 72.1397 35.3901 72.4897 34.2101 73.2697C34.0701 73.3597 33.8901 73.2297 33.9201 73.0697C34.4701 70.2297 35.2201 66.9697 37.9301 65.4297C38.0101 65.5697 38.0701 65.7297 38.1501 65.8797C37.2101 66.1397 36.2501 66.2997 35.2901 66.4497C35.1901 66.4697 35.0901 66.3697 35.1001 66.2797C35.0801 63.6997 37.7001 60.5397 40.2101 59.9597C40.2401 60.1097 40.2601 60.2597 40.2901 60.4097C39.2801 60.4797 38.2901 60.5097 37.3001 60.6997C37.1401 60.7197 36.9601 60.6097 37.0101 60.4397C37.3701 58.9397 39.3601 57.8697 40.5701 57.1897C42.3401 56.1997 44.5201 55.3397 46.5901 55.7097C46.7101 55.7297 46.6701 55.9197 46.5401 55.8997L46.5001 55.9097Z" fill="#824916"/>
<path d="M49.1201 101.77C49.1201 101.77 49.0901 101.68 49.0701 101.63C49.0701 101.63 49.0901 101.61 49.0901 101.63C49.1101 101.68 49.1201 101.72 49.1401 101.77C49.1401 101.78 49.1201 101.79 49.1201 101.77Z" fill="#824916"/>
<path d="M49.3901 101.84C46.7901 101.69 48.9001 96.5398 50.5201 96.0398C50.7501 95.9698 50.8901 96.1898 50.8201 96.3798C50.3601 97.6598 50.8401 98.9898 50.7501 100.3C50.7401 100.55 50.3301 100.68 50.2701 100.39C49.9801 98.8698 51.2601 98.2598 52.4501 97.6998C54.8101 96.5898 55.4801 94.3298 56.3101 92.0398C56.3901 91.8198 56.7101 91.8898 56.7701 92.0698C57.1901 93.2398 58.1701 94.6998 57.7001 95.9598C57.6101 96.1998 57.2201 96.1098 57.2201 95.8698C57.2401 94.6398 58.0701 93.9198 58.9201 93.1598C60.3301 91.8998 60.8801 90.1798 61.3601 88.4098C61.4101 88.2098 61.7001 88.1198 61.8201 88.3198C62.1101 88.8198 62.3101 89.3398 62.5001 89.8898C62.3401 89.8798 62.1701 89.8598 62.0101 89.8498C62.3701 89.2998 62.7801 88.7898 63.1201 88.2298C63.5001 87.6298 63.5701 86.9798 63.6601 86.2898C63.7701 85.4798 64.2601 84.7598 65.0501 84.4898C66.6001 83.9698 67.2301 86.2798 67.4501 87.3098C68.0401 89.9098 68.7601 92.3698 69.9801 94.7598C70.7201 96.2198 71.6101 97.6498 72.7101 98.8698C73.7601 100.02 75.0101 101.21 76.6501 101.24C77.0701 101.24 77.0001 101.89 76.6001 101.8C74.5101 101.33 72.9001 99.6598 71.6601 98.0098C69.9101 95.6698 68.4801 93.2298 67.4301 90.4998C67.0801 89.5998 66.8101 88.7098 66.5901 87.7698C66.4201 87.0598 66.2501 86.3298 65.8401 85.7198C65.1101 84.6298 64.3201 86.6598 64.1701 87.1898C63.8601 88.3598 63.1201 89.1798 62.4401 90.1498C62.3201 90.3198 62.0501 90.2398 61.9901 90.0598C61.8301 89.5498 61.6501 89.0798 61.3901 88.6098C61.5501 88.5798 61.7001 88.5498 61.8601 88.5198C61.4501 89.9798 61.0201 91.3898 60.1201 92.6298C59.3401 93.6898 57.7401 94.3598 57.7201 95.8398C57.5601 95.8098 57.4001 95.7698 57.2401 95.7398C57.6401 94.6798 56.6401 93.2098 56.2901 92.2298C56.4501 92.2398 56.6101 92.2498 56.7601 92.2698C56.1201 94.0098 55.6001 95.9298 54.1801 97.2098C53.1901 98.1098 50.4101 98.5298 50.7401 100.23C50.5701 100.26 50.4201 100.29 50.2501 100.32C50.3401 98.8898 49.8701 97.5398 50.3701 96.1598C50.4701 96.2698 50.5701 96.3898 50.6601 96.4998C49.4301 96.8898 47.5001 101.29 49.4001 101.52C49.5801 101.54 49.5601 101.84 49.3801 101.84H49.3901Z" fill="#824916"/>
<path d="M88.9501 73.27C86.7501 74.18 87.5201 77.15 89.1501 78.25C91.0801 79.55 93.8001 80.04 96.0401 80.57C99.2201 81.33 104.44 81.34 105.05 85.5C105.07 85.68 104.86 85.87 104.68 85.81C103.69 85.47 102.74 84.86 101.67 84.91C101.03 84.94 100.44 85.05 99.8601 84.73C99.6501 84.62 99.7001 84.37 99.8901 84.28C101.13 83.7 102.78 85.05 103.71 85.74C105.26 86.89 106.33 88.64 107.18 90.36C107.27 90.54 107.16 90.82 106.92 90.76C106.45 90.62 106.04 90.4 105.61 90.16C104.83 89.72 104.1 89.79 103.25 89.87C103.26 89.69 103.27 89.52 103.29 89.35C105.87 89.76 108.06 92.72 108.86 95.04C108.92 95.2 108.76 95.41 108.58 95.35C107.32 94.94 106.47 93.73 105.04 93.95C105.07 93.81 105.1 93.68 105.12 93.53C106.14 93.96 106.8 94.96 107.41 95.83C107.76 96.32 108.18 96.83 108.43 97.38C108.84 98.28 109.03 99.24 109.33 100.17C109.38 100.37 109.09 100.47 109.03 100.27C108.6 98.87 108.28 97.62 107.44 96.38C106.81 95.44 106.03 94.32 104.92 93.92C104.74 93.86 104.77 93.55 104.95 93.52C106.52 93.19 107.31 94.44 108.68 94.87C108.58 94.98 108.49 95.08 108.4 95.18C107.63 93.03 105.57 90.23 103.17 89.85C102.86 89.8 102.92 89.36 103.21 89.33C103.84 89.26 104.38 89.18 105 89.33C105.73 89.51 106.3 90.04 107.02 90.26C106.92 90.37 106.82 90.48 106.73 90.59C106.06 89.17 105.16 87.46 103.92 86.47C103.09 85.79 101.21 84.19 100.05 84.76C100.06 84.61 100.07 84.45 100.08 84.3C100.78 84.67 101.49 84.26 102.21 84.4C103.11 84.57 103.92 84.98 104.8 85.23C104.68 85.36 104.57 85.49 104.45 85.62C103.87 82.81 101.01 82.58 98.6501 82.23C95.9601 81.82 93.2901 81.29 90.7301 80.36C88.7901 79.65 86.9401 78.64 86.7101 76.39C86.5501 74.76 87.3101 73.46 88.9401 73.28C88.9501 73.28 88.9401 73.29 88.9401 73.3L88.9501 73.27Z" fill="#824916"/>
<path d="M75.0701 98.7698C74.9301 99.2898 75.7701 100.01 76.0701 100.31C76.4401 100.68 76.8201 101.07 77.2501 101.37C77.4501 101.52 77.1901 101.82 76.9901 101.68C76.4401 101.26 76.0001 100.7 75.5901 100.14C75.3701 99.8298 74.8701 99.1898 75.0501 98.7598C75.0601 98.7498 75.0801 98.7598 75.0801 98.7598L75.0701 98.7698Z" fill="#824916"/>
<path d="M75.1301 98.8897C75.3501 99.8397 77.0101 100.53 77.7701 100.97C79.0101 101.66 80.5001 101.57 81.7001 102.25C81.9401 102.39 81.8201 102.84 81.5401 102.73C80.0501 102.21 78.5501 101.98 77.2301 101.08C76.6801 100.71 74.9601 99.7197 75.0801 98.8897C75.0801 98.8597 75.1301 98.8597 75.1401 98.8897H75.1301Z" fill="#824916"/>
<path d="M77.8601 98.98C79.0101 99.78 81.7501 100.75 81.7301 102.48C81.7301 102.65 81.5201 102.67 81.4501 102.53C81.0401 101.67 80.6401 101.07 79.8801 100.47C79.2301 99.95 78.5001 99.54 77.8501 99.01C77.8301 99 77.8501 98.98 77.8701 98.99L77.8601 98.98Z" fill="#824916"/>
<path d="M77.8501 98.98C79.5501 99.7 81.2401 100.33 82.7801 101.36C83.4301 101.8 84.1801 102.11 84.8901 102.41C85.6701 102.72 86.5401 102.49 87.3301 102.79C87.6701 102.92 87.4201 103.45 87.0701 103.3C86.3901 103.02 85.6401 103.23 84.9801 102.96C84.1401 102.62 83.3501 102.2 82.6001 101.71C81.0501 100.69 79.5201 99.76 77.8301 99C77.8101 99 77.8301 98.98 77.8301 98.98H77.8501Z" fill="#824916"/>
<path d="M84.2601 99.7699C85.4301 100.63 86.2301 101.81 87.1701 102.91C87.3401 103.11 87.0101 103.38 86.8201 103.21C85.7601 102.23 85.3401 100.76 84.2501 99.7799C84.2401 99.7799 84.2501 99.7599 84.2601 99.7699Z" fill="#824916"/>
<path d="M109.02 99.7499C108.27 100.06 107.47 99.6299 106.73 99.4699C105.51 99.2099 103.89 99.3599 102.66 99.5199C100.52 99.7899 98.4401 99.1499 96.4501 98.4599C96.5201 98.3499 96.5901 98.2399 96.6601 98.1399C97.5401 99.1599 98.6401 99.9999 99.7801 100.7C99.6901 100.84 99.5901 100.98 99.5001 101.11C98.2401 100.2 96.2101 101.55 94.8601 101.74C93.0901 102 91.2601 101.13 89.7301 100.36C89.8301 100.27 89.9301 100.18 90.0401 100.1C90.3101 100.8 90.7401 101.37 91.2201 101.94C91.3801 102.13 91.1201 102.33 90.9301 102.26C89.7301 101.81 88.4201 101.88 87.2101 101.45C85.9601 101.02 84.7401 100.36 83.6401 99.6499C83.4201 99.5199 83.5901 99.1599 83.8201 99.2899C84.8801 99.8899 85.9701 100.45 87.1001 100.91C88.4001 101.44 89.8101 101.38 91.1301 101.87C91.0301 101.98 90.9301 102.09 90.8401 102.19C90.3501 101.59 89.9001 100.97 89.6201 100.24C89.5401 100.06 89.7601 99.8899 89.9301 99.9799C91.9301 100.97 93.8601 101.72 96.0601 100.94C97.2701 100.5 98.6901 99.8699 99.8401 100.74C100.06 100.91 99.8001 101.3 99.5601 101.15C98.3601 100.38 97.2401 99.4699 96.3301 98.3699C96.1801 98.1899 96.4301 98.0099 96.5901 98.0699C98.6001 98.8199 100.49 99.3499 102.65 99.0899C103.84 98.9399 105 98.9199 106.2 98.9699C107.05 99.0199 108.1 99.6799 108.91 99.3899C109.14 99.3099 109.25 99.6599 109.03 99.7499H109.02Z" fill="#824916"/>
<path d="M87.0401 75.7601C86.5701 74.7901 87.3101 73.8401 88.0601 73.2501C89.2601 72.3101 90.5901 72.5101 91.9301 73.0101C93.6401 73.6301 94.8201 74.8501 96.0701 76.1101C97.5801 77.6301 99.2401 78.3301 101.34 78.4801C101.69 78.5001 101.73 78.9901 101.37 79.0401C99.6301 79.2701 98.9701 76.9801 98.1501 75.8801C98.0201 75.7101 98.2001 75.4401 98.4101 75.5001C99.8201 75.8801 101.12 76.5701 102.49 77.0401C104.1 77.5801 105.88 77.4101 107.49 76.9601C107.51 77.0901 107.54 77.2201 107.56 77.3501C106.22 77.3501 105.15 77.1601 104.42 75.9401C104.33 75.8001 104.51 75.6301 104.64 75.7401C105.9 76.8901 107.66 77.1901 109.31 77.0801C111.25 76.9401 112.77 75.6001 114.61 75.1401C114.64 75.2901 114.66 75.4501 114.7 75.6101C113.33 75.5301 112.44 74.7801 111.64 73.7101C111.51 73.5301 111.73 73.3601 111.9 73.4201C115.53 74.7101 119.14 73.7601 122.53 72.2301C122.52 72.3801 122.51 72.5201 122.5 72.6701C121.01 71.9201 119.25 72.4001 117.82 71.4001C117.73 71.3301 117.79 71.1401 117.91 71.1501C121.63 71.4401 125.65 71.3301 128.23 68.2301C128.26 68.3601 128.28 68.4901 128.31 68.6101C126.87 68.0801 125.39 68.7901 124.02 67.9501C123.88 67.8701 123.94 67.6501 124.11 67.6801C126.53 68.1401 129.2 67.5001 130.77 65.4901C131.44 64.6301 132 63.6901 132.75 62.8801C133.48 62.1101 134.61 61.9201 135.37 61.1601C135.41 61.2701 135.45 61.4001 135.49 61.5201C133.69 61.3101 132.22 62.2001 130.54 62.6701C130.42 62.7001 130.29 62.5501 130.4 62.4601C132.6 60.4901 135.63 59.8901 138.41 59.2101C138.4 59.3701 138.39 59.5501 138.38 59.7101C137.05 58.8801 135.31 58.7601 133.81 59.1501C133.78 59.0701 133.76 58.9901 133.73 58.9101C136.37 58.2701 138.57 56.2301 140.93 54.9601C142.37 54.1801 144.32 53.4301 145.74 54.6201C146.02 54.8701 145.64 55.3001 145.36 55.0501C143.82 53.6901 141.38 55.1701 139.93 56.0001C137.93 57.1601 136.02 58.4301 133.8 59.1501C133.64 59.2001 133.56 58.9601 133.72 58.9101C135.28 58.3701 137.16 58.3601 138.61 59.2301C138.79 59.3401 138.83 59.6801 138.57 59.7301C135.82 60.2801 132.77 60.8001 130.56 62.6601C130.52 62.5801 130.48 62.5001 130.45 62.4201C132.24 61.9101 133.63 60.8901 135.57 61.1001C135.73 61.1101 135.8 61.3501 135.69 61.4601C134.86 62.3001 133.67 62.5701 132.87 63.4401C131.98 64.4101 131.42 65.6301 130.44 66.5301C128.73 68.0701 126.24 68.4401 124.05 67.9601C124.08 67.8701 124.11 67.7701 124.14 67.6901C125.52 68.4301 127.07 67.6301 128.52 68.1601C128.67 68.2201 128.68 68.4301 128.59 68.5401C125.88 71.7801 121.78 71.8301 117.88 71.4101C117.92 71.3301 117.96 71.2401 118 71.1601C119.37 72.1901 121.21 71.4501 122.7 72.2201C122.89 72.3301 122.85 72.5801 122.67 72.6601C119.13 74.2101 115.52 75.0101 111.77 73.7701C111.83 73.6701 111.9 73.5601 111.97 73.4601C112.68 74.3701 113.46 75.0601 114.67 75.1001C114.92 75.1001 115.03 75.4901 114.76 75.5601C112.79 76.1101 111.13 77.2701 109.04 77.4101C107.38 77.5101 105.69 77.0201 104.43 75.9401C104.51 75.8701 104.58 75.8101 104.65 75.7401C105.35 76.8401 106.31 76.9701 107.53 76.9201C107.76 76.9201 107.82 77.2401 107.6 77.3101C106.11 77.8201 104.55 78.0001 103 77.6801C101.37 77.3401 99.9001 76.4101 98.2901 75.9801C98.3701 75.8501 98.4601 75.7201 98.5501 75.5901C99.2501 76.5001 99.8901 78.7101 101.33 78.4701C101.33 78.6601 101.35 78.8401 101.36 79.0301C100.15 78.9801 99.0001 78.8501 97.9001 78.3201C96.5301 77.6701 95.4501 76.5501 94.3901 75.5101C93.2501 74.4101 91.8401 73.6501 90.2901 73.3401C89.5301 73.1901 88.9501 73.1301 88.2401 73.5101C87.4901 73.9201 86.6301 74.8501 87.0601 75.7601C87.0601 75.7601 87.0401 75.7701 87.0401 75.7601Z" fill="#824916"/>
<path d="M96.29 30.19C95.42 30.15 94.8 31.96 94.83 32.62C94.89 33.99 98.07 32.22 98.37 32.01C99.25 31.41 99.97 30.56 100.79 29.88C101.65 29.16 102.64 28.59 103.64 28.11C107.73 26.16 112.42 26 115.99 29.17C116.06 29.24 116.03 29.35 115.94 29.39C114.15 30.12 113.74 32.91 111.39 32.33C111.23 32.29 111.23 32.08 111.38 32.03C114.45 30.76 118.3 31.3 120.93 33.32C121.12 33.46 121 33.83 120.76 33.81C119.63 33.74 118.36 34.13 117.48 34.83C117.42 34.88 117.33 34.78 117.38 34.72C118.2 33.88 119.6 33.14 120.81 33.25C120.72 33.42 120.64 33.58 120.56 33.74C118.1 31.73 114.42 31.14 111.47 32.32C111.47 32.22 111.46 32.12 111.45 32.01C113.16 32.45 113.95 30.76 114.95 29.73C115.11 29.57 115.28 29.44 115.47 29.31C115.75 29.12 115.67 29.2 115.35 28.94C114.53 28.25 113.52 27.84 112.51 27.51C109.05 26.41 105.3 27.72 102.36 29.58C101.03 30.43 100.02 31.63 98.74 32.54C97.79 33.21 96.28 33.91 95.11 33.57C93.32 33.06 94.97 30.05 96.3 30.15C96.3 30.15 96.31 30.17 96.3 30.17L96.29 30.19Z" fill="#824916"/>
<path d="M117.44 34.7599C118.28 34.4799 119.08 34.2599 119.96 34.2199C120.92 34.1799 121.82 34.4399 122.74 34.6199C124.33 34.9299 126.42 35.3299 127.56 36.5899C127.67 36.7099 127.66 36.9299 127.48 36.9799C126.85 37.1599 126.21 37.2899 125.59 37.5099C124.83 37.7699 124.23 38.4599 123.64 38.9899C123.58 38.9199 123.53 38.8499 123.46 38.7799C124.43 38.1399 125.6 37.8899 126.74 38.0699C127.61 38.2099 128.45 38.6199 129.29 38.8799C130.12 39.1299 130.91 39.4099 131.68 39.7999C132.09 40.0099 131.78 40.5999 131.37 40.4199C130.46 40.0399 129.45 40.3599 128.78 41.0099C128.43 41.3499 128.13 41.6499 127.64 41.7499C127.39 41.7999 127.26 41.4499 127.51 41.3699C128.31 41.1099 128.71 40.1599 129.53 39.8199C130.22 39.5399 131 39.5399 131.68 39.7899C131.58 39.9999 131.48 40.1999 131.37 40.4099C130.09 39.8299 128.75 39.4199 127.45 38.8899C126.76 38.6099 126.14 38.4499 125.38 38.5099C124.75 38.5699 124.19 38.8699 123.58 39.0199C123.4 39.0599 123.33 38.8399 123.49 38.7599C124.12 38.4599 124.52 37.7299 125.12 37.3299C125.77 36.8999 126.61 36.7699 127.33 36.5299C127.3 36.6599 127.28 36.7899 127.25 36.9199C126.15 35.7899 124.37 35.3899 122.88 35.0399C120.99 34.6099 119.36 34.1799 117.44 34.7599C117.42 34.7599 117.42 34.7399 117.44 34.7399V34.7599Z" fill="#824916"/>
<path d="M127.57 41.5798C128.66 42.1498 130.23 40.8698 131.43 41.0698C133.31 41.3898 135.05 42.3998 136.74 43.2198C136.94 43.3298 136.91 43.6098 136.7 43.6898C135.6 44.1098 134.32 45.1898 133.09 44.7098C132.89 44.6298 132.85 44.2798 133.05 44.1798C135.3 43.0498 138.18 45.3498 139.86 46.6298C141.01 47.5098 142.1 48.4798 142.93 49.6698C143.53 50.5298 143.87 51.4998 144.35 52.4298C144.8 53.2898 145.57 53.9298 145.95 54.8398C146.07 55.1398 145.6 55.2798 145.48 54.9898C145.17 54.2398 144.58 53.6398 144.12 52.9798C143.6 52.2398 143.34 51.3198 142.9 50.5298C142.21 49.2698 141.18 48.3198 140.09 47.4198C138.62 46.1898 135.46 43.5498 133.4 44.7098C133.36 44.5198 133.33 44.3398 133.29 44.1498C134.34 44.5198 135.57 43.5698 136.54 43.2298C136.53 43.3798 136.52 43.5398 136.51 43.6998C134.85 42.8298 132.9 41.4898 130.97 41.4098C129.89 41.3598 128.58 42.0898 127.55 41.6198C127.54 41.6098 127.55 41.5898 127.56 41.5998L127.57 41.5798Z" fill="#824916"/>
<path d="M74.1301 12.4499C74.1301 12.4499 74.1001 12.4799 74.1001 12.4599C74.1001 12.4399 74.1301 12.4299 74.1301 12.4499Z" fill="#824916"/>
<path d="M74.17 12.3599C74.51 12.5099 74.66 12.7599 74.83 13.0799C75.34 14.0599 76.57 13.0299 77 12.4999C77.95 11.3099 78.28 9.63991 79.11 8.35991C80.9 5.59991 83.72 3.47991 86.92 2.66991C87 2.64991 87.08 2.70991 87.06 2.78991C86.62 4.31991 86.7 5.97991 85.87 7.38991C85.79 7.51991 85.56 7.45991 85.6 7.29991C86.05 5.36991 87.72 4.16991 89.42 3.36991C90.46 2.88991 91.59 2.50991 92.68 2.11991C93.67 1.75991 94.73 1.51991 95.77 1.76991C95.97 1.80991 96.02 2.03991 95.91 2.18991C95.27 3.09991 94.91 4.13991 94.49 5.15991C94.38 5.41991 94 5.21991 94.1 4.96991C95.27 1.89991 99.35 2.87991 101.33 0.779912C101.48 0.609912 101.8 0.689912 101.81 0.949912C101.81 2.10991 101.14 2.94991 100.67 3.96991C100.6 3.87991 100.51 3.78991 100.43 3.68991C101.25 3.40991 102.06 3.12991 102.88 2.84991C103.82 2.52991 104.84 2.56991 105.8 2.28991C107.11 1.89991 107.78 0.339912 109.1 0.019912C109.45 -0.060088 109.64 0.469912 109.28 0.559912C108.71 0.729912 108.22 1.24991 107.78 1.61991C107.22 2.08991 106.65 2.51991 105.97 2.78991C105.18 3.09991 104.18 3.00991 103.37 3.18991C102.43 3.38991 101.49 3.77991 100.56 4.06991C100.38 4.11991 100.26 3.94991 100.32 3.77991C100.7 2.84991 101.3 2.00991 101.27 0.959912C101.43 1.01991 101.59 1.06991 101.75 1.11991C99.86 3.07991 95.52 2.26991 94.53 5.09991C94.39 5.04991 94.26 4.99991 94.12 4.95991C94.53 3.89991 94.88 2.83991 95.51 1.88991C95.57 2.00991 95.62 2.13991 95.69 2.25991C93.87 1.78991 91.93 2.90991 90.26 3.45991C88.39 4.07991 86.41 5.32991 85.9 7.33991C85.81 7.30991 85.72 7.27991 85.63 7.24991C86.25 6.25991 86.39 5.13991 86.58 4.01991C86.66 3.58991 87.08 2.81991 86.39 3.04991C85.68 3.26991 85.01 3.58991 84.36 3.94991C82.21 5.12991 80.57 7.07991 79.4 9.19991C78.56 10.7199 78.2 12.6199 76.75 13.7099C76.24 14.0899 75.42 14.2999 74.86 13.9699C74.33 13.6599 74.48 12.9199 74.07 12.5199C73.97 12.4299 74.07 12.2799 74.2 12.3399L74.17 12.3599Z" fill="#824916"/>
<path d="M109.28 0.130143C108.03 0.890143 108.28 2.81014 108.01 4.05014C107.64 5.74014 106.88 7.31014 106.03 8.81014C105.89 8.72014 105.75 8.62014 105.61 8.52014C106.37 7.59014 107.41 7.29014 108.51 6.93014C108.77 6.85014 109 7.18014 108.81 7.38014C108.4 7.80014 108.53 8.47014 108.41 9.00014C108.25 9.68014 108.05 10.3401 107.77 10.9701C107.29 12.0001 106.6 13.0401 105.69 13.7301C105.61 13.5701 105.54 13.4001 105.46 13.2401C106.19 13.0201 109 12.9501 109.15 12.0501C109.3 12.0801 109.44 12.1101 109.59 12.1401C109.13 13.4901 108.99 14.7301 108.1 15.9101C107.04 17.3301 105.6 18.2901 104.25 19.3901C104.22 19.2901 104.18 19.1901 104.15 19.0901C105.3 19.0201 107.86 19.1601 108.02 17.5801C108.12 17.6401 108.23 17.6901 108.33 17.7501C107.69 18.3401 107.55 19.3101 107.29 20.1201C107.01 20.9601 106.48 21.7501 105.95 22.4601C104.75 24.0901 102.83 24.9201 101.09 25.8101C101.04 25.6601 100.99 25.5101 100.94 25.3501C101.91 25.3301 102.87 25.3901 103.8 25.1301C104.04 25.0701 104.24 25.4101 104.01 25.5401C102.98 26.1401 102.68 27.4501 101.73 28.1601C100.77 28.8801 99.3901 28.9401 98.2801 29.3601C97.1301 29.8101 94.2401 31.2101 95.1301 32.8101C95.3901 33.2801 94.7101 33.7401 94.4401 33.2701C93.3801 31.4101 95.2101 30.0801 96.7301 29.3701C97.7301 28.9001 98.7601 28.6201 99.8301 28.3801C101 28.1201 101.8 27.6301 102.43 26.6201C102.8 26.0501 103.15 25.5101 103.75 25.1601C103.82 25.3001 103.88 25.4301 103.95 25.5701C102.97 25.8501 101.98 25.8201 100.97 25.8501C100.73 25.8501 100.59 25.5201 100.82 25.3901C102.68 24.4101 104.56 23.6201 105.9 21.9201C106.58 21.0501 106.96 20.1201 107.25 19.0701C107.41 18.4901 107.6 17.9101 108.05 17.5101C108.19 17.3801 108.39 17.4701 108.37 17.6701C108.17 19.4801 105.46 19.3201 104.16 19.4101C103.98 19.4301 103.94 19.2101 104.06 19.1101C105.22 18.1401 106.44 17.2801 107.43 16.1101C107.88 15.5701 108.27 15.0101 108.53 14.3501C108.84 13.6001 108.91 12.8001 109.14 12.0301C109.23 11.7501 109.62 11.8301 109.58 12.1201C109.4 13.4101 106.56 13.4601 105.62 13.7401C105.31 13.8301 105.14 13.4401 105.38 13.2501C106.53 12.3701 107.3 10.8801 107.69 9.52014C107.93 8.67014 107.72 7.64014 108.38 6.99014C108.48 7.14014 108.58 7.29014 108.68 7.44014C107.67 7.76014 106.69 8.00014 105.98 8.84014C105.79 9.05014 105.41 8.81014 105.56 8.55014C106.57 6.82014 107.34 5.05014 107.75 3.09014C107.97 2.03014 108.14 0.590143 109.23 0.050143C109.26 0.040143 109.28 0.090143 109.26 0.100143L109.28 0.130143Z" fill="#824916"/>
<path d="M73.1101 3.37992C68.9801 4.87992 65.1201 8.68992 63.9201 12.9599C63.8501 13.1999 63.5101 13.2399 63.4201 12.9899C63.1201 12.1299 62.7401 11.3099 62.5701 10.4099C62.3901 9.48992 62.8801 8.61992 62.5301 7.69992C62.6301 7.74992 62.7501 7.80992 62.8601 7.85992C61.4501 8.42992 60.9301 10.4099 60.4601 11.7099C59.8101 13.4699 58.9601 15.1999 58.4901 17.0099C58.4501 17.1699 58.2801 17.2099 58.1601 17.1199C57.0601 16.2899 55.6201 15.2099 56.2201 13.6699C56.3201 13.7199 56.4201 13.7699 56.5101 13.8199C55.9801 14.6699 55.4601 15.4699 55.2801 16.4699C55.1801 17.0199 55.3701 17.6899 55.4101 18.2599C55.4501 18.7099 55.3801 19.1499 55.2901 19.5899C54.9101 21.4199 53.2301 23.7499 54.8701 25.4099C55.0501 25.5899 54.9001 25.8699 54.6601 25.8299C53.5701 25.6699 52.7601 25.0199 51.9201 24.3599C52.0601 24.2899 52.2001 24.2199 52.3401 24.1599C52.4501 26.8499 51.8101 30.3699 54.4701 32.0599C54.6801 32.1899 54.6701 32.4699 54.4401 32.5499C53.7301 32.8399 53.1801 33.3699 52.5001 33.7199C51.7301 34.1199 50.9601 33.8099 50.4001 34.6599C49.3201 36.3599 50.9001 38.3299 52.6601 38.5099C52.9101 38.5299 52.8701 38.8799 52.6901 38.9499C51.7901 39.3399 51.3401 40.2499 50.4801 40.6999C50.1901 40.8499 49.9101 40.4499 50.1901 40.2699C51.0401 39.7199 51.5701 38.8699 52.5401 38.4999C52.5501 38.6599 52.5601 38.7999 52.5701 38.9499C51.0201 38.7199 49.2901 37.2399 49.5901 35.5099C49.7501 34.6499 50.1501 33.8499 51.0001 33.5499C51.5901 33.3399 52.1401 33.3499 52.7101 32.9799C53.2301 32.6399 53.6701 32.2499 54.2501 32.0099C54.2401 32.1699 54.2201 32.3399 54.2101 32.5099C51.3201 30.7099 51.9301 27.0699 51.8201 24.1599C51.8201 23.9299 52.0701 23.8199 52.2401 23.9599C53.0101 24.5799 53.7401 25.1799 54.7401 25.3299C54.6701 25.4699 54.6001 25.6099 54.5201 25.7499C53.0601 24.2599 53.9001 22.1999 54.5201 20.4999C54.8001 19.7599 55.0001 19.0499 54.9901 18.2499C54.9901 17.7299 54.8001 17.1799 54.8501 16.6699C54.9601 15.5099 55.5701 14.5899 56.1801 13.6299C56.2901 13.4499 56.5601 13.5699 56.4701 13.7799C55.9101 15.1699 57.4401 16.1099 58.3901 16.7799C58.2801 16.8199 58.1701 16.8499 58.0601 16.8899C58.5101 14.9499 59.4201 13.0899 60.0901 11.2099C60.5801 9.80992 61.1601 7.94992 62.6701 7.31992C62.8101 7.26992 62.9501 7.36992 63.0001 7.48992C63.2701 8.17992 63.1601 8.83992 63.0601 9.53992C62.9001 10.6599 63.5301 11.7499 63.8901 12.7699C63.7301 12.7699 63.5501 12.7799 63.4001 12.7899C64.6401 8.36992 68.6401 4.41992 72.9901 2.98992C73.2001 2.91992 73.3101 3.23992 73.1001 3.31992L73.1101 3.37992Z" fill="#824916"/>
<path d="M73.24 3.13006C71.47 5.45006 71.33 8.67006 72.33 11.3301C72.16 11.3201 71.98 11.3101 71.8 11.2901C72.36 10.1601 73.53 9.88006 74.42 9.08006C74.54 9.23006 74.68 9.37006 74.81 9.52006C74.1 10.0701 74.31 11.4201 74.53 12.1501C74.64 12.5401 74.82 12.9101 75.12 13.1901C75.39 13.4501 75.86 13.3001 76.18 13.2801C76.34 13.2701 76.43 13.4401 76.37 13.5701C75.69 15.0601 74.29 13.6201 73.98 12.7001C73.61 11.6401 73.49 9.79006 74.49 9.02006C74.75 8.82006 75.13 9.24006 74.87 9.46006C74.05 10.2001 72.84 10.5101 72.32 11.5401C72.21 11.7701 71.87 11.7301 71.79 11.5001C70.73 8.63006 70.89 5.26006 73.05 2.95006C73.16 2.83006 73.34 2.99006 73.24 3.12006V3.13006Z" fill="#824916"/>
<path d="M63.76 49.7501C66.64 50.9901 69.67 51.9601 72.66 52.9401C75.24 53.7801 78.19 53.7501 80.88 54.0601C84.06 54.4301 87.26 53.9301 90.42 53.6901C93.7 53.4401 96.95 53.3201 100.21 52.8001C106.57 51.7901 112.71 49.3901 119.19 49.1401C120.73 49.0801 122.25 48.8601 123.77 48.7301C125.36 48.6001 126.96 48.6501 128.55 48.5901C131.4 48.4901 134.21 48.3701 137.04 48.8301C138.8 49.1201 140.43 49.7001 141.9 50.7301C143.3 51.7101 144.43 53.0701 145.55 54.3601C145.67 54.4901 145.43 54.6501 145.31 54.5201C143.81 52.8001 142.29 51.0401 140.19 50.0301C137.45 48.7101 134.05 48.6801 131.08 48.7601C124.86 48.9101 118.59 49.3201 112.46 50.4101C109.15 51.0001 105.91 52.0301 102.6 52.6601C99.48 53.2601 96.34 53.5801 93.18 53.7701C90.04 53.9701 86.91 54.3901 83.76 54.4701C81.02 54.5401 78.21 54.1001 75.49 53.8101C73.4 53.5901 71.53 52.8701 69.55 52.2101C67.56 51.5401 65.59 50.8101 63.69 49.9101C63.59 49.8601 63.68 49.7101 63.77 49.7601L63.76 49.7501Z" fill="#824916"/>
<path d="M62.67 49.7001C64.87 51.2301 67.54 52.2501 69.99 53.2901C72.64 54.4101 75.32 54.9701 78.18 55.2401C84.61 55.8401 91.17 55.7501 97.4 53.9901C98.77 53.6001 100.1 53.2201 101.5 53.0101C103.13 52.7801 104.77 52.7201 106.4 52.6101C109.7 52.3901 112.83 51.3901 116.01 50.5401C118.87 49.7801 121.74 49.5501 124.67 49.2701C127.56 48.9901 130.45 48.7701 133.35 48.7801C135.09 48.7801 136.82 48.9301 138.52 49.2601C138.57 49.2601 138.55 49.3301 138.52 49.3201C132.79 48.2301 126.93 49.3701 121.21 49.9701C117.97 50.3101 114.89 51.2801 111.75 52.0801C108.74 52.8501 105.74 52.9301 102.67 53.2101C99.5 53.5001 96.57 54.7201 93.44 55.2701C90.37 55.8101 87.22 55.8601 84.1 55.7801C81.21 55.7101 78.31 55.6001 75.45 55.1501C72.87 54.7401 70.53 53.7801 68.16 52.7201C66.24 51.8501 64.43 50.8701 62.67 49.7001C62.67 49.7001 62.67 49.6801 62.67 49.6901V49.7001Z" fill="#824916"/>
<path d="M80.43 54.0201C82.11 53.9701 83.72 53.8401 85.21 53.0201C86.63 52.2401 87.86 50.8901 89.04 49.7801C91.25 47.6901 93.63 46.1301 96.3 44.6801C98.9701 43.2301 101.33 41.3301 104.07 40.0001C106.81 38.6701 109.78 37.7801 112.83 37.5901C113.02 37.5801 113.03 37.8601 112.85 37.8801C109.71 38.0801 106.68 39.0801 103.86 40.4301C100.93 41.8301 98.25 43.8201 95.52 45.5601C94.2 46.4001 92.85 47.2701 91.7 48.3401C90.57 49.3901 89.48 50.4901 88.33 51.5301C87.27 52.4901 86.2 53.4201 84.85 53.9301C83.49 54.4401 81.85 54.1601 80.44 54.0601C80.42 54.0601 80.42 54.0301 80.44 54.0201H80.43Z" fill="#824916"/>
<path d="M98.6802 53.1198C101.07 52.7498 103.18 52.0298 105.16 50.6498C107.44 49.0798 108.89 46.8098 110.85 44.9298C113.66 42.1998 118.04 38.9998 122.21 40.0198C122.26 40.0298 122.25 40.1198 122.2 40.1098C119.69 39.5298 117.26 40.6698 115.2 42.0098C113.2 43.3198 111.45 44.9998 109.94 46.8498C108.4 48.7398 106.88 50.3498 104.75 51.5598C102.87 52.6198 100.83 53.0398 98.6902 53.1698C98.6502 53.1698 98.6502 53.1198 98.6902 53.1098L98.6802 53.1198Z" fill="#824916"/>
<path d="M116.88 49.5398C118.12 49.0398 119.39 48.5698 120.58 47.9498C121.63 47.3998 122.58 46.6498 123.59 46.0098C125.55 44.7698 127.77 43.8098 130.1 43.5698C130.15 43.5698 130.16 43.6398 130.1 43.6498C127.59 44.1098 125.5 45.5998 123.43 47.0198C121.39 48.4098 119.27 48.9698 116.9 49.5698C116.88 49.5698 116.87 49.5498 116.89 49.5398H116.88Z" fill="#824916"/>
<path d="M82.29 55.6598C83.54 55.9598 84.69 56.2298 85.81 56.8798C87.07 57.6198 88.11 58.7298 89.15 59.7298C91.55 62.0598 93.88 64.4098 96.18 66.8398C98.36 69.1398 101.2 70.7998 104.1 72.0398C105.19 72.4998 106.23 72.9898 107.4 73.1998C108.54 73.4098 109.66 73.1998 110.79 73.3298C110.89 73.3398 110.9 73.4998 110.79 73.5198C108.8 73.9598 106.66 73.4298 104.83 72.6298C102.13 71.4598 99.28 70.1598 97.08 68.1598C94.52 65.8298 91.97 63.4898 89.43 61.1498C88.25 60.0598 87.19 58.8298 85.98 57.7698C85.3 57.1698 84.48 56.6698 83.6 56.4098C83.09 56.2598 82.61 56.1598 82.24 55.7598C82.2 55.7198 82.23 55.6398 82.29 55.6498V55.6598Z" fill="#824916"/>
<path d="M94.67 54.9298C96.95 54.0898 99.88 53.0398 102.28 53.9098C105.54 55.0898 107.47 58.3698 110.09 60.4598C112.97 62.7698 116.43 64.2498 119.95 65.2998C123.19 66.2498 126.49 66.7198 129.83 66.0898C129.93 66.0698 129.94 66.2298 129.86 66.2598C128.55 66.8198 126.97 66.7298 125.58 66.6398C124.11 66.5398 122.63 66.2698 121.2 65.9198C117.88 65.0998 114.8 63.7698 111.82 62.0998C110.44 61.3298 109.08 60.4198 107.91 59.3498C106.61 58.1598 105.4 56.8698 104.04 55.7398C102.87 54.7598 101.37 53.9598 99.81 54.0698C98.08 54.1898 96.34 54.5098 94.67 54.9798C94.66 54.9798 94.65 54.9598 94.67 54.9498V54.9298Z" fill="#824916"/>
<path d="M112.73 51.5998C114.96 50.9598 117.32 50.4398 119.66 50.5598C121.83 50.6798 123.65 51.9198 125.5 52.9398C127.57 54.0798 129.81 54.9998 132.07 55.6698C133.3 56.0398 134.56 56.2898 135.84 56.3798C137.08 56.4698 138.2 56.2198 139.4 55.9898C139.47 55.9798 139.51 56.0898 139.45 56.1298C137.73 57.0098 135.42 56.7098 133.61 56.3598C131.44 55.9398 129.35 55.1198 127.34 54.2098C125.16 53.2098 123.09 51.5498 120.73 51.0298C118.19 50.4598 115.23 51.0598 112.76 51.6598C112.72 51.6698 112.71 51.6198 112.74 51.6098L112.73 51.5998Z" fill="#824916"/>
<path d="M63.9901 50.1698C63.9901 50.1698 63.9801 50.1898 63.9701 50.1698C63.9701 50.1598 63.9801 50.1498 63.9901 50.1698Z" fill="#824916"/>
<path d="M64.0201 49.8599C66.9201 49.8299 69.9101 49.6399 72.5901 48.4399C75.3501 47.1999 77.4601 44.7499 79.3301 42.4399C81.0801 40.2699 82.5601 37.9099 84.1601 35.6299C85.9301 33.1099 87.5801 30.5199 89.1801 27.8899C92.1301 23.0599 94.6001 17.9199 97.7501 13.2199C99.2901 10.9299 101.2 8.94994 103.07 6.92994C104.08 5.83994 105.07 4.71994 105.98 3.54994C106.78 2.50994 107.77 1.58994 108.44 0.459937C108.5 0.349937 108.68 0.429937 108.62 0.549937C108.06 1.52994 107.26 2.31994 106.56 3.18994C105.64 4.32994 104.76 5.47994 103.78 6.56994C101.72 8.89994 99.6001 11.1099 97.8801 13.6999C96.2601 16.1199 94.9101 18.6999 93.5001 21.2499C92.0501 23.8899 90.5001 26.4799 88.9201 29.0499C87.3201 31.6699 85.5701 34.1999 83.8601 36.7599C82.3001 39.0799 80.7301 41.3999 78.9401 43.5399C77.1901 45.6499 75.2301 47.6399 72.7101 48.7799C69.9801 50.0099 66.9601 49.9699 64.0301 49.8799C64.0201 49.8799 64.0101 49.8599 64.0301 49.8599H64.0201Z" fill="#824916"/>
<path d="M64.5801 48.9599C66.0401 48.6599 67.5301 48.6299 69.0101 48.4299C71.0101 48.1699 72.6001 47.1799 74.2201 46.0399C75.7901 44.9299 77.3401 43.7099 78.6401 42.2899C80.0201 40.7799 81.1401 39.0399 82.1901 37.2999C83.1601 35.7099 84.0601 34.0899 85.1001 32.5399C86.1401 30.9999 87.3001 29.5399 88.3001 27.9799C90.1701 25.0399 91.3101 21.7099 93.3601 18.8699C93.4001 18.8199 93.4901 18.8799 93.4501 18.9299C91.4001 22.0299 90.3101 25.6399 88.2501 28.7299C87.1501 30.3999 85.9201 31.9799 84.8301 33.6499C83.7501 35.2999 82.8301 37.0399 81.7801 38.7099C80.8001 40.2599 79.7201 41.7299 78.4501 43.0699C77.2001 44.3999 75.6401 45.5299 74.1501 46.5899C72.7601 47.5699 71.3601 48.4399 69.6601 48.7099C67.9901 48.9799 66.2701 48.6699 64.5901 48.9799C64.5801 48.9799 64.5801 48.9599 64.5901 48.9599H64.5801Z" fill="#824916"/>
<path d="M78.77 43.41C80.37 41.31 83.54 40.79 85.86 39.97C89.19 38.8 91.34 35.88 93.76 33.5C93.85 33.41 94 33.54 93.91 33.64C91.81 35.8 89.98 38.22 87.41 39.86C86.02 40.74 84.49 41.17 82.94 41.67C82.29 41.88 81.68 42.2 81.01 42.37C80.21 42.58 79.37 42.81 78.79 43.44C78.78 43.44 78.77 43.44 78.77 43.42V43.41Z" fill="#824916"/>
<path d="M88.9901 28.56C90.4201 25.36 92.8901 23.83 96.2001 23.03C100.1 22.09 102.92 19.81 104.64 16.17C104.68 16.09 104.84 16.13 104.8 16.23C103.69 19.44 101.11 22.22 97.8501 23.27C96.4501 23.72 95.0001 23.96 93.6001 24.44C91.5601 25.15 89.9401 26.62 89.0001 28.57C89.0001 28.58 88.9801 28.57 88.9901 28.57V28.56Z" fill="#824916"/>
<path d="M71.9701 47.7099C73.0601 46.8499 73.9701 45.6699 74.6001 44.4299C75.2601 43.1499 75.1301 41.5599 75.6201 40.2099C76.6901 37.2499 78.3501 34.5399 79.4101 31.5799C79.4301 31.5299 79.5001 31.5599 79.4901 31.6099C78.7001 34.8699 76.8301 37.7499 76.0701 41.0099C75.7301 42.4599 75.6601 43.8999 74.8401 45.1899C74.1701 46.2499 73.0701 47.1399 71.9801 47.7499C71.9601 47.7499 71.9501 47.7299 71.9601 47.7199L71.9701 47.7099Z" fill="#824916"/>
<path d="M83.92 34.8098C85.69 30.4998 84.56 25.6698 84.76 21.1698C84.88 18.5298 84.95 15.8898 85.57 13.2998C85.86 12.0898 86.64 10.8698 87.27 9.79977C87.76 8.95977 88.01 7.89977 88.87 7.33977C88.95 7.28977 89.05 7.39977 88.98 7.46977C88.14 8.27977 87.72 9.45977 87.19 10.4898C86.54 11.7798 85.93 12.9698 85.66 14.4098C85.17 17.0698 85.2 19.8498 85.3 22.5398C85.46 26.6898 86.46 31.1698 83.99 34.8498C83.96 34.8898 83.89 34.8598 83.91 34.8198L83.92 34.8098Z" fill="#824916"/>
<path d="M91.46 22.4499C91.89 21.3799 92.53 20.3999 93.03 19.3699C93.33 18.7599 93.56 18.1199 93.7 17.4599C93.87 16.6299 93.65 15.6899 93.7 14.8299C93.86 11.6799 94.4501 8.79995 96.3701 6.21995C96.3901 6.18995 96.44 6.21995 96.42 6.24995C94.52 9.24995 94.16 12.7699 94.18 16.2499C94.21 18.7199 92.4901 20.3799 91.4801 22.4899C91.4801 22.4999 91.45 22.4899 91.46 22.4699V22.4499Z" fill="#824916"/>
<path d="M72.73 3.05006C69.83 6.45006 68.02 10.6601 67.35 15.0601C67 17.3101 67 19.6701 67.51 21.9001C68.03 24.2101 68.78 26.4801 69.33 28.7901C70.33 33.0501 70.96 37.4601 69.62 41.7201C68.63 44.8501 67.14 48.6101 63.59 49.4901C63.34 49.5501 63.21 49.1701 63.47 49.1101C67.3 48.1901 69.3 43.3301 69.73 39.8001C70.31 34.9501 68.95 30.2301 67.9 25.5501C66.98 21.4601 66.53 17.5801 67.45 13.4501C68.29 9.62006 70.13 5.98006 72.73 3.04006C72.74 3.03006 72.76 3.04006 72.75 3.06006L72.73 3.05006Z" fill="#824916"/>
<path d="M67.4701 14.8099C66.9901 18.3399 68.5301 22.0499 69.3801 25.4299C70.1301 28.4099 70.7801 31.4399 71.0501 34.4899C71.2901 37.3299 71.0101 40.1899 69.9501 42.8499C69.4701 44.0799 68.8301 45.2799 68.2001 46.4399C67.7501 47.2699 67.2301 48.2799 66.4401 48.8299C66.3301 48.8999 66.2201 48.7399 66.3201 48.6599C67.2101 47.9399 67.7501 46.7999 68.2701 45.8099C68.8501 44.7099 69.4001 43.5799 69.8601 42.4199C71.0101 39.4999 71.0101 36.2799 70.6601 33.1999C70.2901 29.9799 69.5101 26.7999 68.7001 23.6599C67.9601 20.8299 66.9701 17.7299 67.4401 14.7799C67.4401 14.7599 67.4701 14.7799 67.4701 14.7799V14.8099Z" fill="#824916"/>
<path d="M57.21 28.3697C56.48 32.1097 60.88 35.0397 63.7 36.5097C65.17 37.2697 66.49 37.9797 67.53 39.3297C68.79 40.9497 68.82 42.9697 68.39 44.9097C68.37 45.0297 68.17 45.0497 68.14 44.9197C67.89 43.8797 68.12 42.8397 68.01 41.7797C67.89 40.5697 67.04 39.3697 66.22 38.5297C65.02 37.3197 63.28 36.7097 61.87 35.7597C59.55 34.1997 56.47 31.4997 57.18 28.3497C57.18 28.3297 57.2 28.3497 57.21 28.3497V28.3697Z" fill="#824916"/>
<path d="M59.7701 18.7801C60.4601 21.9101 62.3101 24.0201 64.8501 25.8601C66.0601 26.7301 67.0901 27.6601 68.0101 28.8401C68.8401 29.9201 69.8301 31.3801 69.9501 32.7701C69.9501 32.9001 69.7801 32.9501 69.7101 32.8501C68.8601 31.5501 68.3401 30.1101 67.3701 28.8601C66.3101 27.4901 64.8801 26.5401 63.5701 25.4201C61.5101 23.6501 60.1701 21.4901 59.7201 18.7901C59.7101 18.7601 59.7701 18.7501 59.7701 18.7901V18.7801Z" fill="#824916"/>
<path d="M79.6701 12.3399C79.3501 15.2499 77.6301 18.1299 75.2601 19.8299C73.9901 20.7499 72.6901 21.5199 71.6801 22.7599C70.6001 24.0999 70.3201 25.7199 69.9401 27.3399C69.9001 27.4999 69.6801 27.4699 69.6601 27.3199C69.2801 24.6399 71.1101 22.1999 73.1901 20.7299C74.7001 19.6599 76.2501 18.9199 77.3701 17.3699C78.4701 15.8399 79.3601 14.2299 79.6401 12.3499C79.6401 12.3299 79.6701 12.3399 79.6701 12.3499V12.3399Z" fill="#824916"/>
<path d="M81.29 22.43C80.93 23.86 80.15 25.06 79.1 26.09C78.06 27.11 76.75 27.78 75.62 28.69C74.71 29.42 73.88 30.19 73.15 31.11C72.63 31.77 72.25 32.51 71.92 33.29C71.57 34.12 71.57 35.19 71.1 35.94C71.04 36.03 70.89 36.04 70.86 35.93C70.47 34.65 71.5 32.7 72.15 31.61C72.77 30.58 73.6 29.73 74.51 28.97C76.97 26.91 80.13 25.71 81.26 22.43C81.26 22.41 81.29 22.42 81.28 22.43H81.29Z" fill="#824916"/>
<path d="M63.3001 49.4301C62.7001 49.6101 62.2601 50.1801 61.9301 50.6801C61.7501 50.9401 61.6401 51.2301 61.5701 51.5401C61.5101 51.8601 61.6601 52.0701 61.7801 52.3301C61.8201 52.4101 61.7101 52.4901 61.6401 52.4501C61.0201 52.0901 61.3701 51.1301 61.6301 50.6601C61.9701 50.0701 62.5901 49.4801 63.2901 49.3701C63.3201 49.3701 63.3201 49.4201 63.2901 49.4301H63.3001Z" fill="#824916"/>
<path d="M61.92 50.4199C63.53 51.7099 64.99 53.0999 66.18 54.7999C67.56 56.7699 68.7301 58.8999 69.8001 61.0499C71.9901 65.4099 73.7701 69.9599 75.8701 74.3699C78.2401 79.3599 81.3001 83.9399 85.4101 87.6799C89.6601 91.5499 94.81 93.3699 100.1 95.3299C103 96.3999 105.91 97.6299 108.37 99.5399C108.52 99.6599 108.33 99.8599 108.17 99.7499C103.67 96.5299 98.33 95.2499 93.29 93.1099C88.23 90.9499 84.08 87.4299 80.7 83.1299C77.64 79.2499 75.59 74.7999 73.56 70.3399C71.46 65.7299 69.42 61.0599 66.76 56.7399C65.42 54.5499 63.88 52.1099 61.91 50.4199C61.89 50.4199 61.91 50.3999 61.92 50.3999V50.4199Z" fill="#824916"/>
<path d="M62.27 50.16C65.03 51.93 66.95 54.58 68.57 57.38C70.56 60.83 72.15 64.51 73.77 68.14C77.34 76.07 81.23 84.46 88.41 89.79C89.75 90.79 91.27 91.45 92.64 92.3899C92.73 92.4599 92.64 92.6199 92.54 92.5899C90.66 92.0599 88.86 90.6699 87.34 89.4599C85.72 88.1699 84.27 86.67 82.95 85.08C80.16 81.73 78.03 77.87 76.12 73.97C72.66 66.9 70.18 59.03 65.12 52.88C64.28 51.86 63.33 50.95 62.27 50.18C62.25 50.17 62.27 50.15 62.29 50.16H62.27Z" fill="#824916"/>
<path d="M69.1701 60.6201C69.5501 61.5701 70.0701 62.5101 70.2101 63.5301C70.3501 64.6201 70.1601 65.7501 69.8701 66.8001C69.2801 69.0201 68.4501 71.1701 67.9601 73.4201C66.9601 77.9501 67.7301 83.0401 69.9901 87.1001C70.0401 87.2001 69.9101 87.2901 69.8501 87.2001C68.7101 85.5701 68.2001 83.5401 67.6901 81.6501C67.1101 79.4801 67.0101 77.2901 67.1501 75.0601C67.3001 72.7601 67.8701 70.5101 68.5001 68.3001C68.8201 67.1701 69.1601 66.0301 69.4301 64.8901C69.8001 63.3801 69.5501 62.1201 69.1401 60.6401C69.1401 60.6401 69.1601 60.6301 69.1601 60.6401L69.1701 60.6201Z" fill="#824916"/>
<path d="M76.16 75.2101C76.88 77.4501 77.1 79.6201 76.91 81.9601C76.8 83.3801 76.54 84.7701 76.39 86.1801C76.24 87.7301 76.18 89.6301 76.59 91.1601C77.05 92.8601 78.03 94.3901 78.58 96.0501C78.61 96.1301 78.47 96.2101 78.43 96.1201C77.66 94.6201 76.9 92.9801 76.39 91.3701C75.91 89.9001 75.93 88.2801 75.86 86.7501C75.79 85.3201 76.08 83.8901 76.17 82.4701C76.32 80.0701 76.18 77.6201 76.08 75.2201C76.08 75.1701 76.15 75.1601 76.17 75.2101H76.16Z" fill="#824916"/>
<path d="M68.03 56.74C70.36 59.98 73.03 62.98 76.67 64.72C78.39 65.54 80.15 66.28 81.81 67.24C83.54 68.24 85.83 69.78 86.2 71.92C86.22 72.04 86.03 72.1 85.96 72C85.33 70.92 84.76 69.98 83.8 69.14C82.75 68.22 81.49 67.56 80.23 66.97C78.77 66.28 77.25 65.71 75.77 65.03C72.13 63.37 69.84 60.19 68 56.75C68 56.73 68.01 56.71 68.02 56.73L68.03 56.74Z" fill="#824916"/>
<path d="M91.0001 84.1098C88.6601 81.2598 85.6401 79.4598 82.2401 78.1398C80.2201 77.3498 77.3601 76.5098 76.4601 74.2898C76.4201 74.1898 76.5601 74.1398 76.6201 74.2198C77.4701 75.2198 78.2501 75.9898 79.4601 76.5798C80.6601 77.1598 81.9801 77.5098 83.2301 77.9498C86.5601 79.1298 89.0801 81.1398 91.0101 84.0898C91.0201 84.0998 91.0101 84.1198 90.9901 84.0998L91.0001 84.1098Z" fill="#824916"/>
<path d="M88.18 90.1198C89.65 90.8098 91.32 90.7098 92.9 90.6798C94.27 90.6598 95.66 90.5098 97.01 90.2198C98.61 89.8898 100.38 89.2898 102.02 89.5798C102.81 89.7098 103.55 90.0998 104.25 90.4598C104.97 90.8298 105.76 91.1698 106.42 91.6398C106.49 91.6898 106.42 91.7998 106.34 91.7898C104.48 91.4998 103.11 89.9498 101.14 89.9398C99.52 89.9198 97.85 90.5798 96.25 90.8498C93.7 91.2598 90.5 91.5398 88.17 90.1498C88.16 90.1498 88.17 90.1198 88.18 90.1298V90.1198Z" fill="#824916"/>
<path d="M86.94 89.1997C89.37 90.4697 90.43 93.0697 91.61 95.3897C92.1 96.3497 92.65 97.3997 93.38 98.1997C94.12 99.0197 95.34 99.4297 96.3 99.8897C96.39 99.9297 96.32 100.06 96.23 100.02C95.32 99.6297 94.35 99.2897 93.52 98.7197C92.78 98.2097 92.29 97.3397 91.81 96.5897C90.26 94.1697 89.43 90.8897 86.91 89.2397C86.89 89.2197 86.91 89.1697 86.94 89.1897V89.1997Z" fill="#824916"/>
<path d="M61.92 50.4199C64.88 53.0999 65.16 56.9399 64.09 60.6399C62.9 64.7399 60.35 67.9699 57.87 71.3499C54.91 75.3699 52.4 79.7399 50.61 84.3999C49.67 86.8399 49.02 89.3399 48.53 91.8999C48.01 94.5999 47.66 97.4399 48.59 100.09C48.66 100.29 48.36 100.38 48.29 100.19C47.53 98.0499 47.61 95.7999 47.91 93.5699C48.24 91.1899 48.77 88.8299 49.5 86.5399C50.94 81.9599 53.18 77.6599 55.82 73.6499C58.17 70.0899 60.91 66.9099 62.63 62.9599C64.35 58.9799 65.12 53.9199 61.91 50.4399C61.9 50.4399 61.91 50.4199 61.92 50.4199Z" fill="#824916"/>
<path d="M63.7501 52.9198C64.3001 54.4798 64.6801 55.9698 64.5201 57.6398C64.3701 59.2498 63.9801 60.8598 63.4501 62.3798C62.0901 66.2498 59.7201 69.8498 57.3101 73.1298C55.9701 74.9598 54.5701 76.7698 53.5501 78.8098C52.5201 80.8698 51.6701 83.0098 50.8701 85.1698C49.3001 89.4198 47.5701 93.9198 48.1601 98.5298C48.1801 98.6598 47.9701 98.6698 47.9601 98.5398C47.2801 94.3798 48.7201 90.3698 50.0501 86.4998C51.4501 82.4198 53.0601 78.4598 55.5501 74.9198C59.9101 68.7398 66.0301 61.0098 63.7101 52.9198C63.7101 52.8998 63.7301 52.8998 63.7401 52.9198H63.7501Z" fill="#824916"/>
<path d="M61.9401 65.6101C59.2301 69.3701 60.7701 74.0201 61.1701 78.2001C61.4001 80.6701 61.2901 83.1901 61.2801 85.6901C61.2801 87.8101 61.0001 89.9601 60.0701 91.8901C60.0501 91.9401 59.9701 91.8901 59.9901 91.8501C61.1201 89.4501 61.1301 86.9001 61.1401 84.3101C61.1401 81.6901 60.7701 79.0901 60.1201 76.5501C59.6201 74.5801 59.3201 72.7601 59.6301 70.7301C59.9201 68.8601 60.6301 67.0001 61.9301 65.6001C61.9401 65.5801 61.9601 65.6001 61.9501 65.6201L61.9401 65.6101Z" fill="#824916"/>
<path d="M55.6001 74.5699C55.1301 75.9299 54.5101 77.2099 54.2601 78.6399C54.0001 80.1699 54.3801 81.9599 54.7401 83.4399C55.4001 86.2199 56.7101 88.8899 56.3601 91.8199C56.3601 91.8999 56.2201 91.8999 56.2201 91.8199C56.3401 88.5999 54.5001 85.7499 53.7201 82.7099C53.3701 81.3099 53.3301 79.9199 53.5501 78.4999C53.7701 77.0999 54.9201 75.7999 55.5701 74.5799C55.5701 74.5599 55.6001 74.5699 55.6001 74.5799V74.5699Z" fill="#824916"/>
<path d="M35.6001 70.4397C36.1601 68.7897 37.8701 67.9797 39.3601 67.3097C41.6201 66.2997 43.9701 65.4297 46.4501 65.2197C49.2701 64.9897 52.0901 65.5497 54.9101 65.6097C57.8301 65.6697 61.3001 64.9197 62.8701 62.1997C62.9401 62.0897 63.1001 62.1697 63.0501 62.2897C61.0701 67.4097 54.0901 66.2697 49.8401 65.7197C46.7401 65.3197 43.9601 65.4997 41.0501 66.6897C39.2401 67.4197 36.1501 68.2697 35.6201 70.4397C35.6201 70.4597 35.5901 70.4397 35.6001 70.4397Z" fill="#824916"/>
<path d="M39.54 83.1698C40.7 82.3798 41.57 81.2598 42.76 80.4698C43.94 79.6898 45.46 79.1998 46.82 78.8198C48.38 78.3698 49.99 78.1898 51.5 77.5498C53.19 76.8298 54.3 75.5698 55.61 74.3398C55.68 74.2798 55.81 74.3498 55.75 74.4398C54.98 75.5998 54.23 76.6898 53.08 77.5098C51.75 78.4398 49.96 78.6498 48.42 78.9698C46.7 79.3198 45.15 79.8498 43.52 80.4898C42.01 81.0898 40.89 82.3098 39.55 83.1898C39.53 83.1898 39.53 83.1798 39.54 83.1698Z" fill="#824916"/>
<path d="M43.0801 90.9898C43.5801 89.3798 44.9201 87.9898 46.1701 86.9098C47.0201 86.1698 47.9901 85.6098 48.8201 84.8598C49.7201 84.0498 50.4401 83.0498 51.2101 82.1298C51.3101 82.0098 51.4701 82.1298 51.4201 82.2698C49.9001 86.2498 44.6701 86.9898 43.1701 91.0398C43.1501 91.0998 43.0401 91.0598 43.0701 90.9998L43.0801 90.9898Z" fill="#824916"/>
</g>
<defs>
<clipPath id="clip0_207_11709">
<rect width="145.98" height="155.48" fill="white"/>
</clipPath>
</defs>
</svg>
