<svg width="290" height="297" viewBox="0 0 290 297" fill="none" xmlns="http://www.w3.org/2000/svg">
<g opacity="0.1">
<path d="M180.405 76.0784C171.303 82.2124 163.216 89.086 156.229 97.5998C149.279 106.076 143.61 115.566 138.945 125.464C128.412 147.801 122.923 172.906 122.363 197.556C122.107 209.208 122.875 220.859 126.431 232.018C129.009 240.115 133.209 247.263 140.415 251.975C143.449 253.957 147.061 255.967 150.777 256.109C153.233 256.204 155.347 255.379 157.556 254.44C161.538 252.743 164.809 251.037 167.454 247.444C169.426 244.77 171.199 240.352 167.985 237.934C164.913 235.63 160.372 237.688 157.632 239.48C154.048 241.831 151.014 245.832 149.801 249.956C147.44 258.005 151.308 266.32 159.462 268.899C167.122 271.326 177.845 267.201 181.201 259.702C182.509 256.782 181.22 254.222 178.139 253.483C174.299 252.573 170.516 256.033 168.639 258.972C166.79 261.864 166.752 265.827 168.156 268.88C169.805 272.435 173.816 274.047 177.504 274.322C181.552 274.634 185.61 273.383 189.032 271.307C190.881 270.169 193.137 267.41 192.976 265.087C192.777 262.271 189.421 262.148 187.297 262.708C184.235 263.523 182.813 266.974 182.993 269.866C183.221 273.497 186.416 276.682 189.487 278.18C193.213 279.982 196.816 278.863 199.935 276.483C199.992 276.445 199.935 276.35 199.869 276.388C197.366 278.029 194.853 278.948 191.857 278.228C189.023 277.536 186.577 275.308 185.107 272.871C183.799 270.69 183.704 267.988 185.145 265.865C185.828 264.869 186.899 264.234 188.065 263.969C188.966 263.769 191.146 263.741 191.383 264.964C191.658 266.405 190.066 268.102 189.174 269.041C187.487 270.814 185.155 271.876 182.87 272.653C177.456 274.483 170.346 273.146 168.307 267.183C166.468 261.769 170.535 255.436 175.939 254.203C178.765 253.559 181.495 255.351 180.945 258.337C180.575 260.337 179.077 262.253 177.551 263.532C169.416 270.321 155.423 270.283 151.223 259.19C149.507 254.649 150.521 249.501 153.1 245.509C155.717 241.49 161.557 236.294 166.781 238.228C169.976 239.432 168.952 243.111 167.824 245.415C166.458 248.211 164.031 250.468 161.424 252.08C160.002 252.961 158.371 253.435 156.854 254.099C155.679 254.611 154.503 255.104 153.242 255.379C149.45 256.213 145.648 254.497 142.406 252.696C138.244 250.392 135.115 247.595 132.622 243.537C127.123 234.588 125.378 223.571 124.136 213.322C121.008 187.487 125.663 160.315 134.887 136.13C142.937 115.035 155.584 95.2675 173.398 81.1222C175.645 79.3398 177.978 77.6048 180.424 76.1163C180.452 76.0973 180.424 76.0594 180.395 76.0879L180.405 76.0784Z" fill="#824916"/>
<path d="M196.504 278.36C197.955 277.63 201.292 276.483 201.596 274.615C201.842 273.032 200.572 272.188 199.102 272.122C197.386 272.046 196.694 273.611 196.817 275.127C196.959 277.014 199.349 277.479 200.837 277.526C205.312 277.678 209.199 277.441 212.442 281.129C214.518 283.489 215.693 288.41 212.024 289.87C210.138 290.61 207.227 289.273 207.341 292.439C207.426 294.582 210.204 296.08 211.787 296.981C211.93 297.066 212.062 296.848 211.939 296.744C211.351 296.251 210.782 295.739 210.214 295.217C209.55 294.62 206.194 291.245 209.408 290.922C211.237 290.733 212.527 290.96 213.958 289.538C216.243 287.253 214.556 282.902 212.802 280.873C211.332 279.185 209.503 278.123 207.341 277.583C205.084 277.014 202.743 277.469 200.448 277.147C199.443 277.005 198.401 276.692 197.756 275.867C197.31 275.308 197.471 274.473 197.595 273.848C197.803 272.729 198.723 272.568 199.652 272.653C200.221 272.71 200.723 272.994 201.084 273.449C201.965 274.521 200.619 275.63 199.917 276.199C198.894 277.014 197.699 277.782 196.485 278.313C196.466 278.313 196.485 278.37 196.504 278.351V278.36Z" fill="#824916"/>
<path d="M87.7117 154.38C87.7686 154.2 87.9298 154.124 88.1099 154.172C88.1289 154.172 88.1384 154.143 88.1099 154.134C87.9108 154.086 87.7402 154.162 87.6738 154.361C87.6738 154.39 87.7117 154.399 87.7117 154.38Z" fill="#824916"/>
<path d="M66.3422 240.57C63.7539 238.636 60.7296 237.603 57.4871 238.105C53.9698 238.645 50.8601 241.006 48.3192 243.357C43.3039 247.993 41.1233 255.597 43.74 262.063C44.8398 264.774 47.3996 266.946 50.2628 267.429C53.5052 267.969 56.7192 265.978 59.061 263.988C61.7725 261.693 64.1047 258.546 66.0578 255.597C68.0487 252.592 68.6555 249.283 67.8402 245.794C67.7264 245.282 66.8447 245.491 66.9395 246.002C67.5842 249.359 67.1196 252.231 65.3941 255.18C63.8298 257.834 61.763 260.442 59.4307 262.48C57.3355 264.319 54.7946 265.77 51.9693 265.922C48.7269 266.092 46.6317 263.495 45.3233 260.916C42.4317 255.17 43.6926 249.52 47.94 244.798C52.6899 239.508 59.8479 236.531 66.2948 240.627C66.3232 240.655 66.3517 240.598 66.3232 240.579L66.3422 240.57Z" fill="#824916"/>
<path d="M69.1484 229.117C67.5272 231.924 66.0387 234.919 65.9154 238.228C65.8017 241.499 66.5696 244.922 67.7263 247.965C69.6604 253.056 74.5998 257.493 80.3736 255.967C86.8775 254.27 88.4323 247.87 87.9583 241.878C87.4937 236.019 85.7872 229.989 80.7908 226.482C80.1366 226.017 79.3118 226.965 79.9754 227.468C83.9574 230.435 85.4364 234.777 86.6215 239.413C88.1289 245.272 87.7212 252.345 81.0278 254.554C75.3014 256.45 70.9308 251.558 68.7123 246.932C67.5082 244.419 66.9109 241.641 66.854 238.863C66.7782 235.555 68.3141 232.293 69.7362 229.383C69.9258 229.003 69.357 228.766 69.1674 229.117H69.1484Z" fill="#824916"/>
<path d="M35.0465 239.138C31.6618 240.096 28.4194 241.309 25.5752 243.443C22.8352 245.491 20.9201 248.894 19.5833 251.985C16.8718 258.28 18.6257 265.732 25.7268 267.761C32.2307 269.61 37.4735 263.362 40.4884 258.498C43.8351 253.094 45.115 246.42 41.3796 240.864C40.9151 240.181 39.9006 240.902 40.3367 241.594C43.4275 246.477 42.5363 252.355 40.1376 257.313C37.7011 262.385 33.2735 267.78 27.0162 266.86C24.0962 266.424 21.6691 264.253 20.4935 261.617C19.0808 258.47 20.0668 254.317 21.233 251.264C23.6885 244.77 29.083 241.935 35.274 239.736C35.6627 239.593 35.4352 239.025 35.0465 239.138Z" fill="#824916"/>
<path d="M30.0879 267.059C27.0066 270.946 24.7028 276.54 26.0016 281.574C27.1109 285.917 30.8748 288.609 35.3023 288.713C40.1091 288.837 43.4368 284.769 46.0914 281.347C49.4381 277.005 52.1971 272.255 51.1257 266.614C50.974 265.827 49.732 265.922 49.8553 266.737C50.5758 271.534 48.6892 275.459 46.4138 279.536C44.347 283.252 41.2847 286.542 36.9235 287.32C32.8468 288.05 28.9976 285.234 27.4048 281.65C25.338 277.014 28.021 271.326 30.5809 267.467C30.7989 267.126 30.3533 266.727 30.0879 267.05V267.059Z" fill="#824916"/>
<path d="M64.5217 256.839C64.5028 256.896 64.4838 256.943 64.4648 256.991C64.4648 257.019 64.4933 257.029 64.5028 256.991C64.5217 256.943 64.5312 256.896 64.5502 256.839C64.5596 256.811 64.5217 256.801 64.5123 256.83L64.5217 256.839Z" fill="#824916"/>
<path d="M64.4737 256.991C62.388 260.764 60.7288 265.03 61.8286 269.401C62.9094 273.705 66.5406 277.877 71.1577 278.256C75.7179 278.635 79.368 274.473 80.8091 270.596C82.5631 265.884 81.615 259.541 79.2258 255.218C78.8466 254.535 77.8416 255.246 78.2304 255.919C80.5057 259.825 81.359 265.211 79.6904 269.477C78.2778 273.089 75.1301 276.113 71.2241 276.635C66.4078 277.27 62.7767 272.549 62.0467 268.32C61.402 264.575 62.6819 260.252 64.5117 257C64.5306 256.991 64.4832 256.962 64.4737 256.991Z" fill="#824916"/>
<path d="M61.7813 217.266C54.9267 211.834 46.5931 213.55 39.4161 217.475C33.4148 220.765 27.9254 226.984 29.9353 234.237C30.836 237.517 33.6992 239.887 36.7994 240.949C40.6581 242.267 45.0856 241.129 48.7737 239.802C55.3912 237.432 62.426 233.346 64.9858 226.463C65.1659 225.96 64.4169 225.619 64.2558 226.112C63.2603 228.985 61.7623 231.525 59.5628 233.659C57.259 235.887 54.0639 237.195 51.1533 238.399C44.8391 241.025 34.5904 241.897 31.4143 234.256C28.6459 227.591 34.9127 221.485 40.0703 218.413C43.2369 216.527 46.8775 215.152 50.5371 214.687C54.4716 214.185 58.2924 215.579 61.7528 217.323C61.7813 217.333 61.8097 217.295 61.7813 217.276V217.266Z" fill="#824916"/>
<path d="M36.733 203.69C29.6698 200.4 21.0328 206.591 19.0608 213.512C18.1601 216.65 18.7669 220.471 21.0328 222.917C23.7158 225.808 28.3899 227.43 32.1443 225.932C33.1871 225.515 32.4287 224.026 31.4142 224.557C27.9064 226.434 23.3745 224.557 21.1276 221.533C19.2788 219.049 19.2599 215.645 20.1795 212.829C21.1845 209.72 23.7253 207.435 26.3325 205.633C29.4517 203.462 33.026 203.036 36.6761 203.908C36.7993 203.936 36.8562 203.737 36.7424 203.68L36.733 203.69Z" fill="#824916"/>
<path d="M67.1289 199.651C60.4354 207.643 56.5578 226.785 69.6413 230.938C76.6855 233.184 82.9333 227.306 84.82 220.954C87.0575 213.445 85.0949 205.548 80.3546 199.385C80.0038 198.94 79.378 199.404 79.6435 199.888C81.2173 202.742 82.8954 205.406 83.8909 208.544C84.9717 211.948 84.9053 215.503 84.09 218.954C82.4593 225.827 76.0692 231.895 68.788 228.577C63.8011 226.301 61.7343 219.731 61.9713 214.687C62.2368 209.331 64.3415 204.192 67.2142 199.746C67.2521 199.679 67.1763 199.604 67.1289 199.66V199.651Z" fill="#824916"/>
<path d="M63.3652 186.662C58.2646 183.316 51.5522 185.051 46.5843 187.8C41.294 190.739 36.0416 196.171 36.0606 202.562C36.0796 209.71 43.5694 213.095 49.7508 212.791C56.34 212.478 62.4741 208.525 65.5364 202.723C65.6501 202.514 65.3467 202.343 65.195 202.505C61.2321 206.762 57.4777 210.307 51.4953 211.199C45.238 212.147 37.6913 209.625 37.0087 202.457C36.4398 196.494 41.8344 191.469 46.4421 188.625C51.647 185.411 57.563 184.7 63.3084 186.767C63.3653 186.786 63.4316 186.7 63.3747 186.662H63.3652Z" fill="#824916"/>
<path d="M65.1943 135.94C63.7437 132.574 59.3731 131.389 56.0737 130.83C51.2006 130.015 45.8345 130.707 41.3311 132.688C36.8372 134.66 32.3623 138.727 32.3623 143.989C32.3623 148.075 35.0643 150.977 39.3117 150.36C39.5393 150.332 39.5393 150.01 39.3212 149.962C37.3302 149.46 35.1876 149.052 34.1731 147.061C33.2819 145.298 33.6612 142.975 34.3059 141.221C35.8892 136.936 40.2029 134.034 44.2986 132.499C50.9541 130.015 60.0367 130.602 65.1089 136.016C65.1469 136.054 65.2227 136.006 65.2037 135.95L65.1943 135.94Z" fill="#824916"/>
<path d="M85.2081 213.417C85.5968 212.308 85.7864 210.99 86.5733 210.108C87.8817 208.639 90.6406 208.373 92.148 209.644C92.4419 209.881 92.8117 209.435 92.5178 209.198C91.0672 207.975 88.8677 208.07 87.3318 209.084C85.6727 210.175 85.8243 211.729 85.1607 213.408C85.1512 213.436 85.1891 213.445 85.1986 213.427L85.2081 213.417Z" fill="#824916"/>
<path d="M41.9103 183.306C43.5315 184.937 43.3229 189.099 42.024 190.91C41.806 191.213 42.2421 191.592 42.4602 191.289C43.996 189.146 43.6547 185.193 41.9292 183.278C41.9103 183.259 41.8818 183.278 41.9008 183.306H41.9103Z" fill="#824916"/>
<path d="M81.9665 225.761C83.4076 230.321 85.3417 234.616 88.7927 238.029C91.6085 240.798 96.3109 242.694 100.008 240.504C107.422 236.124 105.469 223.552 100.245 218.319C99.5534 217.617 98.6242 218.774 99.2689 219.466C103.526 224.045 104.919 235.043 98.8897 238.93C95.5051 241.11 91.1913 238.712 88.622 236.408C85.5787 233.668 83.2274 229.629 81.9855 225.742C81.9855 225.714 81.9381 225.723 81.9475 225.761H81.9665Z" fill="#824916"/>
<path d="M75.15 175.409C69.1012 177.305 63.6782 181.524 62.7491 188.094C61.9432 193.716 64.7116 201.007 70.694 202.618C76.3256 204.135 81.5874 200.106 84.991 196.029C86.8398 193.82 88.2524 191.289 89.0488 188.52C90.0727 184.975 90.3382 180.13 89.2763 176.584C89.1246 176.091 88.5273 176.195 88.3093 176.546C88.224 176.67 88.1955 176.812 88.1576 176.973C88.0723 177.324 88.4799 177.485 88.7454 177.343C88.7738 177.324 88.8023 177.314 88.8402 177.295C88.6506 177.077 88.461 176.878 88.2619 176.67C88.0154 179.827 88.6506 182.927 88.2145 186.131C87.8068 189.004 86.6027 191.497 84.9341 193.849C82.1468 197.783 77.5012 201.832 72.3626 201.424C66.3518 200.95 63.2421 193.422 63.5455 188.217C63.9626 181.258 70.0872 178.613 75.1689 175.428C75.1879 175.409 75.1689 175.39 75.15 175.399V175.409Z" fill="#824916"/>
<path d="M86.3174 193.308C88.6402 198.485 93.0677 203.567 99.2681 200.722C103.696 198.693 107.535 191.232 104.881 186.7C104.426 185.932 103.174 186.615 103.506 187.43C105.232 191.611 102.558 196.901 99.1354 199.348C93.9115 203.073 88.5548 197.831 86.3648 193.299C86.3553 193.27 86.3079 193.299 86.3269 193.299L86.3174 193.308Z" fill="#824916"/>
<path d="M92.2341 200.277C88.9159 209.748 97.6477 224.87 108.844 219.21C113.433 216.887 114.988 211.104 114.656 206.335C114.249 200.561 110.267 193.545 104.995 190.995C104.341 190.682 103.933 191.64 104.521 191.99C109.053 194.721 112.229 200.874 112.836 206.041C113.338 210.307 111.859 214.801 108.37 217.408C104.085 220.622 98.245 218.527 95.2585 214.659C92.31 210.829 90.9732 204.979 92.2721 200.286C92.2815 200.258 92.2436 200.248 92.2341 200.267V200.277Z" fill="#824916"/>
<path d="M99.6852 152.418C98.8225 148.796 96.2626 147.734 92.6031 147.744C87.7963 147.744 82.8189 150.18 78.9792 152.949C71.9824 158.002 68.2469 167.502 73.6889 175.029C79.5196 183.107 90.2708 178.736 95.855 172.868C101.799 166.629 105.677 154.276 96.9832 148.578C96.7272 148.407 96.348 148.673 96.5565 148.967C97.4762 150.199 98.5854 151.252 99.4577 152.531C100.766 154.456 100.965 156.694 100.861 158.95C100.671 163.283 98.7087 167.227 95.9308 170.469C90.9439 176.3 82.032 180.642 75.2627 175.058C68.1426 169.18 72.5986 159.149 78.3724 154.247C81.5769 151.517 85.8622 149.526 89.9579 148.625C93.5701 147.829 98.3579 148.521 99.6473 152.437C99.6568 152.465 99.6852 152.456 99.6852 152.427V152.418Z" fill="#824916"/>
<path d="M103.269 162.42C101.354 165.236 99.183 168.014 99.1072 171.559C99.0313 175.333 100.141 179.628 101.421 183.145C102.824 186.975 105.336 190.407 109.195 191.971C112.845 193.46 116.666 192.152 119.443 189.582C126.658 182.87 122.894 171.028 117.974 164.231C115.395 160.656 111.593 158.144 107.185 159.737C103.791 160.96 100.197 164.458 99.8182 168.165C99.7993 168.307 100.008 168.355 100.046 168.213C101.022 164.468 104.72 162.041 108.161 160.799C112.684 159.159 116.258 163.785 118.325 167.141C122.25 173.484 123.928 183.657 117.538 189.042C114.722 191.412 110.958 191.346 107.839 189.639C104.559 187.857 102.729 184.055 101.534 180.699C100.558 177.921 99.8277 174.84 99.5528 171.901C99.2304 168.421 101.421 165.169 103.307 162.458C103.317 162.429 103.288 162.41 103.279 162.429L103.269 162.42Z" fill="#824916"/>
<path d="M109.497 191.251C109.118 191.953 108.957 192.72 109.033 193.517C109.099 194.247 109.242 195.242 109.668 195.84C109.82 196.039 110.095 195.897 110.095 195.688C110.095 195.043 109.753 194.38 109.63 193.763C109.45 192.929 109.355 192.095 109.564 191.279C109.564 191.241 109.516 191.241 109.507 191.26L109.497 191.251Z" fill="#824916"/>
<path d="M114.144 206.269C116.41 209.246 118.828 211.673 122.857 210.952C126.526 210.288 129.702 207.529 131.2 204.192C134.433 196.987 129.313 186.501 122.506 183.344C121.862 183.05 121.397 184.036 122.032 184.339C127.967 187.193 131.399 194.93 130.546 201.329C130.072 204.846 127.455 207.871 124.364 209.407C120.345 211.398 116.789 209.378 114.173 206.24C114.154 206.221 114.125 206.24 114.135 206.269H114.144Z" fill="#824916"/>
<path d="M63.0051 161.16C63.0051 161.16 63.0437 161.121 63.0051 161.121C62.9762 161.121 62.9762 161.15 63.0051 161.16Z" fill="#824916"/>
<path d="M70.8742 165.379C70.8742 165.379 70.9128 165.34 70.8742 165.34C70.8453 165.34 70.8453 165.379 70.8742 165.379Z" fill="#824916"/>
<path d="M72.4001 161.557C62.1798 157.841 51.2674 160.476 43.3604 167.814C40.2887 170.659 37.8995 174.517 38.5821 178.86C39.4828 184.586 47.0485 187.582 52.1586 186.226C52.3956 186.169 52.4146 185.781 52.1776 185.695C49.3902 184.662 46.3943 185.069 43.6354 183.704C41.1514 182.462 39.7388 180.026 39.5397 177.314C39.2553 173.342 42.2322 169.815 44.9817 167.312C52.3861 160.59 62.9288 158.684 72.3716 161.614C72.4001 161.614 72.419 161.576 72.3906 161.557H72.4001Z" fill="#824916"/>
<path d="M39.3313 179.4C30.097 173.408 19.7061 185.003 18.1038 193.612C17.0704 199.186 21.1187 204.183 26.7882 204.278C31.4907 204.363 37.985 201.301 38.5823 196.058C38.6203 195.764 38.2789 195.612 38.0798 195.821C36.2026 197.774 35.1787 200.03 32.7896 201.528C31.1304 202.562 29.13 203.026 27.1864 203.102C21.0239 203.339 17.8479 197.954 19.0424 192.379C19.9147 188.283 23.0149 184.358 26.0772 181.637C29.8031 178.3 34.7521 176.793 39.3029 179.438C39.3313 179.457 39.3598 179.409 39.3313 179.39V179.4Z" fill="#824916"/>
<path d="M57.6862 185.354C60.0469 185.363 61.6776 186.188 63.7444 184.643C64.958 183.733 65.3751 182.405 66.437 181.41C66.7404 181.125 66.2474 180.718 65.9535 181.002C65.0528 181.846 64.6735 182.993 63.7444 183.837C61.8483 185.534 59.9237 184.832 57.6578 185.069C57.4682 185.088 57.5061 185.354 57.6862 185.354Z" fill="#824916"/>
<path d="M72.685 171.711C72.7608 171.721 72.7798 171.607 72.704 171.597C72.6281 171.597 72.6092 171.702 72.685 171.711Z" fill="#824916"/>
<path d="M69.0248 177.836C69.0912 177.855 69.1102 177.741 69.0438 177.731C68.968 177.731 68.949 177.826 69.0248 177.836Z" fill="#824916"/>
<path d="M82.0141 151.024C84.6972 148.161 86.1762 144.681 84.062 140.974C82.1563 137.618 78.9708 135.656 75.2259 134.964C71.0543 134.196 66.6363 135.305 62.6544 136.518C59.0327 137.618 55.6102 139.363 52.7849 141.913C47.1817 146.928 48.509 155.053 54.4914 159.14C60.6729 163.349 71.1586 161.216 76.2024 156.201C76.3541 156.049 76.155 155.831 75.9844 155.878C69.8218 157.841 63.6119 160.419 57.0892 158.21C54.207 157.234 52.0264 154.816 50.9741 152.019C49.6752 148.578 51.1068 145.203 53.4865 142.671C57.7812 138.102 65.6977 136.082 71.718 135.76C75.3871 135.561 78.8855 136.661 81.5875 139.183C83.057 140.557 83.9008 142.349 84.2611 144.302C84.6782 146.596 83.1139 149.147 81.9667 151.015C81.9478 151.043 81.9952 151.062 82.0141 151.043V151.024Z" fill="#824916"/>
<path d="M49.2196 149.355C49.2196 149.355 49.248 149.327 49.2196 149.308C49.1911 149.308 49.1911 149.346 49.2196 149.355Z" fill="#824916"/>
<path d="M49.3895 148.881C49.7498 148.644 49.636 148.758 49.8825 148.417C49.9583 148.303 49.9394 148.151 49.8067 148.094C45.8721 146.16 40.4491 148.853 36.9033 150.711C33.5566 152.475 30.902 155.357 29.8781 159.054C28.93 162.496 29.2902 166.127 31.7552 168.848C34.6469 172.043 38.7521 172.062 42.2694 169.976C42.6961 169.72 42.3168 169.009 41.8712 169.208C38.1737 170.934 34.2392 170.431 31.7932 166.952C29.9539 164.344 30.3521 160.751 31.4708 157.954C32.7507 154.75 35.3959 152.636 38.4013 151.138C39.8803 150.398 41.4541 149.829 43.0184 149.289C44.0897 148.91 45.18 148.625 46.2988 148.436C46.7064 148.369 49.7213 148.066 49.3326 148.853C49.3137 148.872 49.3516 148.9 49.3705 148.881H49.3895Z" fill="#824916"/>
<path d="M186.17 170.687C184.871 169.426 183.468 170.005 182.633 171.521C181.249 174.062 181.809 176.575 182.814 179.153C184.406 183.24 184.368 186.511 182.396 190.436C181.809 191.611 181.173 192.72 180.661 193.934C180.159 195.119 179.666 196.494 178.68 197.366C178.367 197.65 178.538 198.096 178.945 198.106C180.273 198.134 181.022 195.726 181.42 194.797C182.425 192.493 183.819 190.237 184.492 187.8C185.222 185.155 185.07 182.671 184.255 180.073C183.733 178.376 183.003 176.878 182.861 175.086C182.728 173.313 183.705 170.023 186.075 170.829C186.17 170.858 186.236 170.754 186.17 170.678V170.687Z" fill="#824916"/>
<path d="M176.291 192.408C177.002 193.185 177.4 194.266 177.798 195.233C178.017 195.764 178.206 196.304 178.386 196.854C178.5 197.205 178.538 197.584 178.813 197.85C178.908 197.944 179.069 197.878 179.097 197.745C179.183 197.376 178.965 197.034 178.822 196.693C178.576 196.077 178.282 195.489 177.988 194.892C177.542 194.019 177.068 193.052 176.348 192.379C176.319 192.351 176.291 192.389 176.31 192.417L176.291 192.408Z" fill="#824916"/>
<path d="M176.29 192.389C176.044 194.664 176.205 196.769 175.19 198.921C174.422 200.533 173.18 201.898 172.024 203.216C170.564 204.894 168.269 207.34 168.905 209.767C169.018 210.213 169.758 210.042 169.682 209.596C169.236 206.705 172.337 203.984 173.891 201.832C174.631 200.817 175.399 199.613 175.778 198.399C176.423 196.342 176.072 194.493 176.319 192.398C176.338 192.37 176.29 192.37 176.281 192.398L176.29 192.389Z" fill="#824916"/>
<path d="M170.043 198.181C169.171 201.841 167.948 205.994 168.934 209.757C169.047 210.194 169.683 210.004 169.664 209.596C169.464 205.719 169.711 202.059 170.157 198.2C170.157 198.125 170.062 198.115 170.043 198.181Z" fill="#824916"/>
<path d="M169.901 199.101C169.171 200.608 168.356 202.087 167.72 203.633C166.896 205.671 166.251 207.691 164.819 209.416C163.217 211.341 159.965 212.858 159.643 215.588C159.586 216.081 160.335 216.204 160.382 215.721C160.705 213.009 164.402 211.312 165.796 209.113C166.753 207.605 167.407 205.918 167.872 204.183C168.337 202.429 169.237 200.789 169.948 199.12C169.967 199.092 169.91 199.063 169.891 199.092L169.901 199.101Z" fill="#824916"/>
<path d="M162.743 204.448C161.842 206.837 161.131 209.312 160.316 211.729C159.851 213.114 159.074 214.65 159.643 216.11C159.889 216.735 160.866 216.366 160.619 215.74C160.088 214.375 161.14 212.64 161.406 211.274C161.852 208.971 162.809 206.847 162.847 204.458C162.847 204.401 162.762 204.382 162.743 204.439V204.448Z" fill="#824916"/>
<path d="M141.193 216.081C145.251 215.901 148.854 215.294 151.101 211.521C152.637 208.971 153.623 206.069 154.362 203.197C155.007 200.76 156.097 195.394 159.33 195.005C159.804 194.939 159.738 194.199 159.254 194.256C154.656 194.759 154.021 201.945 153.272 205.245C152.58 208.326 151.11 211.777 148.655 213.863C146.645 215.569 143.715 215.986 141.184 216.043C141.156 216.043 141.165 216.081 141.184 216.081H141.193Z" fill="#824916"/>
<path d="M140.965 216.015C142.861 217.152 145.298 218.167 147.526 218.319C149.488 218.461 151.517 217.446 153.186 216.536C158.04 213.901 160.04 208.971 163.046 204.676C163.273 204.344 162.799 203.927 162.553 204.259C159.69 208.155 157.755 212.26 153.679 215.133C151.631 216.565 148.976 217.674 146.464 217.257C144.7 216.963 142.785 215.38 140.974 215.892C140.927 215.91 140.937 215.977 140.974 216.005L140.965 216.015Z" fill="#824916"/>
<path d="M157.575 184.747C155.063 185.344 153.574 188.312 152.503 190.417C150.692 193.953 150.664 198.191 148.55 201.547C148.294 201.945 148.853 202.268 149.175 202.078C151.526 200.713 156.267 199.006 157.006 196.077C157.054 195.906 156.826 195.783 156.693 195.878C155.489 196.788 154.541 197.954 153.242 198.807C151.782 199.765 150.199 200.514 148.682 201.367C148.872 201.585 149.071 201.784 149.251 202.002C151.147 199.054 151.327 195.574 152.456 192.332C153.328 189.819 154.854 185.733 157.594 184.785C157.623 184.776 157.604 184.728 157.575 184.728V184.747Z" fill="#824916"/>
<path d="M155.869 176.414C153.897 177.276 153.233 178.85 152.522 180.784C151.422 183.78 150.825 186.947 149.45 189.829C149.365 190.037 149.526 190.237 149.734 190.237C151.688 190.085 153.527 189.175 154.664 187.544C154.769 187.392 154.598 187.155 154.437 187.288C152.939 188.511 151.707 189.535 149.678 189.668C149.772 189.8 149.867 189.933 149.962 190.075C151.081 187.771 151.669 185.316 152.455 182.898C153.214 180.557 153.622 177.76 155.906 176.47C155.935 176.451 155.906 176.404 155.878 176.414H155.869Z" fill="#824916"/>
<path d="M158.723 154.608C160.713 153.48 161.14 156.542 161.282 157.566C161.472 158.997 161.064 160.163 159.917 161.102C158.021 162.647 155.812 163.415 154.096 165.283C150.304 169.407 149.393 174.517 149.412 179.931C149.412 180.196 149.706 180.31 149.915 180.253C152.067 179.665 155.072 178.215 156.352 176.347C156.466 176.186 156.333 175.939 156.134 176.025C153.811 176.869 152.152 178.86 149.659 179.552C149.83 179.656 149.991 179.76 150.161 179.865C150.142 175.428 150.626 171.73 153.385 168.118C155.499 165.349 158.542 163.87 160.969 161.51C162.524 160.002 162.05 157.679 161.349 155.897C160.865 154.646 159.936 153.698 158.685 154.579C158.656 154.598 158.685 154.636 158.713 154.627L158.723 154.608Z" fill="#824916"/>
<path d="M185.402 169.986C185.402 169.986 185.43 169.948 185.402 169.948C185.373 169.948 185.373 169.977 185.402 169.986Z" fill="#824916"/>
<path d="M184.255 170.507C190.218 169.521 188.275 180.225 187.772 183.287C187.118 187.231 186.881 191.128 187.099 195.129C187.279 198.627 187.896 202.249 189.526 205.377C190.399 207.027 191.185 208.601 192.399 210.051C193.603 211.473 195.916 212.829 196.305 214.763C196.589 216.166 198.647 215.683 198.211 214.327C197.708 212.772 196.428 211.748 195.243 210.706C193.271 208.99 191.735 207.169 190.484 204.865C188.152 200.59 187.64 196.067 187.63 191.27C187.63 186.406 188.834 181.694 188.901 176.84C188.938 174.005 188.009 169.73 184.245 170.469C184.217 170.469 184.227 170.507 184.245 170.507H184.255Z" fill="#824916"/>
<path d="M194.219 199.376C196.106 201.613 196.191 204.846 196.599 207.615C196.94 209.928 196.163 212.488 197.5 214.545C197.68 214.83 198.106 214.526 197.917 214.251C196.883 212.659 197.31 210.933 197.291 209.17C197.291 207.937 196.902 206.619 196.665 205.415C196.239 203.235 195.651 201.111 194.248 199.348C194.229 199.329 194.2 199.348 194.219 199.376Z" fill="#824916"/>
<path d="M195.025 200.523C197.281 204.059 197.784 208.373 199.86 211.995C201.68 215.19 203.52 218.394 206.705 220.404C207.132 220.66 207.71 220.11 207.492 219.674C206.515 217.664 205.463 215.673 204.638 213.597C203.681 211.208 203.425 208.563 202.856 206.06C202.837 205.994 202.733 205.994 202.742 206.079C203.264 210.876 204.155 215.91 206.468 220.215C206.705 219.93 206.952 219.646 207.189 219.361C200.306 215.417 198.931 206.743 195.044 200.514C195.025 200.485 194.996 200.514 195.006 200.533L195.025 200.523Z" fill="#824916"/>
<path d="M202.79 206.069C204.222 209.075 205.577 212.014 207.464 214.773C209.133 217.2 212.129 218.518 213.295 221.315C213.456 221.713 214.006 221.495 213.911 221.087C213.304 218.726 214.745 216.593 213.712 214.251C212.982 212.611 211.408 211.483 210.545 209.909C210.413 209.653 209.958 209.89 210.09 210.146C210.849 211.597 212.024 212.715 212.916 214.071C214.385 216.328 212.641 218.897 213.295 221.305C213.503 221.229 213.702 221.163 213.911 221.077C212.897 218.755 210.735 217.427 208.953 215.759C206.288 213.246 204.61 209.189 202.828 206.041C202.818 206.022 202.79 206.041 202.79 206.069Z" fill="#824916"/>
<path d="M212.479 213.133C214.327 214.773 215.446 216.925 217.039 218.774C218.47 220.442 220.281 221.684 221.277 223.694C221.381 223.912 221.77 224.017 221.865 223.723C223.107 219.94 220.499 215.645 218.347 212.697C218.082 212.336 217.532 212.725 217.778 213.104C219.656 215.967 222.367 219.959 221.258 223.533C221.466 223.514 221.665 223.495 221.874 223.476C220.897 221.571 219.314 220.329 217.769 218.916C215.816 217.162 214.47 214.849 212.498 213.095C212.479 213.076 212.46 213.104 212.479 213.123V213.133Z" fill="#824916"/>
<path d="M220.385 216.849C221.988 219.987 223.637 222.964 225.951 225.647C227.136 227.031 228.52 228.226 229.648 229.658C231.032 231.412 231.174 233.166 231.355 235.27C231.383 235.612 231.848 235.593 231.933 235.289C232.739 232.303 230.596 229.525 228.567 227.572C225.249 224.358 222.462 221.021 220.423 216.83C220.414 216.802 220.376 216.821 220.385 216.84V216.849Z" fill="#824916"/>
<path d="M227.744 210.241C231.289 215.266 233.461 221.077 232.901 227.287C232.655 230.027 231.28 232.805 231.308 235.545C231.308 235.924 231.868 235.849 231.887 235.488C231.925 234.303 232.503 233.08 232.825 231.961C233.347 230.16 233.66 228.302 233.707 226.425C233.916 220.31 231.574 214.943 227.791 210.213C227.772 210.194 227.725 210.213 227.744 210.25V210.241Z" fill="#824916"/>
<path d="M212.545 163.463C210.668 162.183 208.99 163.69 208.478 165.634C207.615 168.876 210.924 171.626 213.218 173.332C220.225 178.518 229.184 184.178 229.971 193.792C230.018 194.418 231.014 194.323 230.948 193.697C230.312 187.392 226.018 182.443 221.438 178.499C218.556 176.015 215.446 173.863 212.488 171.484C211.085 170.355 209.445 168.649 209.293 166.753C209.142 164.885 210.298 162.477 212.517 163.52C212.545 163.529 212.574 163.491 212.545 163.472V163.463Z" fill="#824916"/>
<path d="M222.434 187.506C223.723 190.9 227.051 193.033 230.236 194.427C230.72 194.645 231.061 193.906 230.587 193.697C227.639 192.398 224.102 190.388 222.547 187.449C222.509 187.392 222.424 187.449 222.443 187.506H222.434Z" fill="#824916"/>
<path d="M225.685 191.26C227.154 191.99 227.96 193.801 228.766 195.148C229.837 196.93 231.032 198.333 231.146 200.533C231.269 202.979 230.662 206.705 232.653 208.572C232.805 208.724 233.032 208.525 232.975 208.335C232.378 206.439 231.885 204.827 231.8 202.808C231.733 201.139 231.762 199.585 231.155 198.011C230.596 196.532 229.439 195.356 228.548 194.076C227.789 192.995 226.974 191.725 225.713 191.213C225.675 191.204 225.656 191.251 225.685 191.26Z" fill="#824916"/>
<path d="M226.633 200.713C227.344 202.23 228.33 203.481 229.335 204.799C230.387 206.174 231.383 207.719 232.776 208.771C232.947 208.895 233.146 208.743 233.099 208.544C232.729 207.084 230.823 206.174 230.036 204.913C229.079 203.386 227.628 202.277 226.728 200.665C226.69 200.608 226.595 200.665 226.623 200.722L226.633 200.713Z" fill="#824916"/>
<path d="M226.159 199.916C227.799 202.912 229.989 205.605 231.089 208.857C232.094 211.834 231.174 214.906 233.241 217.532C233.383 217.721 233.658 217.56 233.592 217.342C233.383 216.603 233.014 216.053 232.672 215.361C232.246 214.488 232.274 213.436 232.217 212.488C232.132 210.943 231.857 209.53 231.335 208.07C230.255 205.017 227.979 202.543 226.263 199.86C226.216 199.793 226.131 199.86 226.159 199.916Z" fill="#824916"/>
<path d="M227.742 210.241C229.354 212.763 231.648 214.868 232.985 217.57C233.232 218.082 234.066 217.759 233.801 217.276C232.331 214.469 229.752 212.63 227.78 210.213C227.761 210.194 227.714 210.213 227.733 210.25L227.742 210.241Z" fill="#824916"/>
<path d="M93.7512 138.102C93.7512 138.102 93.7801 138.073 93.7512 138.073C93.7223 138.073 93.7223 138.102 93.7512 138.102Z" fill="#824916"/>
<path d="M84.5648 142.662C85.0578 140.936 89.855 140.093 91.2866 139.78C94.2067 139.145 97.2785 139.457 100.236 138.993C105.773 138.111 111.917 135.741 116.287 132.195C116.61 131.949 116.25 131.427 115.927 131.674C110.248 136.149 102.275 138.206 95.1358 138.272C92.1873 138.301 89.6465 138.832 86.8876 139.827C85.6077 140.292 83.683 141.05 84.0623 142.709C84.1286 142.994 84.4984 142.88 84.5648 142.662Z" fill="#824916"/>
<path d="M79.7475 136.613C80.9231 134.461 84.7628 135.893 86.5452 136.386C88.9154 137.04 91.5985 139.78 94.1109 139.23C94.31 139.192 94.3574 138.955 94.1772 138.851C92.4991 137.846 90.584 136.955 88.8301 136.044C87.645 135.419 86.2323 135.068 84.9335 134.812C83.1132 134.452 79.8992 134.053 79.482 136.518C79.4536 136.689 79.6716 136.746 79.757 136.604L79.7475 136.613Z" fill="#824916"/>
<path d="M94.8693 148.388C96.6896 148.284 97.1257 146.511 97.3912 144.985C97.96 141.79 99.2779 139.903 102.293 138.633C102.435 138.566 102.397 138.32 102.226 138.358C100.378 138.718 98.6711 139.344 97.6756 141.069C96.2914 143.487 96.9551 146.34 94.8409 148.35C94.8219 148.379 94.8409 148.398 94.8598 148.398L94.8693 148.388Z" fill="#824916"/>
<path d="M238.01 48.3756C240.02 47.4464 242.381 47.0009 244.504 46.413C247.225 45.6735 249.956 44.9909 252.686 44.3368C259.01 42.8009 265.362 41.3977 271.724 40.042C276.853 38.9517 281.972 37.8803 287.111 36.828C288.666 36.5056 290.23 36.1833 291.785 35.8609C292.401 35.7282 293.274 35.7092 293.804 35.349C294.184 35.093 294.193 34.6379 293.994 34.2776C293.605 33.5761 291.87 34.1544 291.33 34.2492C287.651 34.8654 283.982 35.5575 280.323 36.2876C269.951 38.4113 259.655 40.9237 249.472 43.8343C226.908 50.3002 205.055 58.6812 184.946 70.9019C169.369 80.3637 155.072 91.5321 141.344 103.487C132.859 110.873 124.468 118.657 117.898 127.853C115.054 131.844 112.162 136.518 111.84 141.534C111.669 144.245 112.617 146.852 112.475 149.602C112.285 153.072 111.404 156.656 109.621 159.661C109.138 160.486 110.475 161.102 110.958 160.296C113.347 156.314 114.229 151.346 114.001 146.739C113.907 144.937 113.281 143.25 113.404 141.42C113.537 139.457 114.248 137.552 115.044 135.769C118.486 128.081 124.781 121.567 130.65 115.661C138.367 107.896 146.9 100.89 155.527 94.1772C171.758 81.5488 188.928 69.7927 207.596 61.0609C229.022 51.0397 252.288 44.2799 275.336 39.1602C280.067 38.1079 284.826 37.1598 289.586 36.2117C290.505 36.0411 291.415 35.8515 292.335 35.6808C292.6 35.6239 292.847 35.586 293.103 35.5386C293.729 35.4248 293.037 35.6713 292.733 35.1688C292.799 34.818 292.856 34.4673 292.913 34.107C293.207 33.8984 292.733 34.1165 292.572 34.1639C292.088 34.2871 291.614 34.3914 291.131 34.5147C289.491 34.9034 287.86 35.2826 286.229 35.6618C281.034 36.8754 275.848 38.1079 270.662 39.3688C264.604 40.8383 258.555 42.3458 252.535 43.9765C249.823 44.7065 247.121 45.465 244.429 46.2708C242.276 46.906 240.143 47.8162 237.972 48.3376C237.934 48.3376 237.963 48.4135 237.991 48.404L238.01 48.3756Z" fill="#824916"/>
<path d="M123.122 122.525C118.192 127.313 113.963 132.963 110.114 138.642C107.953 141.809 105.924 145.08 104.047 148.426C102.577 151.052 101.136 153.84 100.501 156.807C100.245 158.011 102.188 158.353 102.387 157.13C103.44 150.607 107.763 144.35 111.29 138.927C114.94 133.323 118.675 127.54 123.169 122.563C123.198 122.534 123.15 122.496 123.122 122.525Z" fill="#824916"/>
<path d="M113.385 134.053C110.076 135.94 107.668 138.652 105.023 141.325C102.842 143.534 98.8225 146.483 98.6613 149.858C98.6518 150.209 99.0121 150.398 99.2681 150.133C100.368 149.061 100.984 147.554 101.923 146.331C102.966 144.966 104.208 143.762 105.374 142.529C108.019 139.723 110.37 136.49 113.413 134.11C113.451 134.082 113.413 134.044 113.385 134.063V134.053Z" fill="#824916"/>
<path d="M107.64 143.866C108.967 146.739 108.266 150.285 107.488 153.214C107.061 154.835 106.426 156.4 105.734 157.917C105.213 159.035 104.303 160.192 104.16 161.434C104.122 161.756 104.435 161.917 104.701 161.775C105.838 161.159 106.398 159.585 106.881 158.466C107.592 156.826 108.133 155.129 108.559 153.404C109.337 150.247 109.602 146.663 107.687 143.847C107.668 143.819 107.621 143.847 107.63 143.875L107.64 143.866Z" fill="#824916"/>
<path d="M113.575 134.168C113.575 134.168 113.604 134.139 113.575 134.129C113.546 134.129 113.546 134.168 113.575 134.168Z" fill="#824916"/>
<path d="M103.317 162.876C103.317 162.876 103.346 162.837 103.317 162.837C103.298 162.827 103.279 162.866 103.317 162.876Z" fill="#824916"/>
<path d="M113.168 138.443C113.083 142.681 115.927 144.463 118.382 147.45C120.392 149.896 120.222 153.442 120.013 156.419C119.767 159.955 118.894 163.415 118.572 166.942C118.525 167.378 119.217 167.502 119.255 167.056C119.767 161.386 122.042 154.646 119.89 149.061C118.278 144.909 113.083 143.534 113.215 138.443C113.215 138.415 113.177 138.415 113.177 138.443H113.168Z" fill="#824916"/>
<path d="M124.971 132.442C126.289 130.602 130.479 130.517 132.556 130.65C135.134 130.82 138.282 132.034 140.178 133.816C140.481 134.101 140.889 133.608 140.595 133.333C138.585 131.437 134.945 129.967 132.167 130.034C129.816 130.09 126.44 130.308 124.933 132.423C124.914 132.442 124.942 132.47 124.961 132.442H124.971Z" fill="#824916"/>
<path d="M124.81 132.451C128.953 131.266 133.751 135.76 135.808 138.917C137.021 140.766 137.751 142.757 139.373 144.34C140.937 145.857 143.449 146.824 145.573 147.089C145.772 147.118 145.848 146.852 145.677 146.767C144.502 146.066 143.137 145.829 141.885 145.298C140.169 144.558 138.918 143.174 137.951 141.629C136.822 139.818 135.988 138.035 134.519 136.461C132.243 134.025 128.309 130.963 124.772 132.337C124.696 132.366 124.744 132.461 124.81 132.442V132.451Z" fill="#824916"/>
<path d="M137.618 148.616C138.965 147.924 140.32 147.478 141.828 147.308C143.335 147.137 144.776 147.592 146.255 147.545C146.587 147.545 146.692 147.004 146.369 146.89C143.534 145.866 139.979 146.966 137.562 148.502C137.505 148.531 137.552 148.635 137.618 148.606V148.616Z" fill="#824916"/>
<path d="M137.884 148.805C138.993 149.251 139.714 150.474 140.681 151.195C141.553 151.849 142.52 152.152 143.563 152.399C145.563 152.844 148.445 152.285 150.332 151.564C150.692 151.422 150.531 150.958 150.199 150.948C148.009 150.882 145.924 151.982 143.667 151.877C142.283 151.801 141.05 151.119 139.96 150.322C139.221 149.773 138.832 149.052 137.912 148.758C137.884 148.739 137.855 148.796 137.884 148.815V148.805Z" fill="#824916"/>
<path d="M142.434 154.617C143.695 153.754 145.042 153.214 146.502 152.806C147.791 152.437 149.28 152.294 150.379 151.498C150.616 151.327 150.484 150.948 150.19 150.967C148.853 151.09 147.516 151.745 146.284 152.238C144.862 152.816 143.553 153.555 142.397 154.579C142.368 154.608 142.397 154.646 142.425 154.617H142.434Z" fill="#824916"/>
<path d="M142.415 154.627C145.762 155.357 149.289 155.452 152.323 153.631C152.854 153.318 152.304 152.598 151.792 152.873C148.796 154.494 145.8 154.93 142.434 154.57C142.397 154.57 142.387 154.617 142.434 154.627H142.415Z" fill="#824916"/>
<path d="M151.574 153.508C149.83 154.503 148.483 157.784 146.179 157.101C146.179 157.319 146.16 157.537 146.151 157.755C148.313 157.547 150.531 159.386 152.655 158.675C153.774 158.305 154.598 157.68 155.509 156.968C156.523 156.182 157.585 155.404 158.808 154.977C161.396 154.086 161.093 158.116 161.33 159.576C161.368 159.841 161.718 159.851 161.785 159.585C162.572 156.532 161.311 152.75 157.699 154.494C156.428 155.11 155.328 156.068 154.238 156.94C151.536 159.092 148.995 156.76 146.085 157.092C145.696 157.139 145.715 157.651 146.066 157.746C148.929 158.533 149.583 154.598 151.593 153.536C151.621 153.517 151.593 153.489 151.574 153.498V153.508Z" fill="#824916"/>
<path d="M138.035 127.682C138.035 127.682 138.082 127.625 138.044 127.625C138.006 127.625 137.997 127.673 138.035 127.682Z" fill="#824916"/>
<path d="M138.035 127.635C136.935 127.843 138.063 129.209 138.395 129.683C138.812 130.28 139.324 130.811 139.561 131.522C139.884 132.499 139.789 133.608 140.424 134.48C140.737 134.907 141.42 134.404 141.078 134.015C140.273 133.077 140.5 131.636 139.77 130.631C139.495 130.261 139.135 129.948 138.812 129.616C138.689 129.484 136.973 127.749 138.045 127.673C138.073 127.673 138.063 127.625 138.045 127.635H138.035Z" fill="#824916"/>
<path d="M138.036 127.711C141.6 128.792 145.431 129.228 148.758 130.982C149.289 131.257 149.697 130.413 149.157 130.138C145.639 128.441 141.828 128.327 138.055 127.597C137.979 127.587 137.969 127.692 138.036 127.711Z" fill="#824916"/>
<path d="M143.534 123.956C145.146 124.516 145.175 126.962 145.905 128.251C146.568 129.427 147.933 131.389 149.498 131.01C149.678 130.963 149.687 130.716 149.564 130.612C148.749 129.901 147.858 129.607 147.147 128.706C146.53 127.948 146.113 127.132 145.696 126.27C145.241 125.312 144.71 124.099 143.572 123.843C143.506 123.843 143.478 123.928 143.534 123.947V123.956Z" fill="#824916"/>
<path d="M143.544 123.937C145.563 125.104 147.952 125.009 150.18 125.35C151.337 125.53 152.465 125.89 153.518 126.393C154.304 126.763 154.636 127.654 155.461 127.825C155.594 127.853 155.745 127.768 155.802 127.644C155.831 127.578 155.859 127.502 155.897 127.436C155.983 127.256 155.983 126.99 155.84 126.829C152.844 123.293 147.27 125.606 143.563 123.881C143.534 123.881 143.506 123.918 143.534 123.937H143.544Z" fill="#824916"/>
<path d="M151.916 121.861C151.916 123.027 152.39 124.07 152.997 125.047C153.556 125.957 154.438 127.227 155.433 127.692C155.623 127.777 155.813 127.55 155.689 127.388C155.073 126.545 154.135 125.928 153.471 125.094C152.722 124.165 152.115 123.056 152.03 121.852C152.03 121.785 151.916 121.785 151.916 121.871V121.861Z" fill="#824916"/>
<path d="M152.01 121.899C154.864 120.344 156.646 125.54 159.149 126.023C159.671 126.118 159.775 125.369 159.291 125.217C157.016 124.516 154.646 119.993 151.953 121.795C151.887 121.842 151.953 121.927 152.02 121.899H152.01Z" fill="#824916"/>
<path d="M156.343 119.766C156.286 121.89 156.542 124.174 158.542 125.341C158.732 125.454 158.884 125.132 158.694 125.028C156.741 124.004 156.447 121.757 156.4 119.747C156.4 119.718 156.343 119.718 156.343 119.756V119.766Z" fill="#824916"/>
<path d="M156.343 119.946C158.324 118.998 161.443 122.07 162.145 123.691C162.458 124.421 163.482 123.662 162.903 123.16C162.78 123.046 162.685 123.018 162.515 123.008C162.448 123.008 162.353 123.027 162.325 123.094C162.325 123.113 162.325 123.122 162.315 123.132C162.562 123.198 162.799 123.283 163.046 123.35C162.24 121.311 158.495 119.055 156.333 119.899C156.314 119.899 156.324 119.955 156.352 119.946H156.343Z" fill="#824916"/>
<path d="M167.245 115.5C164.922 115.395 163.178 116.609 162.211 118.676C161.614 119.946 161.282 122.212 162.353 123.321C162.533 123.52 162.789 123.198 162.609 123.008C161.652 121.984 162.201 120.003 162.609 118.865C163.358 116.808 165.046 115.594 167.226 115.547C167.255 115.547 167.264 115.49 167.226 115.49L167.245 115.5Z" fill="#824916"/>
<path d="M163.975 116.647C164.505 116.258 166.06 115.168 166.8 115.689C167.113 115.917 167.274 115.613 167.454 115.357C167.511 115.272 167.454 115.168 167.35 115.206C166.307 115.499 166.686 117.32 166.724 118.078C166.733 118.296 167.103 118.268 167.075 118.04C166.999 117.377 166.553 115.67 167.416 115.386C167.378 115.338 167.331 115.291 167.293 115.244C167.236 115.329 167.084 115.68 166.942 115.594C166.819 115.518 166.705 115.452 166.553 115.443C165.643 115.319 164.657 116.201 163.946 116.609C163.927 116.628 163.946 116.656 163.975 116.647Z" fill="#824916"/>
<path d="M166.924 118.078C167.806 115.025 168.924 117.737 169.275 118.458C169.635 119.188 169.626 120.003 169.578 120.799C169.503 122.127 169.493 123.274 169.901 124.563C170.498 126.431 172.157 127.644 174.034 127.872C178.377 128.403 180.642 122.781 178.841 119.396C178.765 119.254 178.557 119.339 178.528 119.472C178.054 121.577 178.471 123.501 177.106 125.35C176.111 126.715 174.423 127.303 172.811 126.706C170.185 125.729 170.138 122.61 170.204 120.306C170.252 118.638 169.322 117.424 168.336 116.182C168.289 116.125 168.213 116.097 168.147 116.125C167.256 116.533 167.009 117.111 166.857 118.059C166.857 118.097 166.905 118.107 166.914 118.078H166.924Z" fill="#824916"/>
<path d="M198.295 98.6616C194.228 101.895 189.222 106.578 189.801 112.295C189.971 113.992 190.787 115.481 190.701 117.244C190.606 119.254 189.725 121.084 188.483 122.639C187.269 124.146 185.411 124.648 183.543 124.506C181.865 124.392 179.353 123.767 179.485 121.634C179.523 121.055 178.651 120.875 178.575 121.472C178.243 124.241 180.983 125.445 183.325 125.767C186.662 126.232 189.156 124.392 190.787 121.643C191.773 119.974 192.266 118.126 191.896 116.201C191.441 113.878 190.17 112.257 190.502 109.764C191.062 105.469 194.93 101.136 198.333 98.6901C198.362 98.6711 198.333 98.6332 198.314 98.6616H198.295Z" fill="#824916"/>
<path d="M124.8 132.423C131.512 131.844 137.153 136.044 142.548 139.401C147.535 142.51 152.664 144.605 158.627 144.122C164.211 143.657 169.558 141.05 173.749 137.4C175.816 135.608 177.627 133.428 178.954 131.048C180.48 128.318 180.272 125.416 179.599 122.468C179.418 121.681 178.271 121.975 178.537 122.714C180.897 129.247 175.778 134.897 170.8 138.49C166.107 141.875 160.182 143.619 154.408 143.136C143.429 142.235 136.158 131.399 124.8 132.385C124.771 132.385 124.771 132.432 124.8 132.423Z" fill="#824916"/>
<path d="M179.694 124.487C181.353 132.375 182.045 140.728 181.951 148.777C181.818 158.391 177.618 167.805 173.863 176.489C170.261 184.832 165.843 192.796 160.42 200.097C159.14 201.841 157.746 203.481 156.542 205.283C155.357 207.046 154.276 208.847 152.92 210.487C150.266 213.701 146.682 216.185 142.378 216.119C142.207 216.119 142.217 216.366 142.359 216.403C145.639 217.181 148.92 215.067 151.309 213.028C154.58 210.231 156.552 206.202 159.282 202.922C165.302 195.707 169.806 187.468 173.579 178.869C177.447 170.052 181.353 160.675 182.178 151.005C182.937 142.178 181.107 133.143 179.742 124.468C179.742 124.449 179.704 124.459 179.704 124.468L179.694 124.487Z" fill="#824916"/>
<path d="M179.419 122.25C179.571 127.625 180.841 132.622 182.367 137.751C184.008 143.25 185.951 148.578 188.122 153.897C190.142 158.827 192.171 163.719 194.787 168.374C197.413 173.048 200.495 177.447 203.595 181.808C206.752 186.236 209.909 190.625 213.483 194.74C217.067 198.864 220.822 202.836 224.187 207.141C227.439 211.312 230.302 216.1 231.07 221.4C231.677 225.59 231.743 229.952 231.658 234.17C231.658 234.36 231.99 234.37 232.009 234.18C232.322 230.075 232.322 225.97 231.867 221.874C231.355 217.342 229.335 213.464 226.918 209.653C224.026 205.074 220.215 201.073 216.631 197.034C212.99 192.939 209.625 188.729 206.458 184.264C203.348 179.893 200.239 175.522 197.423 170.953C194.427 166.098 192.133 160.979 189.962 155.708C187.772 150.389 185.705 145.023 183.865 139.571C181.988 133.978 179.703 128.194 179.466 122.231C179.466 122.202 179.419 122.212 179.428 122.231L179.419 122.25Z" fill="#824916"/>
<path d="M179.03 122.534C180.263 125.141 181.704 126.962 184.444 128.062C188.047 129.503 191.763 129.408 195.47 128.498C203.756 126.478 211.151 121.017 217.892 116.021C225.391 110.465 232.578 104.881 241.404 101.544C245.68 99.9321 250.193 99.0029 254.725 98.5194C259.37 98.0264 264.462 98.3582 267.372 102.568C267.476 102.719 267.723 102.539 267.609 102.397C263.011 96.8508 254.478 97.6472 248.117 98.8607C240.096 100.387 232.464 104.217 225.846 108.92C218.622 114.039 211.9 119.804 204.126 124.127C200.134 126.355 195.622 128.251 191.023 128.545C186.283 128.858 181.201 126.914 179.087 122.534C179.078 122.506 179.03 122.525 179.049 122.534H179.03Z" fill="#824916"/>
<path d="M198.324 98.6901C198.448 98.5099 198.571 98.3298 198.694 98.1402C198.808 97.9695 198.552 97.7989 198.448 97.9885C196.827 100.662 197.85 103.658 197.443 106.578C197.357 107.204 198.334 107.374 198.41 106.739C198.58 105.412 198.486 104.085 198.4 102.738C198.343 101.999 198.268 101.269 198.239 100.529C198.239 100.027 198.277 99.5244 198.391 99.0314C198.419 98.235 198.391 98.1023 198.277 98.6522C198.277 98.6806 198.306 98.709 198.324 98.6806V98.6901Z" fill="#824916"/>
<path d="M217.465 89.5506C214.337 93.2197 209.132 94.0729 205.254 96.7086C201.737 99.0978 198.087 102.9 197.556 107.27C197.518 107.593 198.02 107.697 198.068 107.356C198.76 102.312 203.519 98.1876 207.7 95.7795C211.075 93.8264 215.389 93.1628 217.56 89.6075C217.598 89.5506 217.503 89.4937 217.465 89.5411V89.5506Z" fill="#824916"/>
<path d="M217.996 89.4368C216.906 89.873 216.347 90.7641 216.024 91.8829C215.768 92.793 215.655 93.7316 215.427 94.6323C215.067 96.0449 214.27 97.0025 213.446 98.1592C213.265 98.3962 213.54 98.6901 213.796 98.5384C214.934 97.8842 215.569 96.4905 215.911 95.258C216.413 93.4282 216.186 90.6124 218.072 89.5885C218.158 89.5411 218.082 89.3989 217.996 89.4368Z" fill="#824916"/>
<path d="M234.512 90.821C232.502 92.6887 229.999 92.9068 227.392 93.1248C225.325 93.305 223.381 93.6937 221.362 94.1582C218.982 94.6892 214.119 95.533 213.445 98.453C213.408 98.6237 213.645 98.728 213.758 98.5858C216.242 95.4097 220.319 95.0115 224.054 94.1488C227.856 93.2671 231.743 94.1014 234.654 90.9253C234.73 90.84 234.597 90.7452 234.521 90.8115L234.512 90.821Z" fill="#824916"/>
<path d="M234.55 90.8684C234.029 92.4422 232.607 93.523 231.488 94.6702C230.075 96.1113 228.824 97.6472 227.108 98.7564C226.757 98.984 227.136 99.5149 227.468 99.2779C229.213 98.1117 230.483 96.5284 231.896 95.0115C232.986 93.8454 234.266 92.4991 234.598 90.8874C234.607 90.8589 234.56 90.8495 234.541 90.8684H234.55Z" fill="#824916"/>
<path d="M237.043 122.013C234.938 122.752 233.251 123.52 231.809 125.255C230.937 126.308 230.15 127.379 229.041 128.223C227.685 129.256 226.017 129.218 224.414 129.085C222.632 128.943 221.049 128.611 219.314 129.247C218.11 129.692 216.583 131.247 217.124 132.688C218.802 137.087 226.055 133.181 228.908 132.66C231.923 132.11 234.986 132.536 237.773 133.75C240.399 134.907 242.731 136.642 245.414 137.666C246.012 137.893 246.429 136.983 245.832 136.774C241.812 135.381 238.607 132.432 234.398 131.446C232.321 130.953 230.179 130.887 228.065 131.095C225.742 131.332 223.656 132.451 221.371 132.792C220.831 132.859 220.29 132.821 219.769 132.688C218.11 132.385 219.058 130.564 220.129 130.034C220.963 129.626 221.978 129.626 222.888 129.626C224.339 129.607 225.931 129.967 227.354 129.578C228.927 129.152 230.056 128.213 231.089 126.99C231.743 126.222 232.274 125.35 232.9 124.554C233.895 123.283 235.64 122.657 237.081 122.051C237.119 122.051 237.09 121.984 237.062 122.003L237.043 122.013Z" fill="#824916"/>
<path d="M228.738 121.861C231.089 118.884 234.749 124.468 237.185 122.146C237.299 122.041 237.185 121.842 237.034 121.861C235.062 122.155 233.592 121.254 231.724 120.78C230.463 120.458 229.392 120.704 228.681 121.833C228.662 121.861 228.71 121.89 228.738 121.861Z" fill="#824916"/>
<path d="M228.472 122.231C229.951 120.012 233.232 120.259 235.545 119.671C238.076 119.036 240.333 116.855 242.096 115.025C242.381 114.732 241.954 114.314 241.632 114.523C240.409 115.272 239.461 116.429 238.399 117.377C237.109 118.524 235.649 119.083 234.009 119.481C231.961 119.965 229.705 120.373 228.444 122.202C228.434 122.212 228.453 122.24 228.472 122.221V122.231Z" fill="#824916"/>
<path d="M232.626 116.732C233.299 113.859 236.466 114.76 238.551 115.177C239.566 115.376 241.405 115.803 242.154 114.788C242.249 114.665 242.135 114.438 241.964 114.514C239.054 115.737 233.801 112.475 232.588 116.732C232.588 116.751 232.616 116.76 232.626 116.732Z" fill="#824916"/>
<path d="M234.483 114.722C237.944 112.627 242.864 113.243 245.737 110.077C245.927 109.877 245.68 109.584 245.443 109.669C244.599 109.925 243.993 110.427 243.253 110.93C242.239 111.622 241.148 112.03 239.992 112.399C238.02 113.035 236.161 113.471 234.445 114.675C234.417 114.703 234.445 114.741 234.474 114.732L234.483 114.722Z" fill="#824916"/>
<path d="M240.362 109.877C241.67 109.546 242.941 109.963 244.221 110.181C244.913 110.295 245.794 110.418 246.287 109.839C246.42 109.688 246.335 109.451 246.136 109.413C245.681 109.337 245.33 109.498 244.875 109.565C244.259 109.65 243.604 109.565 242.979 109.527C242.068 109.47 241.196 109.479 240.343 109.83C240.305 109.849 240.324 109.887 240.362 109.887V109.877Z" fill="#824916"/>
<path d="M229.62 97.4386C232.673 95.0779 236.266 93.9781 240.096 93.7221C243.32 93.5136 246.543 94.054 249.653 92.9258C250.004 92.793 249.852 92.338 249.511 92.338C246.477 92.3 246.022 96.7086 243.045 96.8129C243.064 96.9741 243.073 97.1352 243.092 97.2869C245.51 96.8982 247.823 96.0165 250.25 95.6941C252.554 95.3813 255.028 95.6941 257.323 96.0355C261.229 96.6233 266.13 98.1118 267.079 102.511C267.202 103.08 267.998 102.9 267.865 102.321C266.908 98.3108 263.068 96.5474 259.39 95.6562C257.067 95.0969 254.611 94.9736 252.232 94.9641C249.027 94.9641 246.164 96.3673 243.054 96.8129C242.751 96.8508 242.798 97.2964 243.102 97.2869C246.107 97.23 246.723 92.8689 249.587 92.9447C249.539 92.7456 249.492 92.5465 249.444 92.3474C245.804 93.5989 241.907 92.6887 238.162 93.1817C234.977 93.5989 231.914 95.2296 229.554 97.3533C229.497 97.4007 229.554 97.4955 229.62 97.4386Z" fill="#824916"/>
<path d="M267.496 102.454C266.339 101.307 264.974 101.022 263.4 100.814C261.874 100.615 260.414 100.264 258.868 100.643C256.735 101.174 254.687 102.046 252.554 102.615C250.203 103.241 247.918 103.923 245.737 105.014C245.443 105.165 245.624 105.658 245.927 105.507C249.378 103.753 253.189 103.184 256.801 101.847C259.712 100.776 264.879 100.273 267.458 102.492C267.486 102.52 267.524 102.482 267.496 102.454Z" fill="#824916"/>
<path d="M245.339 105.753C248.155 104.113 250.601 105.706 253.36 106.464C253.36 106.199 253.379 105.943 253.388 105.677C249.473 105.858 245.908 108.616 242.163 109.508C241.993 109.546 242.03 109.821 242.192 109.839C244.202 110.095 246.211 108.901 247.994 108.105C249.634 107.374 251.653 106.559 253.464 106.464C253.938 106.445 253.9 105.791 253.493 105.677C250.468 104.881 247.965 103.137 245.207 105.564C245.102 105.677 245.207 105.829 245.339 105.753Z" fill="#824916"/>
<path d="M179.467 122.942C180.832 127.825 183.344 131.598 186.643 135.409C190.313 139.666 194.048 143.847 198.115 147.715C206.904 156.077 216.954 163.254 227.733 168.838C237.84 174.072 248.667 177.248 260.053 177.798C266.803 178.13 275.403 177.286 277.261 169.474C277.337 169.151 276.976 168.876 276.682 168.99C276.265 169.151 276.218 169.18 275.924 169.512C275.554 169.938 276.218 170.498 276.588 170.08C276.711 169.976 276.844 169.891 276.976 169.796C276.787 169.635 276.588 169.474 276.398 169.312C274.436 177.637 264.244 177.314 257.493 176.831C246.097 175.996 235.384 172.185 225.372 166.772C215.617 161.491 206.601 154.807 198.494 147.241C194.579 143.582 191.043 139.562 187.487 135.551C184.197 131.825 181.059 127.692 179.485 122.913C179.485 122.885 179.438 122.913 179.448 122.923L179.467 122.942Z" fill="#824916"/>
<path d="M209.709 163.965C212.231 160.571 218.337 168.867 219.446 170.829C220.28 172.308 220.612 173.996 221.285 175.541C221.816 176.764 222.85 177.693 223.864 178.518C226.225 180.414 229.012 180.983 231.667 182.254C232.207 182.51 232.605 181.666 232.065 181.419C230.529 180.699 228.842 180.424 227.344 179.609C225.438 178.575 223.637 177.523 222.366 175.712C221.266 174.148 220.954 172.119 219.968 170.479C219.465 169.644 218.83 168.895 218.195 168.156C216.716 166.43 212.174 161.149 209.681 163.956C209.662 163.975 209.7 164.003 209.719 163.975L209.709 163.965Z" fill="#824916"/>
<path d="M228.425 174.442C229.563 176.053 230.169 177.902 230.634 179.817C230.795 180.5 231.203 182.804 232.303 182.567C232.464 182.519 232.597 182.386 232.53 182.216C232.331 181.723 231.886 181.4 231.639 180.898C231.317 180.225 231.127 179.485 230.871 178.784C230.293 177.191 229.563 175.702 228.472 174.404C228.444 174.375 228.406 174.404 228.425 174.442Z" fill="#824916"/>
<path d="M228.436 174.451C230.246 175.826 230.796 178.196 232.427 179.713C234.541 181.694 236.655 183.429 239.158 184.889C240.628 185.743 247.909 189.791 249.227 187.373C249.341 187.165 249.189 186.871 248.952 186.842C248.269 186.767 247.644 186.985 246.942 186.909C245.975 186.804 245.036 186.444 244.126 186.122C242.107 185.42 240.249 184.595 238.352 183.572C235.982 182.282 233.403 180.301 231.782 178.111C230.777 176.755 229.943 175.295 228.464 174.404C228.436 174.385 228.398 174.432 228.426 174.46L228.436 174.451Z" fill="#824916"/>
<path d="M243.566 181.097C244.41 181.884 244.391 182.87 244.666 183.894C244.865 184.643 245.178 185.259 245.642 185.875C246.372 186.842 247.7 187.449 248.904 187.449C249.16 187.449 249.15 187.117 248.98 187.013C248.401 186.672 247.757 186.53 247.14 186.283C246.401 185.999 245.879 185.43 245.424 184.795C244.562 183.6 244.694 182.13 243.576 181.078C243.557 181.069 243.538 181.097 243.557 181.107L243.566 181.097Z" fill="#824916"/>
<path d="M243.537 181.125C246.04 183.06 248.164 184.548 251.113 185.762C252.373 186.292 257.076 188.511 258.185 186.918C258.27 186.795 258.223 186.624 258.062 186.586C257.152 186.416 256.194 186.586 255.237 186.397C253.777 186.103 252.354 185.553 250.961 184.994C248.24 183.903 246.059 182.652 243.613 181.04C243.547 181.002 243.471 181.078 243.537 181.125Z" fill="#824916"/>
<path d="M251.236 179.419C252.904 180.708 253.786 182.946 254.943 184.643C255.559 185.544 257.161 187.753 258.46 187.136C258.64 187.06 258.745 186.833 258.612 186.662C258.176 186.103 257.417 185.989 256.848 185.562C255.891 184.861 255.17 183.856 254.45 182.927C253.502 181.685 252.611 180.225 251.264 179.362C251.245 179.353 251.207 179.39 251.236 179.409V179.419Z" fill="#824916"/>
<path d="M251.265 179.428C253.825 178.86 255.882 181.069 258.262 181.59C260.784 182.149 263.021 181.609 265.429 180.794C270.075 179.239 273.934 175.721 276.427 171.559C276.512 171.408 276.285 171.275 276.19 171.398C273.156 175.475 269.411 178.623 264.491 180.102C261.637 180.945 259.201 181.107 256.432 179.921C254.754 179.201 253.01 178.585 251.256 179.362C251.227 179.381 251.227 179.428 251.265 179.419V179.428Z" fill="#824916"/>
<path d="M237.859 139.666C239.395 140.064 240.713 140.263 242.23 139.713C242.837 139.495 243.415 138.898 243.927 138.519C244.666 137.969 245.548 137.846 246.269 137.353C246.364 137.286 246.363 137.154 246.278 137.087C245.453 136.386 244.183 137.419 243.491 137.903C241.595 139.23 240.229 139.799 237.859 139.6C237.821 139.6 237.812 139.647 237.859 139.657V139.666Z" fill="#824916"/>
<path d="M237.821 139.704C240.76 141.079 244.192 140.69 247.074 142.216C248.553 143.013 250.06 143.733 251.17 145.042C251.928 145.942 251.928 147.146 252.933 147.819C253.104 147.933 253.407 147.791 253.303 147.554C252.127 144.975 250.895 143.496 248.382 142.15C246.97 141.392 245.661 140.851 244.068 140.595C241.964 140.263 239.916 140.339 237.906 139.543C237.802 139.505 237.726 139.657 237.83 139.704H237.821Z" fill="#824916"/>
<path d="M244.799 144.046C246.856 146.122 250.098 146.464 252.696 147.497C253.009 147.62 253.236 147.127 252.914 147.014C250.241 146.122 246.989 145.961 244.818 143.999C244.789 143.97 244.761 144.018 244.789 144.037L244.799 144.046Z" fill="#824916"/>
<path d="M245.984 144.937C247.814 145.743 248.743 147.867 250.051 149.289C251.321 150.664 252.838 151.82 254.27 153.015C255.929 154.399 258.271 156.077 260.432 154.845C260.319 154.684 260.214 154.532 260.101 154.38C257.655 155.897 254.09 156.049 251.795 154.172C251.435 153.878 250.98 154.466 251.35 154.703C253.824 156.314 257.93 156.428 260.442 154.845C260.755 154.636 260.423 154.181 260.11 154.38C257.455 155.897 254.46 152.313 252.544 150.853C251.056 149.716 249.805 148.265 248.572 146.871C247.785 145.971 247.197 145.279 246.022 144.88C245.993 144.88 245.965 144.918 245.993 144.937H245.984Z" fill="#824916"/>
<path d="M251.568 154.465C254.754 155.357 256.413 158.22 258.65 160.382C260.215 161.898 262.395 162.723 264.538 162.828C264.813 162.847 265.002 162.429 264.69 162.335C263.58 161.984 262.433 161.813 261.343 161.377C259.902 160.799 258.878 159.633 257.826 158.571C256.034 156.769 254.147 154.921 251.568 154.409C251.53 154.409 251.521 154.456 251.568 154.465Z" fill="#824916"/>
<path d="M257.484 161.936C258.896 162.344 260.167 163.197 261.636 163.415C262.584 163.558 263.779 163.065 264.689 162.847C264.945 162.79 264.926 162.41 264.708 162.316C263.902 161.965 263.087 162.316 262.281 162.543C260.764 162.989 259.01 161.984 257.512 161.756C257.398 161.737 257.37 161.898 257.484 161.927V161.936Z" fill="#824916"/>
<path d="M258.45 162.154C260.565 162.505 261.228 163.434 261.693 165.368C261.939 166.402 262.3 167.151 263.039 167.919C264.328 169.265 266.49 171.379 268.481 170.147C268.955 169.853 268.547 169.094 268.026 169.293C266.158 170.052 264.632 169.853 262.726 169.341C262.442 169.265 262.29 169.673 262.489 169.843C264.072 171.18 266.566 170.867 268.367 170.194C268.216 169.9 268.073 169.625 267.922 169.35C266.651 170.09 264.717 168.317 263.826 167.577C262.916 166.809 262.451 165.966 262.1 164.837C261.513 162.922 260.46 162.183 258.46 162.031C258.384 162.031 258.365 162.126 258.441 162.145L258.45 162.154Z" fill="#824916"/>
<path d="M262.85 169.512C265.078 174.081 274.967 176.954 276.114 170.128C276.142 170.023 276 169.976 275.953 170.071C273.364 175.39 265.893 173.503 262.897 169.493C262.879 169.464 262.831 169.493 262.85 169.521V169.512Z" fill="#824916"/>
<path d="M220.831 54.9457C222.206 56.2257 212.554 61.7245 211.436 62.3313C205.69 65.4125 200.049 68.1809 195.84 73.3669C184.472 87.4648 174.271 105.952 179.248 124.658C179.409 125.265 180.348 124.923 180.168 124.307C177.343 114.362 179.391 103.165 183.723 93.9592C185.961 89.1998 188.786 84.7628 191.877 80.5154C194.948 76.2965 198.049 71.8689 202.391 68.892C206.932 65.7538 212.09 63.9999 216.915 61.4022C218.973 60.2834 221.201 59.2595 222.49 57.2306C223.324 55.9128 223.135 54.3674 221.571 53.7796C220.831 53.5047 220.224 54.3864 220.822 54.9363L220.831 54.9457Z" fill="#824916"/>
<path d="M263.959 40.5824C258.612 42.0614 253.768 44.1756 249.53 47.8541C245.519 51.343 242.324 56.3868 240.352 61.2789C238.513 65.8486 238.124 71.3285 238.854 76.1732C239.518 80.6102 242.798 82.9235 246.97 83.7673C251.644 84.7154 256.271 83.1416 260.271 80.7904C263.751 78.7615 268.415 75.4148 270.008 71.5371C270.454 70.4753 270.596 69.0342 269.714 68.143C268.453 66.8631 266.443 67.2992 264.936 67.8396C260.698 69.366 258.887 74.6942 257.238 78.4202C255.322 82.7529 256.934 86.5357 261.352 88.2138C265.761 89.8919 270.871 87.3131 274.436 84.8481C276.028 83.7484 280.902 79.226 276.512 78.3254C272.833 77.5764 270.454 82.2125 270.511 85.161C270.681 93.6842 286.382 88.9249 284.011 84.5068C283.49 83.5398 281.499 84.175 280.854 84.5542C279.47 85.398 278.958 86.7253 279.119 88.2991C279.261 89.6454 280.191 90.9158 281.309 91.6269C282.883 92.6319 286.012 93.4946 285.87 95.8079C285.765 97.7041 283.566 99.1262 282.21 100.15C280.902 101.165 279.555 102.141 278.645 103.544C276.806 106.341 279.205 108.787 281.3 110.484C281.764 110.863 282.362 110.162 281.888 109.773C279.612 107.896 277.868 105.744 280.219 103.108C281.651 101.506 283.632 100.435 285.177 98.9555C287.718 96.5 287.055 93.8264 284.267 92.1104C282.4 90.9632 280.418 90.2711 280.172 87.7682C280.096 86.9529 280.484 86.2323 281.11 85.7204C281.489 85.4075 284.03 84.5163 282.712 86.403C281.916 87.5596 280.143 87.9958 278.863 88.3086C276.692 88.8395 273.791 88.9912 272.208 87.114C269.894 84.3836 272.549 80.0319 275.526 79.4536C276.91 79.1881 277.043 80.7145 276.332 81.5962C275.991 82.0134 275.573 82.3642 275.175 82.715C274.237 83.5493 273.165 84.2319 272.084 84.8955C269.392 86.5452 266.017 87.8156 262.822 87.2847C259.598 86.7348 257.124 84.0612 257.873 80.743C258.205 79.2924 259.086 77.8892 259.769 76.5809C260.452 75.2915 261.03 73.9547 261.855 72.7317C262.879 71.1863 266.14 67.9534 268.254 69.4229C269.809 70.5037 266.112 74.5236 265.524 75.1967C261.779 79.4536 256.204 82.7055 250.497 83.1321C248.307 83.2933 245.993 82.8192 243.983 81.9755C241.225 80.7998 239.983 78.3159 239.546 75.4906C238.807 70.6838 239.49 65.403 241.262 60.9186C245.235 50.9164 253.834 43.7869 263.978 40.6203C264.007 40.6203 263.988 40.5729 263.969 40.5824H263.959Z" fill="#824916"/>
<path d="M93.6561 102.947C92.4899 103.62 90.7929 104.17 89.4561 104.682C86.4507 105.791 83.5591 107.403 80.6295 108.711C74.2679 111.555 67.7925 114.409 61.118 116.429C57.2309 117.604 53.0688 117.86 49.0206 118.012C42.7158 118.249 36.5533 117.396 31.2346 113.783C28.9497 112.229 26.608 109.877 26.1719 107.043C25.6978 103.961 28.5421 101.411 30.8269 99.9131C33.3299 98.2634 36.6387 97.761 39.5682 97.4765C40.7723 97.3628 42.5073 97.1826 43.5501 97.9411C45.579 99.4296 39.9854 101.866 39.1037 102.16C33.3204 104.066 26.9303 103.013 21.2039 101.43C16.4256 100.103 9.12542 96.8698 9.91233 90.8305C10.6613 85.1041 18.6157 82.9899 23.3466 83.8526C24.124 83.9949 25.8969 84.431 25.5082 85.5876C25.3091 86.1754 24.5222 86.3745 24.0008 86.4978C22.3796 86.8675 20.5592 86.5831 18.9286 86.3366C15.9611 85.8815 12.8419 85.1705 10.3674 83.407C3.74982 78.7141 12.6997 71.8689 17.8193 71.575C18.9191 71.5087 20.6446 72.1249 20.1231 73.7082C19.8482 74.533 18.938 75.1114 18.2175 75.4906C17.0608 76.0879 15.98 75.6992 15.0699 74.9028C13.515 73.5281 12.766 71.2716 11.8748 69.4608C11.0121 67.6974 9.65635 66.5787 7.79811 66.0003C6.49925 65.5927 5.09609 65.8486 3.76878 65.7918C1.12364 65.678 1.17105 63.3362 1.32274 61.3927C1.3891 60.6152 0.185044 60.3972 0.128159 61.1841C0.0143897 62.5778 -0.307957 64.692 0.858179 65.7728C2.66901 67.4888 4.83063 66.7114 7.05861 67.0622C11.3534 67.7164 11.7326 73.5281 14.6338 76.0689C17.0703 78.1926 21.1755 76.2965 21.678 73.2816C21.9055 71.9258 20.6256 70.7218 19.431 70.3899C17.2694 69.7832 15.0604 70.5037 13.0884 71.4233C9.22971 73.2152 5.63649 76.9506 7.03965 81.473C7.95929 84.431 11.4577 85.9858 14.1787 86.7917C16.4825 87.4648 28.9687 90.2996 26.9303 84.2888C25.9254 81.3213 19.6301 81.7764 17.478 82.3168C13.1548 83.3976 8.71775 86.2892 8.05409 91.0296C7.47577 95.2485 10.8225 98.8038 14.2924 100.558C19.194 103.051 25.11 104.179 30.5615 104.53C34.6382 104.786 40.6775 104.35 43.8346 101.297C45.4558 99.7235 45.9014 97.0404 43.2752 96.3009C40.5447 95.533 37.3876 96.2725 34.7046 96.9077C31.3768 97.6851 28.4567 99.3537 26.333 102.094C19.9809 110.257 32.9601 117.377 39.3786 118.818C47.2287 120.6 56.1691 119.406 63.6778 116.647C70.0679 114.305 76.3442 111.669 82.6205 109.024C86.4033 107.431 90.755 106.038 94.1396 103.62C94.5757 103.317 94.1206 102.7 93.675 102.956L93.6561 102.947Z" fill="#824916"/>
<path d="M168.914 25.2614C169.237 25.8208 168.004 24.5409 168.014 24.5598C167.634 24.0953 167.293 23.6023 166.961 23.0998C166.117 21.8388 165.539 20.4262 165.378 18.9187C165.169 16.9467 166.184 14.9179 168.241 14.5386C170.043 14.2068 171.123 15.7711 171.692 17.1648C171.901 17.6768 172.299 18.9567 170.848 18.4732C170.109 18.2267 169.654 17.4682 169.341 16.8045C168.838 15.7616 168.848 14.4817 169.009 13.3535C169.568 9.47589 173.522 9.94045 175.854 11.9125C182.131 17.2122 175.522 29.5562 183.894 33.6803C191.393 37.3873 194.626 26.2853 191.649 21.1562C190.085 18.4447 187.487 19.8763 186.719 22.2181C185.61 25.5553 186.463 28.8546 188.909 31.3575C192.986 35.5386 206.079 38.032 205.766 29.0537C205.643 25.707 202.05 24.3323 199.642 26.3991C196.57 29.0253 197.565 33.614 199.404 36.6004C204.657 45.1141 215.493 49.4564 225.116 49.5227C229.923 49.5512 234.218 47.399 238.892 46.65C241.869 46.1665 244.884 45.6356 247.889 45.3227C247.965 45.3227 247.956 45.1995 247.88 45.1995C244.751 45.5218 241.594 45.5503 238.465 45.8347C236.768 45.9959 235.119 46.4035 233.478 46.8681C229.933 47.9015 226.643 48.4419 222.926 48.2523C216.84 47.9394 211.056 45.7304 206.221 42.0519C202.258 39.0464 195.138 31.7083 200.523 26.7973C202.296 25.1855 204.344 26.7404 204.761 28.684C205.036 29.9544 204.505 31.2722 203.737 32.2582C201.936 34.5715 198.276 34.0785 195.811 33.4812C190.986 32.3151 186.805 28.5417 187.525 23.2894C187.648 22.3698 187.914 21.3174 188.634 20.6727C189.924 19.535 191.251 21.6871 191.583 22.5783C192.303 24.465 192.199 26.8162 191.839 28.7598C191.308 31.6135 188.947 33.9268 185.961 33.5666C183.391 33.2537 181.704 31.4334 180.765 29.1485C178.395 23.3937 181.192 15.5436 175.902 11.0971C174.366 9.80772 171.455 8.81223 169.843 10.5377C168.127 12.377 167.985 15.1264 169.075 17.3544C169.455 18.1129 171.645 20.1418 172.337 18.6722C173.124 16.9847 171.19 14.7472 169.853 14.0646C167.255 12.7468 165.075 15.3066 164.676 17.6104C164.051 21.1467 166.686 23.8677 169.113 25.9725C169.142 26.0009 169.199 25.9725 169.199 25.925C169.113 25.4131 169.199 25.6311 168.952 25.214C168.943 25.195 168.905 25.214 168.914 25.233V25.2614Z" fill="#824916"/>
<path d="M158.505 12.8321C149.204 11.6944 140.605 15.1075 134.167 21.8578C126.355 30.0682 123.862 41.2744 124.203 52.3101C124.355 57.0694 125.331 61.7814 127.465 66.0477C129.617 70.3615 133.267 73.7556 137.296 76.3154C141.875 79.226 147.147 81.3118 152.617 81.4825C158.438 81.6626 164.117 79.8897 169.54 77.9461C173.551 76.5145 177.57 75.0545 181.496 73.3859C183.022 72.7222 184.624 72.1818 186.17 71.575C186.795 71.3285 187.468 70.9588 188.142 70.8829C188.777 70.826 188.777 71.0062 189.44 70.7123C191.204 69.9254 190.17 67.1001 188.388 67.8965C187.497 68.2947 186.776 69.1574 185.876 69.6315C184.264 70.4753 182.643 71.3001 181.021 72.1154C177.267 74.0306 172.991 75.1682 169.028 76.5619C163.141 78.6287 156.931 80.3827 150.645 79.6147C144.577 78.8658 138.908 76.1068 134.13 72.3714C124.99 65.2229 124.032 52.9263 125.464 42.213C127 30.6844 133.921 19.5919 144.909 15.0316C149.166 13.2587 153.935 12.8511 158.495 12.87C158.524 12.87 158.524 12.8321 158.495 12.8226L158.505 12.8321Z" fill="#824916"/>
<path d="M153.811 12.7088C150.863 12.9553 148.132 13.8465 145.914 15.8944C143.8 17.8474 141.61 20.9856 141.913 24.0194C141.96 24.465 142.548 24.4461 142.662 24.0479C143.468 21.2036 143.923 18.9662 146.009 16.7003C147.971 14.5671 150.958 13.107 153.821 12.7468C153.849 12.7468 153.849 12.7088 153.821 12.7183L153.811 12.7088Z" fill="#824916"/>
<path d="M142.292 24.3133C142.994 22.0474 144.805 21.2131 146.985 21.2226C147.896 21.2226 148.521 20.9856 149.062 20.2556C149.175 20.1039 149.119 19.8289 148.901 19.8005C147.384 19.6014 146.673 21.3743 146.198 22.512C145.848 23.3463 145.573 24.2091 145.288 25.0718C144.653 26.949 143.326 28.3616 142.596 30.1535C142.454 30.5043 142.871 30.7413 143.127 30.4948C144.615 29.0917 145.468 27.0154 146.018 25.0813C146.341 23.9436 147.042 20.1323 148.806 20.3504C148.749 20.1987 148.701 20.047 148.645 19.8953C147.659 21.2416 145.762 20.3314 144.492 21.1088C143.259 21.8673 142.491 22.8628 142.188 24.2849C142.179 24.3607 142.283 24.3797 142.302 24.3039L142.292 24.3133Z" fill="#824916"/>
<path d="M143.013 30.656C143.325 28.5797 145.411 29.1485 146.833 28.5038C146.748 28.3711 146.663 28.2573 146.577 28.1341C145.449 29.2623 145.279 30.7508 145.127 32.2677C145.032 33.1968 144.937 34.107 144.729 35.0171C144.425 36.2496 143.562 36.7332 142.766 37.558C142.643 37.6907 142.776 37.9088 142.937 37.8898C146.805 37.5675 145.089 30.5801 146.928 28.428C147.108 28.2289 146.843 27.9729 146.625 28.0962C145.079 28.9494 143.107 28.447 142.956 30.6465C142.956 30.6749 143.003 30.6939 143.013 30.6465V30.656Z" fill="#824916"/>
<path d="M143.43 37.776C143.317 35.7756 146.493 37.8613 147.175 38.2501C147.337 38.3449 147.46 38.0889 147.299 37.9941C146.445 37.5674 145.602 37.065 144.663 36.8659C143.876 36.6857 143.506 37.0176 143.393 37.776C143.393 37.8045 143.43 37.8045 143.43 37.776Z" fill="#824916"/>
<path d="M147.222 38.0984C146.028 39.0275 145.696 40.9805 145.469 42.3742C145.269 43.5498 144.843 44.6496 144.34 45.7399C143.752 47.0008 141.961 47.7309 141.136 48.9254C140.927 49.2383 141.174 49.7123 141.581 49.5606C142.397 49.2478 143.203 48.9918 144.046 48.7832C143.895 48.6126 143.752 48.4514 143.601 48.2902C143.051 49.7408 142.15 50.6794 140.586 51.0302C140.074 51.1439 139.733 51.3525 139.297 51.618C138.557 52.0731 137.979 53.2676 138.092 54.1304C138.396 56.4721 141.041 58.027 143.117 56.529C145.601 54.7277 145.658 51.7128 146.729 49.0866C147.459 47.2853 148.445 45.5124 149.384 43.8153C150.446 41.9002 152.295 40.8763 154.276 40.1178C154.172 39.9187 154.068 39.7386 153.963 39.5395C151.735 41.5399 153.375 45.1236 150.778 46.8017C150.313 47.1051 150.816 47.8257 151.28 47.5128C154.049 45.6072 152.2 42.0898 154.399 40.023C154.646 39.7954 154.324 39.3783 154.039 39.511C149.536 41.3787 147.403 44.9814 145.345 49.2762C144.89 50.2433 142.055 57.297 140.406 54.064C139.524 52.3385 141.961 51.7223 142.89 50.888C143.563 50.3001 143.914 49.3995 144.245 48.6031C144.34 48.3755 144.17 48.0248 143.885 48.0816C143.004 48.2713 142.16 48.5178 141.306 48.8117C141.458 49.0202 141.6 49.2288 141.743 49.4374C142.482 48.4419 143.544 47.9205 144.378 47.0388C145.099 46.2708 145.402 45.3701 145.753 44.3747C146.417 42.5069 145.905 39.6532 147.26 38.1458C147.279 38.1268 147.251 38.0889 147.222 38.1079V38.0984Z" fill="#824916"/>
<path d="M152.057 46.176C152.863 45.3606 153.442 44.3936 154.162 43.5024C155.025 42.45 156.21 42.1561 157.471 41.9476C158.429 41.7864 160.277 41.8054 160.884 40.8668C161.017 40.6582 160.685 40.4875 160.524 40.6392C159.87 41.3124 159.69 42.0613 159.566 42.962C159.367 44.4221 159.263 45.3796 158.002 46.3182C157.793 46.4699 157.898 46.906 158.201 46.8397C160.875 46.2803 159.31 42.469 160.846 40.9142C160.742 40.8288 160.628 40.7245 160.524 40.6392C159.86 41.6726 157.006 41.4735 155.878 41.8148C153.925 42.4026 153.205 44.7444 152.01 46.1381C151.982 46.1665 152.02 46.2044 152.048 46.1855L152.057 46.176Z" fill="#824916"/>
<path d="M158.959 46.0243C160.116 44.6781 160.95 43.3602 162.761 42.8388C163.643 42.5828 164.354 42.3268 164.979 41.6632C164.837 41.5399 164.705 41.4261 164.562 41.3029C163.908 42.0898 164.069 43.5688 163.207 44.1376C163.368 44.3178 163.538 44.4979 163.7 44.6781C164.562 43.3602 165.653 42.251 166.658 41.0469C167.321 40.2505 167.738 39.3878 168.554 38.7052C169.502 37.9183 170.668 37.8803 171.834 37.9088C172.062 37.9088 172.128 37.539 171.91 37.4727C170.431 36.9702 168.677 37.4158 167.568 38.544C166.658 39.4636 166.022 40.5918 165.169 41.5778C164.42 42.4501 163.681 43.3033 163.074 44.2988C162.875 44.6212 163.339 44.972 163.624 44.7539C164.714 43.948 164.23 42.706 164.97 41.6821C165.179 41.3977 164.771 41.0564 164.553 41.3219C163.728 42.3553 162.325 42.5354 161.197 43.1422C160.192 43.6731 159.632 45.1805 158.921 46.0148C158.902 46.0338 158.94 46.0622 158.95 46.0433L158.959 46.0243Z" fill="#824916"/>
<path d="M136.045 74.3719C136.32 74.5425 136.452 75.2251 136.708 75.5001C136.917 75.7276 137.211 75.4432 137.135 75.1967C135.789 70.7313 136.879 66.8631 139.79 63.2699C142.966 59.3448 147.365 57.2496 152.01 55.5999C156.239 54.102 159.832 52.4049 162.923 49.0771C166.26 45.4839 167.597 40.6203 171.863 37.8519C171.986 37.7666 171.863 37.577 171.73 37.6623C167.578 40.4591 165.805 45.1331 162.43 48.6505C158.173 53.078 152.522 54.1778 147.137 56.5764C143.364 58.264 139.733 61.241 137.59 64.7868C135.485 68.2473 135.021 71.6604 136.642 75.3863C136.794 75.2915 136.936 75.1872 137.078 75.0829C136.737 74.808 136.566 74.3434 136.073 74.334C136.054 74.334 136.054 74.3624 136.073 74.3719H136.045Z" fill="#824916"/>
<path d="M137.571 75.3863C135.656 73.7177 137.41 71.0915 139.174 70.2572C141.904 68.9678 141.07 72.2861 141.705 73.4902C142.426 74.8649 144.284 74.6847 145.535 74.4003C147.555 73.9547 149.489 72.8834 151.176 71.7267C153.556 70.0676 154.561 67.157 156.249 64.91C156.315 64.8152 156.192 64.7109 156.116 64.7963C154.779 66.3985 153.774 68.2283 152.447 69.8306C151.565 70.8924 150.323 71.575 149.119 72.2008C147.849 72.8549 146.474 73.3669 145.061 73.6324C144.36 73.7651 143.62 73.7651 142.956 73.4902C141.999 73.1014 142.34 71.6888 142.255 70.8924C141.98 68.1714 138.349 69.5177 137.259 70.6838C136.007 72.0396 135.922 74.4193 137.552 75.4432C137.581 75.4622 137.609 75.4148 137.581 75.3863H137.571Z" fill="#824916"/>
<path d="M150.654 64.0757C151.27 63.4974 151.953 62.9475 152.825 63.3647C153.327 63.6017 153.707 64.1042 154.143 64.4265C154.712 64.8626 155.622 65.422 156.304 65.0238C156.437 64.948 156.428 64.7489 156.323 64.6541C155.849 64.2653 155.186 64.1895 154.664 63.8008C154.209 63.4784 153.745 63.1656 153.242 62.9286C152.114 62.3692 151.223 63.1182 150.559 63.9904C150.521 64.0473 150.597 64.1231 150.644 64.0662L150.654 64.0757Z" fill="#824916"/>
<path d="M150.626 64.0568C152.162 61.5064 156.201 63.0139 158.628 62.4071C161.149 61.7814 163.596 59.5534 164.79 57.297C164.828 57.2211 164.743 57.1548 164.676 57.1737C163.036 57.6857 160.941 58.2356 159.253 57.6857C159.045 57.6193 158.732 57.79 158.855 58.0459C159.329 58.994 161.102 58.3967 161.851 58.2261C162.761 57.9985 163.652 57.7426 164.525 57.4297C164.297 57.515 163.643 58.5105 163.434 58.738C162.79 59.4112 162.031 60.0085 161.282 60.5678C159.007 62.2649 156.912 62.1796 154.257 62.2933C152.75 62.3597 151.422 62.7295 150.578 64.0378C150.559 64.0662 150.597 64.0757 150.616 64.0662L150.626 64.0568Z" fill="#824916"/>
<path d="M159.131 58.008C159.813 58.0839 160.155 57.9417 160.743 57.5814C161.719 56.9841 162.696 56.4153 163.701 55.8559C165.786 54.7087 167.332 52.6798 168.232 50.5182C168.27 50.4329 168.232 50.2907 168.109 50.2812C167.246 50.2243 166.649 50.7458 166.014 51.2862C165.625 51.6085 164.525 52.4807 165.436 51.2388C166.004 50.4708 166.44 49.6934 166.782 48.7738C167.436 46.9914 167.739 45.1521 168.128 43.3033C168.64 40.8952 169.844 39.2361 171.873 37.8424C171.996 37.7571 171.873 37.577 171.74 37.6528C169.74 38.8569 168.412 40.3453 167.673 42.5828C167.275 43.7963 167.227 45.1142 166.933 46.3467C166.412 48.6031 165.53 50.3002 164.25 52.1963C164.165 52.3385 164.231 52.5471 164.421 52.5187C165.17 52.4239 165.635 52.0351 166.184 51.5232C165.151 52.4618 168.412 49.5038 167.607 50.9638C167.028 52.0257 166.137 52.9074 165.236 53.6943C163.407 55.2965 161.217 56.7092 159.112 57.8848C159.064 57.9132 159.083 57.9891 159.14 57.9891L159.131 58.008Z" fill="#824916"/>
<path d="M137.571 76.1732C135.494 74.552 131.92 73.9073 129.597 75.32C127.132 76.8274 127.464 80.0604 128.64 82.2504C130.034 84.8387 133.162 87.6924 132.053 90.8874C130.82 94.4332 125.966 94.2815 124.478 97.6377C124.231 98.1876 125.018 98.5479 125.312 98.0359C126.829 95.4097 130.337 95.021 132.224 92.6982C133.598 91.0107 133.598 88.9344 132.792 87.0192C131.835 84.7249 129.996 82.9046 129.029 80.6197C128.052 78.3348 129.228 75.8224 131.74 75.3674C133.333 75.0735 136.111 75.557 137.533 76.2396C137.561 76.2491 137.59 76.2206 137.571 76.1827V76.1732Z" fill="#824916"/>
<path d="M126.166 89.6928C127.105 90.2617 125.427 92.6413 125.123 93.2007C124.374 94.547 123.976 96.3673 124.099 97.8842C124.166 98.7375 125.55 98.5953 125.427 97.7515C125.104 95.533 126.166 93.6084 126.849 91.589C127.095 90.8495 127.19 89.7213 126.185 89.6359C126.157 89.6359 126.138 89.6738 126.166 89.6928Z" fill="#824916"/>
<path d="M134.614 73.9831C131.419 73.0825 128.309 72.6084 124.981 72.9213C121.587 73.2436 118.335 74.7416 115.377 76.3438C109.196 79.7 104.133 83.7199 101.374 90.347C99.1081 95.7984 98.5867 102.16 99.0607 108C99.44 112.674 100.976 118.287 104.247 121.747C104.835 122.373 105.688 121.349 105.109 120.733C102.019 117.462 100.663 112.248 100.208 107.886C99.6106 102.236 100.331 96.1113 102.37 90.8115C104.683 84.8197 109.281 81.0748 114.685 77.9177C117.662 76.1732 120.98 74.5709 124.384 73.8504C127.712 73.1488 131.257 73.5944 134.595 74.0305C134.633 74.0305 134.633 73.9831 134.595 73.9736L134.614 73.9831Z" fill="#824916"/>
<path d="M56.359 93.1249C55.8944 91.9682 57.4587 90.1384 58.075 89.3041C58.9283 88.1474 59.9048 87.0666 60.8908 86.0332C63.7824 82.9994 67.3472 80.1836 70.9878 78.1073C71.0447 78.0789 70.9878 77.9746 70.9309 78.003C66.8826 80.0698 63.1377 83.0089 60.0186 86.3271C59.0136 87.3985 54.8231 91.3614 56.3211 93.1438C56.3305 93.1628 56.3685 93.1438 56.359 93.1249Z" fill="#824916"/>
<path d="M92.3285 0.345914C90.8684 4.28044 89.4653 8.07275 89.2283 12.3012C89.0102 16.2167 89.9393 20.1702 91.0486 23.9057C93.2291 31.2059 95.8364 38.4397 99.6002 45.0952C103.26 51.5895 107.981 57.4297 113.29 62.6441C115.926 65.2324 118.714 67.5931 121.89 69.4893C123.634 70.5322 125.492 71.3949 127.36 72.2008C129.057 72.9213 130.906 73.8504 132.764 73.9832C133.011 74.0021 133.266 73.6418 133.001 73.4712C131.607 72.561 129.929 72.2008 128.384 71.6224C126.677 70.9967 125.018 70.2762 123.388 69.4703C119.88 67.7448 116.96 65.3556 114.144 62.6631C108.948 57.7047 104.407 52.0636 100.681 45.9106C96.8603 39.5774 94.4711 32.7323 92.1294 25.7639C90.821 21.8768 89.8635 17.9707 89.6454 13.875C89.3989 9.32422 90.7641 4.55538 92.3664 0.355395C92.3664 0.326953 92.338 0.317472 92.3285 0.336434V0.345914Z" fill="#824916"/>
<path d="M56.3682 93.1343C56.0079 91.3899 57.2783 89.7402 58.3212 88.4603C59.9993 86.4125 62.142 84.7059 64.2372 83.0942C69.0535 79.3588 74.5428 76.2585 80.3072 74.2391C87.5031 71.7172 95.3437 70.5037 102.928 70.0391C107.166 69.7737 111.489 69.7737 115.699 70.333C119.88 70.8829 123.739 72.5326 127.844 73.3479C128.043 73.3859 128.128 73.092 127.948 73.0161C120.136 69.5935 111.271 69.0721 102.881 69.5177C94.7654 69.9443 86.2706 71.3949 78.6575 74.2865C72.751 76.5335 67.1478 79.9655 62.2937 83.9854C60.0562 85.8246 55.458 89.7118 56.3113 93.1438C56.3208 93.1723 56.3777 93.1723 56.3682 93.1343Z" fill="#824916"/>
<path d="M112.077 34.5241C114.229 36.572 115.68 39.1508 116.267 42.0614C116.884 45.0763 115.955 47.5128 115.073 50.3381C114.447 52.3575 114.447 54.1114 115.765 55.8369C116.732 57.0979 118.486 57.4297 119.946 57.022C123.492 56.055 122.866 51.2672 121.757 48.8117C120.799 46.6975 119.301 44.7634 119.491 42.3268C119.7 39.6817 121.103 37.2546 121.491 34.6379C121.558 34.1734 120.866 34.0596 120.78 34.5147C120.392 36.6763 123.226 37.4632 123.132 39.6248C123.132 39.8049 123.397 39.8618 123.425 39.6817C123.615 37.7381 120.998 36.3729 121.491 34.6379C121.254 34.6 121.017 34.5526 120.78 34.5147C119.785 38.1837 117.111 41.1512 118.477 45.0952C119.036 46.7164 120.088 48.167 120.847 49.6934C121.321 50.651 121.634 51.6464 121.548 52.7178C121.453 54.0072 120.486 55.6663 119.017 55.0216C114.969 53.2866 117.32 46.9819 116.95 43.7963C116.523 40.1178 114.627 37.0745 112.086 34.4957C112.067 34.4767 112.039 34.5147 112.058 34.5241H112.077Z" fill="#824916"/>
<path d="M123.302 38.8948C123.662 36.8469 123.236 34.7611 123.198 32.6943C123.15 29.8691 125.227 26.712 126.962 24.6451C126.81 24.5883 126.649 24.5503 126.497 24.4935C126.592 26.0009 127.056 27.4989 127.256 28.9873C127.293 29.2623 127.644 29.2528 127.711 29.0063C128.175 27.4325 127.009 26.0388 127.018 24.4461C127.018 24.1901 126.696 24.1521 126.554 24.3038C124.658 26.2569 123.435 28.5228 122.771 31.1679C122.136 33.6898 123.416 36.3444 123.236 38.8853C123.236 38.9137 123.283 38.9327 123.293 38.8853L123.302 38.8948Z" fill="#824916"/>
<path d="M127.559 28.4754C128.782 26.5224 128.602 24.1522 129.521 22.0759C130.612 19.6204 133.513 18.1982 135.75 17.0321C135.646 16.9183 135.532 16.7951 135.428 16.6718C135.096 17.4587 135.02 18.2836 134.707 19.0705C134.603 19.3454 135.001 19.5445 135.125 19.279C135.475 18.4921 135.561 17.6958 135.902 16.8994C135.978 16.7097 135.798 16.4348 135.58 16.5486C133.418 17.6768 131.342 18.805 129.844 20.758C128.118 23.0334 128.858 26.0388 127.521 28.4564C127.502 28.4849 127.549 28.5133 127.568 28.4754H127.559Z" fill="#824916"/>
<path d="M135.163 18.6438C136.253 15.2213 140.757 15.0316 143.696 14.4249C145.725 14.0077 147.621 13.3156 149.707 13.2303C151.536 13.145 153.452 13.2019 155.262 12.9174C155.414 12.889 155.443 12.6425 155.272 12.6235C151.025 12.2064 146.843 13.0691 142.767 14.0836C139.828 14.8136 136.263 15.4014 135.116 18.6249C135.106 18.6533 135.144 18.6723 135.154 18.6438H135.163Z" fill="#824916"/>
<path d="M92.3763 0.0235505C91.5988 2.28946 90.4422 4.17613 90.2336 6.61269C90.0061 9.18199 90.6223 11.8176 91.0205 14.349C91.7316 18.8713 92.9261 23.6117 95.5808 27.4041C95.8841 27.8402 96.5288 27.3756 96.2444 26.9395C93.751 23.1093 92.4995 18.7386 91.6652 14.2826C91.2386 11.9883 90.7835 9.69395 90.7266 7.3522C90.6507 4.75446 91.8453 2.49803 92.4331 0.0330312C92.4331 0.0045889 92.3857 -0.0143727 92.3763 0.0140697V0.0235505Z" fill="#824916"/>
<path d="M98.9078 18.568C97.3814 18.2456 96.4522 20.4831 96.1299 21.6303C95.7791 22.8628 94.7173 26.181 95.7981 27.2998C95.9213 27.423 96.073 27.2808 96.0825 27.1481C96.1394 25.432 96.1014 18.4257 98.8888 18.6722C98.9646 18.6817 98.9836 18.5774 98.9078 18.5585V18.568Z" fill="#824916"/>
<path d="M98.8514 18.6059C98.0456 20.9287 96.7657 22.73 97.069 25.2804C97.1923 26.2664 97.6379 27.0817 98.093 27.954C98.7851 29.2813 98.8893 30.7887 99.297 32.2108C99.4772 32.8176 100.416 32.4763 100.217 31.8695C99.8848 30.8646 99.7047 29.8217 99.3824 28.8167C99.0884 27.9066 98.4627 27.0628 98.0456 26.2095C96.8131 23.7445 98.4153 21.0614 98.9557 18.6343C98.9557 18.568 98.8609 18.5395 98.8419 18.6059H98.8514Z" fill="#824916"/>
<path d="M102.643 24.7968C101.259 27.1102 100.292 29.5562 99.837 32.2108C99.7801 32.5047 100.226 32.59 100.292 32.2961C100.804 29.7363 101.581 27.186 102.748 24.8442C102.786 24.7684 102.681 24.7305 102.643 24.7968Z" fill="#824916"/>
<path d="M102.454 24.7589C101.497 26.475 101.62 28.1341 102.094 29.9923C102.786 32.7133 103.279 35.2542 103.573 38.0415C103.649 38.7336 104.625 38.6104 104.635 37.9467C104.635 36.1359 104.578 34.3345 105.289 32.628C105.82 31.367 107.09 30.5043 107.839 29.3856C107.697 29.3097 107.545 29.2433 107.403 29.177C106.626 32.2203 108.332 35.2731 108.086 38.3639C108.029 38.9801 108.967 39.1697 109.053 38.5345C109.167 37.6433 109.735 36.9797 110.295 36.316C110.465 36.1169 112.077 35.1025 111.84 34.8086C112.125 35.1594 112.703 34.7612 112.418 34.4009C112.39 34.3724 112.352 34.325 112.324 34.2871C112.087 33.9932 111.613 34.325 111.85 34.6189C111.859 34.6379 111.878 34.6569 111.897 34.6853C112.03 34.8465 112.343 34.818 112.371 34.5715C112.371 34.5526 112.371 34.5241 112.371 34.4957C112.181 34.4673 111.992 34.4388 111.793 34.4009C111.793 34.4483 111.793 34.4957 111.783 34.5431C112.02 34.5905 112.248 34.6284 112.475 34.6664C112.475 34.6379 112.475 34.6189 112.475 34.6C112.504 34.325 112.248 34.0406 111.963 34.1639C110.342 34.8844 108.455 36.5625 108.076 38.3639C108.399 38.4207 108.721 38.4776 109.043 38.5345C109.546 35.3395 107.27 32.4289 107.887 29.2718C107.943 28.9779 107.555 28.8926 107.422 29.1201C106.607 30.5232 105.308 31.5377 104.53 32.9693C103.753 34.4199 103.744 36.316 103.582 37.9183C103.933 37.9372 104.284 37.9467 104.635 37.9657C104.521 36.0031 104.151 34.0691 103.649 32.1824C102.995 29.7269 101.648 27.4515 102.615 24.8537C102.653 24.7495 102.511 24.6831 102.454 24.7779V24.7589Z" fill="#824916"/>
<path d="M92.3568 0.184723C89.1333 4.47952 87.1992 8.97341 86.7441 14.3585C86.5261 16.9183 86.7726 19.4876 87.1897 22.0095C87.6259 24.6925 88.0146 27.4325 88.5739 30.0871C88.7636 31.0067 90.1193 30.656 89.8064 29.8027C86.2986 20.1513 86.0615 8.76483 92.3947 0.213165C92.4137 0.194204 92.3852 0.156281 92.3663 0.184723H92.3568Z" fill="#824916"/>
<path d="M84.3652 25.8398C84.716 26.6361 85.3607 26.949 86.0813 27.3567C87.2284 28.0203 88.0248 29.3666 89.0677 30.1914C89.2573 30.3431 89.4849 30.163 89.4375 29.9354C89.3237 29.4993 89.1151 29.3002 88.7928 28.9874C88.2808 28.5133 87.7594 28.0583 87.2474 27.5937C86.4226 26.8163 85.1995 26.6172 84.4221 25.7923C84.4032 25.7734 84.3652 25.8018 84.3747 25.8208L84.3652 25.8398Z" fill="#824916"/>
<path d="M84.3836 25.8587C85.4075 26.4086 85.1705 28.7219 85.161 29.6984C85.161 31.0542 85.1136 32.4289 85.1516 33.7846C85.2084 36.0979 85.5971 39.9566 87.7208 41.3503C88.0432 41.5589 88.5646 41.2081 88.2707 40.8478C86.1091 38.2501 85.6635 35.2352 85.6161 31.9359C85.5971 30.3336 85.9669 26.9016 84.4121 25.8302C84.3836 25.8018 84.3646 25.8492 84.3836 25.8587Z" fill="#824916"/>
<path d="M83.2847 36.1454C83.7588 36.9891 84.2992 37.6718 85.124 38.2027C86.3944 39.0086 87.2382 39.6627 87.7881 41.1228C87.8544 41.3029 88.1578 41.246 88.1294 41.0469C87.6174 38.4018 84.5362 38.2027 83.3226 36.1074C83.3132 36.0885 83.2752 36.1074 83.2847 36.1359V36.1454Z" fill="#824916"/>
<path d="M83.0476 35.7472C84.2327 40.516 82.384 48.8875 88.3 51.0586C88.755 51.2293 89.0774 50.5277 88.6223 50.3855C83.1235 48.6315 84.8015 40.004 83.3131 35.6524C83.2467 35.4722 83.0002 35.5765 83.0381 35.7566L83.0476 35.7472Z" fill="#824916"/>
<path d="M81.5106 47.1905C82.3733 47.5602 83.293 47.7972 84.1178 48.2523C85.0659 48.7643 85.7106 49.7692 86.6966 50.1674C87 50.2812 87.2654 49.9683 87.0948 49.7029C86.0708 47.9869 83.4067 47.0483 81.5106 47.1431C81.4821 47.1431 81.4821 47.181 81.5106 47.2V47.1905Z" fill="#824916"/>
<path d="M81.4642 47.162C81.3599 51.5611 83.7491 55.3534 86.9536 58.1977C88.7549 59.7809 91.0303 60.5204 93.3247 61.0798C94.159 61.2789 94.908 61.5539 95.619 62.0469C96.0172 62.3313 97.117 63.7629 95.8655 63.5638C95.1166 63.4405 94.4719 63.0423 93.7039 63.213C93.4384 63.2699 93.192 63.4784 93.2394 63.7818C93.4764 65.4884 95.9698 65.9245 97.2877 65.185C99.2312 64.1042 97.5721 62.0658 96.4154 61.1083C95.4768 60.3308 94.0737 60.1412 92.9265 59.9421C90.689 59.5629 88.7455 58.6622 87.001 57.2022C84.0809 54.7561 81.8624 50.9733 81.578 47.162C81.578 47.0767 81.4642 47.0957 81.4642 47.162Z" fill="#824916"/>
<path d="M100.662 77.6902C103.051 76.9601 102.88 80.0319 102.52 81.0748C102.217 81.9281 101.24 82.4779 100.51 82.933C99.0501 83.8337 97.7038 84.6585 96.405 85.7773C94.0253 87.8346 92.6506 90.3944 92.2808 93.5041C92.2524 93.7411 92.4704 93.9592 92.7169 93.8644C94.9639 93.0395 96.9264 91.8924 98.0072 89.6833C98.1115 89.4842 97.8081 89.2757 97.6754 89.4653C96.4239 91.314 94.5657 92.5086 92.4989 93.2576C92.6411 93.3714 92.7833 93.4946 92.9255 93.6084C93.2953 90.6219 94.6131 88.356 96.8221 86.3651C98.4718 84.8766 100.728 84.1276 102.302 82.6202C103.516 81.4445 103.828 80.0319 103.269 78.4391C102.823 77.1782 101.686 76.8274 100.539 77.3014C100.302 77.3962 100.425 77.766 100.681 77.6807L100.662 77.6902Z" fill="#824916"/>
<path d="M97.373 90.0341C96.9937 91.5036 95.6475 91.6553 94.8037 92.6224C94.121 93.3903 93.7229 94.291 93.3626 95.258C92.3102 98.0548 92.0922 100.871 91.6086 103.81C91.5612 104.104 91.931 104.388 92.187 104.17C93.9599 102.729 95.9319 101.914 96.1025 99.3727C96.1215 99.0314 95.6759 98.8512 95.5052 99.1925C94.6994 100.766 93.8556 102.378 93.6091 104.151C93.3436 105.99 94.8605 108.086 95.4578 109.735C95.619 110.2 96.3206 110.02 96.2827 109.536C96.1689 108.18 96.7851 107.498 97.5626 106.54C97.866 106.161 97.2971 105.687 96.9842 106.057C96.0077 107.204 95.3441 108.086 95.4389 109.621C95.7138 109.565 95.9982 109.498 96.2637 109.432C95.7897 108 94.9743 106.73 94.4624 105.308C93.7892 103.393 95.0881 101.041 96.0836 99.4675C95.8845 99.4011 95.6854 99.3347 95.4768 99.2779C95.1355 101.468 93.3057 102.274 91.7698 103.573C91.9689 103.696 92.149 103.819 92.3481 103.942C92.8032 100.833 93.0497 97.9221 94.121 94.9262C94.633 93.4946 95.4199 92.6034 96.5386 91.6174C97.0601 91.1623 97.3255 90.7167 97.4298 90.0531C97.4298 90.0151 97.3824 90.0057 97.373 90.0436V90.0341Z" fill="#824916"/>
<path d="M97.2676 105.962C96.1678 112.295 100.226 118.202 105.004 121.946C105.213 122.108 105.487 121.861 105.345 121.634C103.942 119.462 101.591 118.002 100.064 115.869C98.1398 113.196 97.0875 109.233 97.3719 105.981C97.3814 105.905 97.2676 105.886 97.2581 105.962H97.2676Z" fill="#824916"/>
<path d="M104.929 109.982C105.071 110.351 104.758 111.451 104.749 111.868C104.711 113.101 104.645 114.314 104.597 115.547C104.521 117.424 104.095 120.079 104.853 121.88C105.014 122.259 105.64 122.022 105.45 121.662C104.474 119.804 105.071 116.675 105.147 114.675C105.204 113.11 105.517 111.451 104.967 109.963C104.957 109.934 104.919 109.953 104.929 109.982Z" fill="#824916"/>
<path d="M104.9 108.218C104.531 109.185 104.844 110.001 105.204 110.92C105.621 112.001 106.076 113.025 106.958 113.793C107.214 114.021 107.546 113.622 107.29 113.404C106.55 112.741 106.161 111.897 105.792 110.996C105.45 110.171 105.014 109.166 105.052 108.266C105.062 108.18 104.929 108.123 104.891 108.218H104.9Z" fill="#824916"/>
<path d="M110.656 101.914C110.267 103.554 109.983 104.938 108.997 106.341C108.456 107.1 107.963 107.82 107.537 108.645C106.902 109.839 105.991 111.906 106.627 113.224C106.74 113.461 107.12 113.309 107.006 113.072C106.067 111.186 108.229 107.972 109.243 106.54C110.305 105.033 110.599 103.715 110.694 101.904C110.694 101.876 110.656 101.876 110.656 101.904V101.914Z" fill="#824916"/>
<path d="M110.598 102.236C110.352 103.288 110.57 104.227 110.901 105.232C111.224 106.227 111.48 107.251 112.172 108.067C112.314 108.237 112.599 108.038 112.456 107.867C111.916 107.223 111.669 106.483 111.423 105.696C111.072 104.568 110.56 103.449 110.664 102.245C110.664 102.207 110.608 102.198 110.608 102.236H110.598Z" fill="#824916"/>
<path d="M119.302 96.244C117.519 100.728 110.342 102.046 112.258 108.057C112.343 108.323 112.77 108.142 112.608 107.877C110.693 104.53 114.23 101.98 116.59 100.273C118.069 99.1926 119.046 98.1117 119.359 96.263C119.359 96.2345 119.311 96.2156 119.302 96.2535V96.244Z" fill="#824916"/>
<path d="M119.292 96.3009C118.648 97.4102 118.648 98.4056 118.913 99.6381C119.16 100.785 120.506 102.008 120.278 103.193C120.221 103.516 120.743 103.554 120.733 103.212C120.733 102.492 120.345 101.904 120.013 101.297C119.197 99.8088 118.524 97.979 119.33 96.3199C119.33 96.2914 119.302 96.282 119.292 96.3009Z" fill="#824916"/>
<path d="M126.696 90.6504C126.023 93.1912 123.084 94.8598 121.672 97.012C120.354 99.0124 120.448 101.079 120.268 103.355C120.249 103.62 120.581 103.734 120.704 103.497C121.141 102.663 121.027 101.923 120.96 100.984C120.809 98.9176 122.041 97.1352 123.283 95.6088C124.601 93.9876 126.251 92.7835 126.744 90.6599C126.744 90.6314 126.715 90.6314 126.706 90.6599L126.696 90.6504Z" fill="#824916"/>
<path d="M56.5491 93.1817C58.796 89.0671 62.6452 87.133 67.1486 86.64C70.0971 86.3176 72.9318 86.2797 75.1693 84.0707C75.4063 83.8337 74.9987 83.4829 74.7711 83.7294C71.7088 86.8865 66.8073 85.91 62.9012 86.9718C59.8958 87.7872 57.4592 90.2711 56.4827 93.1628C56.4732 93.2007 56.5206 93.2291 56.5396 93.1912L56.5491 93.1817Z" fill="#824916"/>
<path d="M74.8943 83.9285C74.1927 84.3741 73.6334 85.142 73.2067 85.8341C72.8654 86.3935 72.5336 86.9529 72.1638 87.5028C71.7846 88.0716 72.2112 87.9863 72.6568 87.8915C75.2735 87.3131 77.8902 86.2418 79.9381 84.4499C79.9665 84.431 79.9381 84.393 79.9096 84.4025C77.9376 85.5023 76.1458 86.7064 73.9367 87.3131C73.3489 87.4743 72.2871 87.4648 71.8036 87.9104C71.6803 88.0242 71.8699 88.2138 72.0027 88.119C72.4293 87.8346 72.7232 87.1804 72.9792 86.7538C73.4627 85.9763 74.0316 84.3172 74.9227 83.9569C74.9512 83.9569 74.9227 83.9001 74.9038 83.919L74.8943 83.9285Z" fill="#824916"/>
<path d="M80.4871 83.5208C80.4871 83.5208 80.4871 83.4829 80.4871 83.4639C80.4871 83.445 80.4492 83.4355 80.4492 83.4639C80.4492 83.4924 80.4492 83.5018 80.4492 83.5303C80.4492 83.5492 80.4871 83.5587 80.4871 83.5303V83.5208Z" fill="#824916"/>
<path d="M80.4971 83.4545C80.4971 83.4545 80.5161 83.3881 80.5256 83.3597C80.5256 83.3312 80.5066 83.3122 80.4782 83.3217C79.4163 83.7673 78.9518 85.0283 78.3166 85.9289C77.7761 86.6874 76.9987 89.0292 75.9653 89.0007C75.643 88.9912 75.624 89.5506 75.9464 89.5601C78.0132 89.6644 79.6723 89.3515 81.5211 88.3086C83.8438 86.9908 84.8678 84.6964 86.8113 82.9804C86.9535 82.8667 86.7829 82.6296 86.6407 82.7529C85.3987 83.8337 84.5359 85.2653 83.4077 86.4693C81.4642 88.5267 78.7716 89.342 76.0317 89.0007C75.9938 89.1903 75.9653 89.3705 75.9369 89.5601C76.7901 89.6549 77.3211 89.0102 77.7477 88.3371C78.1554 87.6924 78.6579 87.0477 79.0086 86.3745C79.3784 85.673 80.3834 84.2414 80.4497 83.445C80.4497 83.4734 80.4877 83.4829 80.4877 83.445L80.4971 83.4545Z" fill="#824916"/>
<path d="M100.7 77.4057C100.7 77.4057 100.7 77.4436 100.69 77.4626C100.69 77.491 100.728 77.491 100.738 77.4626C100.738 77.4436 100.738 77.4152 100.738 77.4057C100.738 77.3773 100.7 77.3773 100.7 77.4057Z" fill="#824916"/>
<path d="M100.7 77.4436C99.8657 77.747 99.0788 77.766 98.4057 78.4107C97.5808 79.1786 97.0594 80.0129 96.4905 80.98C94.9641 83.5587 92.8215 84.7723 90.5556 86.5167C90.2996 86.7158 90.4228 87.2183 90.7831 87.152C92.3664 86.8296 93.9781 85.0472 95.0684 83.9095C95.8269 83.1226 96.3957 82.1366 96.9551 81.198C97.9885 79.4346 98.9176 78.4391 100.728 77.4816C100.757 77.4721 100.728 77.4436 100.709 77.4436H100.7Z" fill="#824916"/>
<path d="M90.992 81.4256C90.6791 83.1795 90.717 84.9903 90.4326 86.7538C90.3662 87.1614 91.0014 87.2752 91.0583 86.8675C91.2574 85.6256 91.2195 84.5163 91.0583 83.2648C90.992 82.677 90.9256 82.0229 91.0204 81.435C91.0204 81.4066 90.992 81.3971 90.9825 81.435L90.992 81.4256Z" fill="#824916"/>
<path d="M91.0117 80.98C90.5566 83.0942 89.3336 84.431 87.9115 85.9479C87.0677 86.8581 86.1481 87.5312 84.9725 87.9199C84.2804 88.138 83.9959 88.2612 83.5598 88.8111C83.3797 89.0481 83.6072 89.4748 83.9201 89.3136C85.674 88.4129 87.1341 87.9578 88.5752 86.5073C90.0921 84.9714 90.7842 83.0847 91.0496 80.9705C91.0496 80.9515 91.0212 80.9421 91.0117 80.9705V80.98Z" fill="#824916"/>
<path d="M86.6308 82.7244C85.825 83.3691 85.3794 84.156 84.9053 85.0757C84.2701 86.2892 84.0236 87.5786 83.4358 88.7921C83.2272 89.2282 83.9288 89.5601 84.1184 89.124C84.9527 87.114 84.9907 84.3172 86.6593 82.7623C86.6782 82.7434 86.6593 82.7055 86.6308 82.7339V82.7244Z" fill="#824916"/>
<path d="M65.867 70.5985C66.9763 70.9303 67.7253 71.9448 68.7492 72.4473C69.8869 73.0256 70.6548 72.8834 71.8873 72.9687C72.1054 72.9877 72.1718 72.6464 71.9442 72.6274C70.579 72.5042 69.4602 72.5231 68.2562 71.7172C67.4598 71.1863 66.8246 70.7407 65.867 70.5511C65.8386 70.5511 65.8386 70.589 65.867 70.589V70.5985Z" fill="#824916"/>
<path d="M65.8205 70.6364C67.1857 70.1055 68.5794 69.5651 70.0394 69.4229C71.3288 69.2996 73.2724 69.0626 74.3058 70.0107C74.5238 70.2098 74.8272 69.859 74.5997 69.6599C73.6895 68.8256 72.2579 68.9299 71.1108 68.9583C69.0913 69.0247 67.5175 69.5841 65.792 70.6175C65.7731 70.6175 65.792 70.6554 65.811 70.6459L65.8205 70.6364Z" fill="#824916"/>
<path d="M71.0254 72.7317C61.0137 72.836 55.3537 84.7344 56.0648 93.5041C56.0837 93.7885 56.4819 93.8454 56.6052 93.5894C56.681 93.4282 56.7569 93.2765 56.8327 93.1249C56.9844 92.812 56.5293 92.6224 56.3681 92.9068C56.2733 93.0585 56.188 93.2102 56.0932 93.3619C56.2733 93.3903 56.4535 93.4188 56.6241 93.4472C56.6241 88.7163 57.5627 83.4734 60.2363 79.5199C62.6255 75.9741 66.6832 73.054 71.0254 72.7791C71.0539 72.7791 71.0444 72.7412 71.0254 72.7412V72.7317Z" fill="#824916"/>
<path d="M72.1348 65.9624C72.3339 67.6879 73.0544 69.4229 74.6756 70.2951C75.0454 70.4942 75.3298 69.8685 74.9506 69.7168C73.6043 69.1669 72.2675 67.4319 72.1822 65.9624C72.1822 65.9245 72.1348 65.934 72.1442 65.9624H72.1348Z" fill="#824916"/>
<path d="M72.0396 65.8961C72.3335 66.6735 73.2342 66.9769 74.0116 67.0053C75.7181 67.0717 78.4486 66.7872 79.6242 68.3231C79.9845 68.7972 80.6671 68.1525 80.2215 67.7827C79.2071 66.9389 78.0125 66.6356 76.7136 66.4839C75.6328 66.3606 72.6464 66.9105 72.0775 65.8771C72.068 65.8487 72.0301 65.8771 72.0396 65.8961Z" fill="#824916"/>
<path d="M77.7851 63.2699C78.5341 63.2888 78.4582 65.4504 78.5909 65.9624C78.828 66.8631 78.8754 67.9534 79.814 68.4179C80.2216 68.6265 80.5155 68.0008 80.1173 67.7922C79.2356 67.3561 78.9796 65.8676 78.7426 64.9859C78.6004 64.436 78.4203 63.45 77.7945 63.2509C77.7661 63.2319 77.7566 63.2888 77.7945 63.2793L77.7851 63.2699Z" fill="#824916"/>
<path d="M77.6814 63.1371C80.08 64.3127 83.7111 63.45 85.4746 65.8392C85.6168 65.6116 85.7495 65.3936 85.8917 65.166C85.8253 65.1565 85.7495 65.1376 85.6737 65.1281C85.1238 65.0143 84.9721 65.9055 85.5314 65.9814C85.6073 65.9908 85.6736 66.0003 85.7495 66.0098C86.1477 66.0762 86.4511 65.5358 86.1003 65.2703C85.2091 64.6161 84.0904 64.1421 83.0001 63.9335C81.3789 63.6301 79.1793 63.8861 77.7098 63.1087C77.6813 63.0897 77.6624 63.1277 77.6908 63.1371H77.6814Z" fill="#824916"/>
<path d="M84.0803 60.4446C84.4595 60.7954 84.3078 61.3642 84.2888 61.8098C84.2794 62.208 84.3647 62.6252 84.469 63.0139C84.7344 63.9809 84.9714 64.9006 85.5119 65.7633C85.673 66.0193 86.0333 65.7633 85.8911 65.4979C85.3412 64.5024 84.8766 63.3836 84.5448 62.2933C84.3552 61.6487 84.5543 60.9566 84.0992 60.4162C84.0803 60.3877 84.0423 60.4162 84.0708 60.4446H84.0803Z" fill="#824916"/>
<path d="M84.1281 60.1701C84.1281 60.1701 84.1571 60.1412 84.1281 60.1412C84.0992 60.1412 84.0992 60.1701 84.1281 60.1701Z" fill="#824916"/>
<path d="M83.8818 60.2265C85.4556 62.1132 87.9112 61.1462 90.0349 61.9331C91.8836 62.6062 93.9694 66.4744 96.112 64.7583C96.3585 64.5592 96.3206 64.2179 96.0552 64.0568C94.9554 63.4026 93.8935 62.9285 92.917 62.0658C92.206 61.4495 91.4949 61.0229 90.6132 60.729C89.8073 60.4635 89.0109 60.2929 88.1671 60.236C86.7735 60.1507 85.2755 60.8428 83.9292 60.1981C83.9103 60.1981 83.8913 60.217 83.9008 60.2265H83.8818Z" fill="#824916"/>
<path d="M149.602 79.975C148.843 79.3777 147.971 79.7949 147.061 79.8233C145.269 79.8897 143.619 79.8612 141.808 80.1457C139.874 80.4396 137.997 80.5533 136.101 81.0463C133.968 81.6057 131.873 82.2788 129.73 82.8098C128.971 82.9994 129.389 84.1655 130.157 83.9475C132.148 83.3881 134.423 82.8477 136.48 82.6865C138.357 82.5348 140.092 81.8238 141.951 81.5488C143.382 81.3308 144.88 81.3023 146.274 80.9136C147.383 80.6007 148.616 81.2265 149.573 80.6197C149.791 80.468 149.801 80.1362 149.602 79.975Z" fill="#824916"/>
</g>
</svg>
